solid OpenSCAD_Model
  facet normal -1 0 0
    outer loop
      vertex -35 -32.5 2.5
      vertex -35 32.5 20
      vertex -35 32.5 2.5
    endloop
  endfacet
  facet normal -1 -0 0
    outer loop
      vertex -35 32.5 20
      vertex -35 -32.5 2.5
      vertex -35 -32.5 20
    endloop
  endfacet
  facet normal 0 0 -1
    outer loop
      vertex 35 -32.5 2.5
      vertex 32.5 -30 2.5
      vertex 35 32.5 2.5
    endloop
  endfacet
  facet normal 0 0 -1
    outer loop
      vertex 35 -32.5 2.5
      vertex -32.5 -30 2.5
      vertex 32.5 -30 2.5
    endloop
  endfacet
  facet normal -0 0 -1
    outer loop
      vertex -32.5 -30 2.5
      vertex -35 -32.5 2.5
      vertex -32.5 30 2.5
    endloop
  endfacet
  facet normal 0 0 -1
    outer loop
      vertex -35 -32.5 2.5
      vertex -32.5 -30 2.5
      vertex 35 -32.5 2.5
    endloop
  endfacet
  facet normal 0 0 -1
    outer loop
      vertex 32.5 30 2.5
      vertex 35 32.5 2.5
      vertex 32.5 -30 2.5
    endloop
  endfacet
  facet normal 0 0 -1
    outer loop
      vertex -32.5 30 2.5
      vertex 35 32.5 2.5
      vertex 32.5 30 2.5
    endloop
  endfacet
  facet normal 0 0 -1
    outer loop
      vertex -32.5 30 2.5
      vertex -35 32.5 2.5
      vertex 35 32.5 2.5
    endloop
  endfacet
  facet normal 0 0 -1
    outer loop
      vertex -35 32.5 2.5
      vertex -32.5 30 2.5
      vertex -35 -32.5 2.5
    endloop
  endfacet
  facet normal 1 -0 0
    outer loop
      vertex 35 -32.5 20
      vertex 35 32.5 2.5
      vertex 35 32.5 20
    endloop
  endfacet
  facet normal 1 0 0
    outer loop
      vertex 35 32.5 2.5
      vertex 35 -32.5 20
      vertex 35 -32.5 2.5
    endloop
  endfacet
  facet normal 0 0 -1
    outer loop
      vertex -32.5 -30 0
      vertex 32.5 30 0
      vertex 32.5 -30 0
    endloop
  endfacet
  facet normal -0 0 -1
    outer loop
      vertex 32.5 30 0
      vertex -32.5 -30 0
      vertex -32.5 30 0
    endloop
  endfacet
  facet normal 0 -1 0
    outer loop
      vertex -35 -32.5 20
      vertex -21.3583 -32.5 14.6467
      vertex -18.7122 -32.5 20
    endloop
  endfacet
  facet normal 0 -1 0
    outer loop
      vertex -35 -32.5 20
      vertex -21.4226 -32.5 14.4966
      vertex -21.3583 -32.5 14.6467
    endloop
  endfacet
  facet normal 0 -1 0
    outer loop
      vertex -35 -32.5 20
      vertex -21.4618 -32.5 14.3381
      vertex -21.4226 -32.5 14.4966
    endloop
  endfacet
  facet normal 0 -1 0
    outer loop
      vertex -35 -32.5 20
      vertex -21.475 -32.5 14.1754
      vertex -21.4618 -32.5 14.3381
    endloop
  endfacet
  facet normal 0 -1 0
    outer loop
      vertex -35 -32.5 20
      vertex -21.475 -32.5 12.2035
      vertex -21.475 -32.5 14.1754
    endloop
  endfacet
  facet normal 0 -1 0
    outer loop
      vertex -35 -32.5 20
      vertex -21.4719 -32.5 12.1331
      vertex -21.475 -32.5 12.2035
    endloop
  endfacet
  facet normal 0 -1 0
    outer loop
      vertex -35 -32.5 2.5
      vertex -21.4719 -32.5 12.1331
      vertex -35 -32.5 20
    endloop
  endfacet
  facet normal 0 -1 -0
    outer loop
      vertex -21.4719 -32.5 12.1331
      vertex -35 -32.5 2.5
      vertex -21.4627 -32.5 12.0632
    endloop
  endfacet
  facet normal 0 -1 -0
    outer loop
      vertex -21.4627 -32.5 12.0632
      vertex -35 -32.5 2.5
      vertex -21.4475 -32.5 11.9944
    endloop
  endfacet
  facet normal 0 -1 -0
    outer loop
      vertex -21.4475 -32.5 11.9944
      vertex -35 -32.5 2.5
      vertex -21.4263 -32.5 11.9271
    endloop
  endfacet
  facet normal 0 -1 -0
    outer loop
      vertex -21.4263 -32.5 11.9271
      vertex -35 -32.5 2.5
      vertex -21.3993 -32.5 11.862
    endloop
  endfacet
  facet normal 0 -1 -0
    outer loop
      vertex -21.3993 -32.5 11.862
      vertex -35 -32.5 2.5
      vertex -21.3667 -32.5 11.7995
    endloop
  endfacet
  facet normal 0 -1 -0
    outer loop
      vertex -21.3667 -32.5 11.7995
      vertex -35 -32.5 2.5
      vertex -21.3289 -32.5 11.74
    endloop
  endfacet
  facet normal 0 -1 -0
    outer loop
      vertex -21.3289 -32.5 11.74
      vertex -35 -32.5 2.5
      vertex -21.286 -32.5 11.6841
    endloop
  endfacet
  facet normal 0 -1 -0
    outer loop
      vertex -21.286 -32.5 11.6841
      vertex -35 -32.5 2.5
      vertex -21.1864 -32.5 11.5845
    endloop
  endfacet
  facet normal 0 -1 -0
    outer loop
      vertex -20.667 -32.5 11.3955
      vertex -35 -32.5 2.5
      vertex 20.642 -32.5 11.3955
    endloop
  endfacet
  facet normal 0 -1 -0
    outer loop
      vertex -20.8073 -32.5 11.4078
      vertex -35 -32.5 2.5
      vertex -20.667 -32.5 11.3955
    endloop
  endfacet
  facet normal 0 -1 -0
    outer loop
      vertex -20.9433 -32.5 11.4442
      vertex -35 -32.5 2.5
      vertex -20.8073 -32.5 11.4078
    endloop
  endfacet
  facet normal 0 -1 -0
    outer loop
      vertex -21.071 -32.5 11.5038
      vertex -35 -32.5 2.5
      vertex -20.9433 -32.5 11.4442
    endloop
  endfacet
  facet normal 0 -1 -0
    outer loop
      vertex -21.1864 -32.5 11.5845
      vertex -35 -32.5 2.5
      vertex -21.071 -32.5 11.5038
    endloop
  endfacet
  facet normal 0 -1 0
    outer loop
      vertex 21.4076 -32.5 14.4913
      vertex 35 -32.5 20
      vertex 19.4345 -32.5 20
    endloop
  endfacet
  facet normal 0 -1 0
    outer loop
      vertex 21.4393 -32.5 14.348
      vertex 35 -32.5 20
      vertex 21.4076 -32.5 14.4913
    endloop
  endfacet
  facet normal 0 -1 0
    outer loop
      vertex 21.45 -32.5 14.2016
      vertex 35 -32.5 20
      vertex 21.4393 -32.5 14.348
    endloop
  endfacet
  facet normal 0 -1 0
    outer loop
      vertex 21.45 -32.5 12.2035
      vertex 35 -32.5 20
      vertex 21.45 -32.5 14.2016
    endloop
  endfacet
  facet normal 0 -1 0
    outer loop
      vertex 21.4377 -32.5 12.0632
      vertex 35 -32.5 20
      vertex 21.45 -32.5 12.2035
    endloop
  endfacet
  facet normal 0 -1 0
    outer loop
      vertex 35 -32.5 2.5
      vertex 21.4377 -32.5 12.0632
      vertex 21.4013 -32.5 11.9271
    endloop
  endfacet
  facet normal 0 -1 0
    outer loop
      vertex 35 -32.5 2.5
      vertex 21.4013 -32.5 11.9271
      vertex 21.3417 -32.5 11.7995
    endloop
  endfacet
  facet normal 0 -1 0
    outer loop
      vertex 35 -32.5 2.5
      vertex 21.3417 -32.5 11.7995
      vertex 21.261 -32.5 11.6841
    endloop
  endfacet
  facet normal 0 -1 0
    outer loop
      vertex 35 -32.5 2.5
      vertex 21.261 -32.5 11.6841
      vertex 21.1614 -32.5 11.5845
    endloop
  endfacet
  facet normal 0 -1 0
    outer loop
      vertex 35 -32.5 2.5
      vertex 21.1614 -32.5 11.5845
      vertex 21.046 -32.5 11.5038
    endloop
  endfacet
  facet normal 0 -1 0
    outer loop
      vertex 35 -32.5 2.5
      vertex 20.642 -32.5 11.3955
      vertex -35 -32.5 2.5
    endloop
  endfacet
  facet normal 0 -1 0
    outer loop
      vertex 21.4377 -32.5 12.0632
      vertex 35 -32.5 2.5
      vertex 35 -32.5 20
    endloop
  endfacet
  facet normal 0 -1 0
    outer loop
      vertex 20.9184 -32.5 11.4442
      vertex 35 -32.5 2.5
      vertex 21.046 -32.5 11.5038
    endloop
  endfacet
  facet normal 0 -1 0
    outer loop
      vertex 20.7823 -32.5 11.4078
      vertex 35 -32.5 2.5
      vertex 20.9184 -32.5 11.4442
    endloop
  endfacet
  facet normal 0 -1 0
    outer loop
      vertex 20.642 -32.5 11.3955
      vertex 35 -32.5 2.5
      vertex 20.7823 -32.5 11.4078
    endloop
  endfacet
  facet normal 0 -1 0
    outer loop
      vertex -32.5 -30 0
      vertex 32.5 -30 2.5
      vertex -32.5 -30 2.5
    endloop
  endfacet
  facet normal 0 -1 -0
    outer loop
      vertex 32.5 -30 2.5
      vertex -32.5 -30 0
      vertex 32.5 -30 0
    endloop
  endfacet
  facet normal -1 0 0
    outer loop
      vertex -32.5 -30 0
      vertex -32.5 30 2.5
      vertex -32.5 30 0
    endloop
  endfacet
  facet normal -1 -0 0
    outer loop
      vertex -32.5 30 2.5
      vertex -32.5 -30 0
      vertex -32.5 -30 2.5
    endloop
  endfacet
  facet normal 0 1 -0
    outer loop
      vertex 35 32.5 2.5
      vertex -35 32.5 20
      vertex 35 32.5 20
    endloop
  endfacet
  facet normal 0 1 0
    outer loop
      vertex -35 32.5 20
      vertex 35 32.5 2.5
      vertex -35 32.5 2.5
    endloop
  endfacet
  facet normal 0 1 -0
    outer loop
      vertex 32.5 30 0
      vertex -32.5 30 2.5
      vertex 32.5 30 2.5
    endloop
  endfacet
  facet normal 0 1 0
    outer loop
      vertex -32.5 30 2.5
      vertex 32.5 30 0
      vertex -32.5 30 0
    endloop
  endfacet
  facet normal 1 -0 0
    outer loop
      vertex 32.5 -30 2.5
      vertex 32.5 30 0
      vertex 32.5 30 2.5
    endloop
  endfacet
  facet normal 1 0 0
    outer loop
      vertex 32.5 30 0
      vertex 32.5 -30 2.5
      vertex 32.5 -30 0
    endloop
  endfacet
  facet normal 0.57308 0 0.8195
    outer loop
      vertex -21.1864 20 11.5845
      vertex -21.071 -32.5 11.5038
      vertex -21.071 20 11.5038
    endloop
  endfacet
  facet normal 0.57308 0 0.8195
    outer loop
      vertex -21.071 -32.5 11.5038
      vertex -21.1864 20 11.5845
      vertex -21.1864 -32.5 11.5845
    endloop
  endfacet
  facet normal 0.0873373 0 0.996179
    outer loop
      vertex -20.8073 20 11.4078
      vertex -20.667 -32.5 11.3955
      vertex -20.667 20 11.3955
    endloop
  endfacet
  facet normal 0.0873373 0 0.996179
    outer loop
      vertex -20.667 -32.5 11.3955
      vertex -20.8073 20 11.4078
      vertex -20.8073 -32.5 11.4078
    endloop
  endfacet
  facet normal 0.707107 -0 0.707107
    outer loop
      vertex -21.286 -32.5 11.6841
      vertex -21.1864 20 11.5845
      vertex -21.286 20 11.6841
    endloop
  endfacet
  facet normal 0.707107 0 0.707107
    outer loop
      vertex -21.1864 20 11.5845
      vertex -21.286 -32.5 11.6841
      vertex -21.1864 -32.5 11.5845
    endloop
  endfacet
  facet normal -0.941433 0 -0.337201
    outer loop
      vertex 21.4076 -32.5 14.4913
      vertex 19.4345 20 20
      vertex 21.4076 20 14.4913
    endloop
  endfacet
  facet normal -0.941433 -0 -0.337201
    outer loop
      vertex 19.4345 20 20
      vertex 21.4076 -32.5 14.4913
      vertex 19.4345 -32.5 20
    endloop
  endfacet
  facet normal 0.422921 0 0.906166
    outer loop
      vertex -21.071 20 11.5038
      vertex -20.9433 -32.5 11.4442
      vertex -20.9433 20 11.4442
    endloop
  endfacet
  facet normal 0.422921 0 0.906166
    outer loop
      vertex -20.9433 -32.5 11.4442
      vertex -21.071 20 11.5038
      vertex -21.071 -32.5 11.5038
    endloop
  endfacet
  facet normal 1 -0 0
    outer loop
      vertex -21.475 -32.5 14.1754
      vertex -21.475 20 12.2035
      vertex -21.475 20 14.1754
    endloop
  endfacet
  facet normal 1 0 0
    outer loop
      vertex -21.475 20 12.2035
      vertex -21.475 -32.5 14.1754
      vertex -21.475 -32.5 12.2035
    endloop
  endfacet
  facet normal 0.886633 -0 0.462474
    outer loop
      vertex -21.3993 -32.5 11.862
      vertex -21.3667 20 11.7995
      vertex -21.3993 20 11.862
    endloop
  endfacet
  facet normal 0.886633 0 0.462474
    outer loop
      vertex -21.3667 20 11.7995
      vertex -21.3993 -32.5 11.862
      vertex -21.3667 -32.5 11.7995
    endloop
  endfacet
  facet normal 0.923703 -0 0.38311
    outer loop
      vertex -21.4263 -32.5 11.9271
      vertex -21.3993 20 11.862
      vertex -21.4263 20 11.9271
    endloop
  endfacet
  facet normal 0.923703 0 0.38311
    outer loop
      vertex -21.3993 20 11.862
      vertex -21.4263 -32.5 11.9271
      vertex -21.3993 -32.5 11.862
    endloop
  endfacet
  facet normal 0.919208 0 -0.393773
    outer loop
      vertex -21.3583 -32.5 14.6467
      vertex -21.4226 20 14.4966
      vertex -21.3583 20 14.6467
    endloop
  endfacet
  facet normal 0.919208 0 -0.393773
    outer loop
      vertex -21.4226 20 14.4966
      vertex -21.3583 -32.5 14.6467
      vertex -21.4226 -32.5 14.4966
    endloop
  endfacet
  facet normal 0.953803 -0 0.300431
    outer loop
      vertex -21.4475 -32.5 11.9944
      vertex -21.4263 20 11.9271
      vertex -21.4475 20 11.9944
    endloop
  endfacet
  facet normal 0.953803 0 0.300431
    outer loop
      vertex -21.4263 20 11.9271
      vertex -21.4475 -32.5 11.9944
      vertex -21.4263 -32.5 11.9271
    endloop
  endfacet
  facet normal 0.976449 -0 0.215747
    outer loop
      vertex -21.4627 -32.5 12.0632
      vertex -21.4475 20 11.9944
      vertex -21.4627 20 12.0632
    endloop
  endfacet
  facet normal 0.976449 0 0.215747
    outer loop
      vertex -21.4475 20 11.9944
      vertex -21.4627 -32.5 12.0632
      vertex -21.4475 -32.5 11.9944
    endloop
  endfacet
  facet normal 0.25855 0 0.965998
    outer loop
      vertex -20.9433 20 11.4442
      vertex -20.8073 -32.5 11.4078
      vertex -20.8073 20 11.4078
    endloop
  endfacet
  facet normal 0.25855 0 0.965998
    outer loop
      vertex -20.8073 -32.5 11.4078
      vertex -20.9433 20 11.4442
      vertex -20.9433 -32.5 11.4442
    endloop
  endfacet
  facet normal -0 0 1
    outer loop
      vertex -20.667 20 11.3955
      vertex 20.642 -32.5 11.3955
      vertex 20.642 20 11.3955
    endloop
  endfacet
  facet normal 0 0 1
    outer loop
      vertex 20.642 -32.5 11.3955
      vertex -20.667 20 11.3955
      vertex -20.667 -32.5 11.3955
    endloop
  endfacet
  facet normal -0.976395 0 -0.215993
    outer loop
      vertex 21.4393 -32.5 14.348
      vertex 21.4076 20 14.4913
      vertex 21.4393 20 14.348
    endloop
  endfacet
  facet normal -0.976395 -0 -0.215993
    outer loop
      vertex 21.4076 20 14.4913
      vertex 21.4393 -32.5 14.348
      vertex 21.4076 -32.5 14.4913
    endloop
  endfacet
  facet normal 0.793312 -0 0.608816
    outer loop
      vertex -21.3289 -32.5 11.74
      vertex -21.286 20 11.6841
      vertex -21.3289 20 11.74
    endloop
  endfacet
  facet normal 0.793312 0 0.608816
    outer loop
      vertex -21.286 20 11.6841
      vertex -21.3289 -32.5 11.74
      vertex -21.286 -32.5 11.6841
    endloop
  endfacet
  facet normal 0.896464 0 -0.443116
    outer loop
      vertex -18.7122 -32.5 20
      vertex -21.3583 20 14.6467
      vertex -18.7122 20 20
    endloop
  endfacet
  facet normal 0.896464 0 -0.443116
    outer loop
      vertex -21.3583 20 14.6467
      vertex -18.7122 -32.5 20
      vertex -21.3583 -32.5 14.6467
    endloop
  endfacet
  facet normal 0.999033 -0 0.0439564
    outer loop
      vertex -21.475 -32.5 12.2035
      vertex -21.4719 20 12.1331
      vertex -21.475 20 12.2035
    endloop
  endfacet
  facet normal 0.999033 0 0.0439564
    outer loop
      vertex -21.4719 20 12.1331
      vertex -21.475 -32.5 12.2035
      vertex -21.4719 -32.5 12.1331
    endloop
  endfacet
  facet normal 0.996726 0 -0.0808584
    outer loop
      vertex -21.4618 -32.5 14.3381
      vertex -21.475 20 14.1754
      vertex -21.4618 20 14.3381
    endloop
  endfacet
  facet normal 0.996726 0 -0.0808584
    outer loop
      vertex -21.475 20 14.1754
      vertex -21.4618 -32.5 14.3381
      vertex -21.475 -32.5 14.1754
    endloop
  endfacet
  facet normal 0.991447 -0 0.130507
    outer loop
      vertex -21.4719 -32.5 12.1331
      vertex -21.4627 20 12.0632
      vertex -21.4719 20 12.1331
    endloop
  endfacet
  facet normal 0.991447 0 0.130507
    outer loop
      vertex -21.4627 20 12.0632
      vertex -21.4719 -32.5 12.1331
      vertex -21.4627 -32.5 12.0632
    endloop
  endfacet
  facet normal -0.0873373 0 0.996179
    outer loop
      vertex 20.642 20 11.3955
      vertex 20.7823 -32.5 11.4078
      vertex 20.7823 20 11.4078
    endloop
  endfacet
  facet normal -0.0873373 0 0.996179
    outer loop
      vertex 20.7823 -32.5 11.4078
      vertex 20.642 20 11.3955
      vertex 20.642 -32.5 11.3955
    endloop
  endfacet
  facet normal -0.423196 0 0.906038
    outer loop
      vertex 20.9184 20 11.4442
      vertex 21.046 -32.5 11.5038
      vertex 21.046 20 11.5038
    endloop
  endfacet
  facet normal -0.423196 0 0.906038
    outer loop
      vertex 21.046 -32.5 11.5038
      vertex 20.9184 20 11.4442
      vertex 20.9184 -32.5 11.4442
    endloop
  endfacet
  facet normal 0.970752 0 -0.240084
    outer loop
      vertex -21.4226 -32.5 14.4966
      vertex -21.4618 20 14.3381
      vertex -21.4226 20 14.4966
    endloop
  endfacet
  facet normal 0.970752 0 -0.240084
    outer loop
      vertex -21.4618 20 14.3381
      vertex -21.4226 -32.5 14.4966
      vertex -21.4618 -32.5 14.3381
    endloop
  endfacet
  facet normal 0.84407 -0 0.536233
    outer loop
      vertex -21.3667 -32.5 11.7995
      vertex -21.3289 20 11.74
      vertex -21.3667 20 11.7995
    endloop
  endfacet
  facet normal 0.84407 0 0.536233
    outer loop
      vertex -21.3289 20 11.74
      vertex -21.3667 -32.5 11.7995
      vertex -21.3289 -32.5 11.74
    endloop
  endfacet
  facet normal -0.906041 0 0.423191
    outer loop
      vertex 21.3417 -32.5 11.7995
      vertex 21.4013 20 11.9271
      vertex 21.3417 20 11.7995
    endloop
  endfacet
  facet normal -0.906041 0 0.423191
    outer loop
      vertex 21.4013 20 11.9271
      vertex 21.3417 -32.5 11.7995
      vertex 21.4013 -32.5 11.9271
    endloop
  endfacet
  facet normal -0.57308 0 0.8195
    outer loop
      vertex 21.046 20 11.5038
      vertex 21.1614 -32.5 11.5845
      vertex 21.1614 20 11.5845
    endloop
  endfacet
  facet normal -0.57308 0 0.8195
    outer loop
      vertex 21.1614 -32.5 11.5845
      vertex 21.046 20 11.5038
      vertex 21.046 -32.5 11.5038
    endloop
  endfacet
  facet normal -1 0 0
    outer loop
      vertex 21.45 -32.5 12.2035
      vertex 21.45 20 14.2016
      vertex 21.45 20 12.2035
    endloop
  endfacet
  facet normal -1 -0 0
    outer loop
      vertex 21.45 20 14.2016
      vertex 21.45 -32.5 12.2035
      vertex 21.45 -32.5 14.2016
    endloop
  endfacet
  facet normal -0.258367 0 0.966047
    outer loop
      vertex 20.7823 20 11.4078
      vertex 20.9184 -32.5 11.4442
      vertex 20.9184 20 11.4442
    endloop
  endfacet
  facet normal -0.258367 0 0.966047
    outer loop
      vertex 20.9184 -32.5 11.4442
      vertex 20.7823 20 11.4078
      vertex 20.7823 -32.5 11.4078
    endloop
  endfacet
  facet normal -0.99734 0 -0.0728943
    outer loop
      vertex 21.45 -32.5 14.2016
      vertex 21.4393 20 14.348
      vertex 21.45 20 14.2016
    endloop
  endfacet
  facet normal -0.99734 -0 -0.0728943
    outer loop
      vertex 21.4393 20 14.348
      vertex 21.45 -32.5 14.2016
      vertex 21.4393 -32.5 14.348
    endloop
  endfacet
  facet normal -0.707107 0 0.707107
    outer loop
      vertex 21.1614 -32.5 11.5845
      vertex 21.261 20 11.6841
      vertex 21.1614 20 11.5845
    endloop
  endfacet
  facet normal -0.707107 0 0.707107
    outer loop
      vertex 21.261 20 11.6841
      vertex 21.1614 -32.5 11.5845
      vertex 21.261 -32.5 11.6841
    endloop
  endfacet
  facet normal -0.8195 0 0.57308
    outer loop
      vertex 21.261 -32.5 11.6841
      vertex 21.3417 20 11.7995
      vertex 21.261 20 11.6841
    endloop
  endfacet
  facet normal -0.8195 0 0.57308
    outer loop
      vertex 21.3417 20 11.7995
      vertex 21.261 -32.5 11.6841
      vertex 21.3417 -32.5 11.7995
    endloop
  endfacet
  facet normal -0.966047 0 0.258367
    outer loop
      vertex 21.4013 -32.5 11.9271
      vertex 21.4377 20 12.0632
      vertex 21.4013 20 11.9271
    endloop
  endfacet
  facet normal -0.966047 0 0.258367
    outer loop
      vertex 21.4377 20 12.0632
      vertex 21.4013 -32.5 11.9271
      vertex 21.4377 -32.5 12.0632
    endloop
  endfacet
  facet normal -0.996178 0 0.0873513
    outer loop
      vertex 21.4377 -32.5 12.0632
      vertex 21.45 20 12.2035
      vertex 21.4377 20 12.0632
    endloop
  endfacet
  facet normal -0.996178 0 0.0873513
    outer loop
      vertex 21.45 20 12.2035
      vertex 21.4377 -32.5 12.0632
      vertex 21.45 -32.5 12.2035
    endloop
  endfacet
  facet normal 0 -1 0
    outer loop
      vertex -20.667 20 11.3955
      vertex -18.7122 20 20
      vertex -21.3583 20 14.6467
    endloop
  endfacet
  facet normal 0 -1 0
    outer loop
      vertex -21.475 20 14.1754
      vertex -21.3583 20 14.6467
      vertex -21.4226 20 14.4966
    endloop
  endfacet
  facet normal 0 -1 0
    outer loop
      vertex 20.642 20 11.3955
      vertex -18.7122 20 20
      vertex -20.667 20 11.3955
    endloop
  endfacet
  facet normal 0 -1 0
    outer loop
      vertex 19.4345 20 20
      vertex 20.642 20 11.3955
      vertex 21.4076 20 14.4913
    endloop
  endfacet
  facet normal 0 -1 0
    outer loop
      vertex -21.475 20 14.1754
      vertex -21.4226 20 14.4966
      vertex -21.4618 20 14.3381
    endloop
  endfacet
  facet normal -0 -1 0
    outer loop
      vertex 21.45 20 14.2016
      vertex 21.4076 20 14.4913
      vertex 20.642 20 11.3955
    endloop
  endfacet
  facet normal 0 -1 -0
    outer loop
      vertex -21.3583 20 14.6467
      vertex -21.475 20 14.1754
      vertex -20.667 20 11.3955
    endloop
  endfacet
  facet normal 0 -1 0
    outer loop
      vertex -20.667 20 11.3955
      vertex -21.475 20 14.1754
      vertex -21.475 20 12.2035
    endloop
  endfacet
  facet normal 0 -1 0
    outer loop
      vertex -18.7122 20 20
      vertex 20.642 20 11.3955
      vertex 19.4345 20 20
    endloop
  endfacet
  facet normal 0 -1 0
    outer loop
      vertex -20.667 20 11.3955
      vertex -21.475 20 12.2035
      vertex -21.4719 20 12.1331
    endloop
  endfacet
  facet normal 0 -1 0
    outer loop
      vertex -20.667 20 11.3955
      vertex -21.4719 20 12.1331
      vertex -21.4627 20 12.0632
    endloop
  endfacet
  facet normal 0 -1 0
    outer loop
      vertex 21.4076 20 14.4913
      vertex 21.45 20 14.2016
      vertex 21.4393 20 14.348
    endloop
  endfacet
  facet normal 0 -1 0
    outer loop
      vertex -20.667 20 11.3955
      vertex -21.4627 20 12.0632
      vertex -21.4475 20 11.9944
    endloop
  endfacet
  facet normal 0 -1 0
    outer loop
      vertex -20.667 20 11.3955
      vertex -21.4475 20 11.9944
      vertex -21.4263 20 11.9271
    endloop
  endfacet
  facet normal 0 -1 -0
    outer loop
      vertex 21.45 20 14.2016
      vertex 20.642 20 11.3955
      vertex 21.45 20 12.2035
    endloop
  endfacet
  facet normal 0 -1 0
    outer loop
      vertex -20.667 20 11.3955
      vertex -21.4263 20 11.9271
      vertex -21.3993 20 11.862
    endloop
  endfacet
  facet normal 0 -1 0
    outer loop
      vertex -20.667 20 11.3955
      vertex -21.3993 20 11.862
      vertex -21.3667 20 11.7995
    endloop
  endfacet
  facet normal 0 -1 0
    outer loop
      vertex 21.45 20 12.2035
      vertex 20.642 20 11.3955
      vertex 21.4377 20 12.0632
    endloop
  endfacet
  facet normal 0 -1 0
    outer loop
      vertex -20.667 20 11.3955
      vertex -21.3667 20 11.7995
      vertex -21.3289 20 11.74
    endloop
  endfacet
  facet normal 0 -1 0
    outer loop
      vertex -20.667 20 11.3955
      vertex -21.3289 20 11.74
      vertex -21.286 20 11.6841
    endloop
  endfacet
  facet normal 0 -1 0
    outer loop
      vertex 21.4377 20 12.0632
      vertex 20.642 20 11.3955
      vertex 21.4013 20 11.9271
    endloop
  endfacet
  facet normal 0 -1 0
    outer loop
      vertex -20.667 20 11.3955
      vertex -21.286 20 11.6841
      vertex -21.1864 20 11.5845
    endloop
  endfacet
  facet normal 0 -1 0
    outer loop
      vertex 21.4013 20 11.9271
      vertex 20.642 20 11.3955
      vertex 21.3417 20 11.7995
    endloop
  endfacet
  facet normal 0 -1 0
    outer loop
      vertex -20.667 20 11.3955
      vertex -21.1864 20 11.5845
      vertex -21.071 20 11.5038
    endloop
  endfacet
  facet normal 0 -1 0
    outer loop
      vertex 21.3417 20 11.7995
      vertex 20.642 20 11.3955
      vertex 21.261 20 11.6841
    endloop
  endfacet
  facet normal 0 -1 0
    outer loop
      vertex -20.667 20 11.3955
      vertex -21.071 20 11.5038
      vertex -20.9433 20 11.4442
    endloop
  endfacet
  facet normal 0 -1 0
    outer loop
      vertex 21.261 20 11.6841
      vertex 20.642 20 11.3955
      vertex 21.1614 20 11.5845
    endloop
  endfacet
  facet normal 0 -1 0
    outer loop
      vertex -20.667 20 11.3955
      vertex -20.9433 20 11.4442
      vertex -20.8073 20 11.4078
    endloop
  endfacet
  facet normal 0 -1 0
    outer loop
      vertex 21.1614 20 11.5845
      vertex 20.642 20 11.3955
      vertex 21.046 20 11.5038
    endloop
  endfacet
  facet normal 0 -1 0
    outer loop
      vertex 21.046 20 11.5038
      vertex 20.642 20 11.3955
      vertex 20.9184 20 11.4442
    endloop
  endfacet
  facet normal 0 -1 0
    outer loop
      vertex 20.9184 20 11.4442
      vertex 20.642 20 11.3955
      vertex 20.7823 20 11.4078
    endloop
  endfacet
  facet normal 0 0 1
    outer loop
      vertex 35 32.5 20
      vertex 19.4345 20 20
      vertex 35 -32.5 20
    endloop
  endfacet
  facet normal 0 0 1
    outer loop
      vertex 35 32.5 20
      vertex -18.7122 20 20
      vertex 19.4345 20 20
    endloop
  endfacet
  facet normal -0 0 1
    outer loop
      vertex -35 32.5 20
      vertex -18.7122 20 20
      vertex 35 32.5 20
    endloop
  endfacet
  facet normal 0 0 1
    outer loop
      vertex -35 -32.5 20
      vertex -18.7122 20 20
      vertex -35 32.5 20
    endloop
  endfacet
  facet normal 0 0 1
    outer loop
      vertex -18.7122 20 20
      vertex -35 -32.5 20
      vertex -18.7122 -32.5 20
    endloop
  endfacet
  facet normal 0 0 1
    outer loop
      vertex 35 -32.5 20
      vertex 19.4345 20 20
      vertex 19.4345 -32.5 20
    endloop
  endfacet
endsolid OpenSCAD_Model
