solid OpenSCAD_Model
  facet normal -1 0 0
    outer loop
      vertex -35 -32.5 0
      vertex -35 32.5 52.5
      vertex -35 32.5 0
    endloop
  endfacet
  facet normal -1 -0 0
    outer loop
      vertex -35 32.5 52.5
      vertex -35 -32.5 0
      vertex -35 -32.5 52.5
    endloop
  endfacet
  facet normal -0 0 1
    outer loop
      vertex -32.55 32.5 50
      vertex 35 32.45 50
      vertex 35 32.5 50
    endloop
  endfacet
  facet normal 0 0 1
    outer loop
      vertex 35 32.45 50
      vertex -32.55 32.5 50
      vertex -32.55 32.45 50
    endloop
  endfacet
  facet normal 0 0 1
    outer loop
      vertex 32.5 30 50
      vertex 30 27.5 50
      vertex 32.5 -30.05 50
    endloop
  endfacet
  facet normal 0 0 1
    outer loop
      vertex 32.5 30 50
      vertex -30 27.5 50
      vertex 30 27.5 50
    endloop
  endfacet
  facet normal 0 0 1
    outer loop
      vertex -30 27.5 50
      vertex -32.55 30 50
      vertex -30 -27.5 50
    endloop
  endfacet
  facet normal -0 0 1
    outer loop
      vertex -32.55 30 50
      vertex -30 27.5 50
      vertex 32.5 30 50
    endloop
  endfacet
  facet normal -0 0 1
    outer loop
      vertex 30 -27.5 50
      vertex 32.5 -30.05 50
      vertex 30 27.5 50
    endloop
  endfacet
  facet normal -0 0 1
    outer loop
      vertex -30 -27.5 50
      vertex 32.5 -30.05 50
      vertex 30 -27.5 50
    endloop
  endfacet
  facet normal 0 0 1
    outer loop
      vertex -30 -27.5 50
      vertex -32.55 -30.05 50
      vertex 32.5 -30.05 50
    endloop
  endfacet
  facet normal 0 0 1
    outer loop
      vertex -32.55 -30.05 50
      vertex -30 -27.5 50
      vertex -32.55 30 50
    endloop
  endfacet
  facet normal 1 0 0
    outer loop
      vertex 35 32.45 52.5
      vertex 35 -32.5 52.5
      vertex 35 32.45 50
    endloop
  endfacet
  facet normal 1 -0 0
    outer loop
      vertex 35 32.45 50
      vertex 35 32.5 0
      vertex 35 32.5 50
    endloop
  endfacet
  facet normal 1 0 0
    outer loop
      vertex 35 -32.5 0
      vertex 35 32.45 50
      vertex 35 -32.5 52.5
    endloop
  endfacet
  facet normal 1 0 0
    outer loop
      vertex 35 32.45 50
      vertex 35 -32.5 0
      vertex 35 32.5 0
    endloop
  endfacet
  facet normal 0 1 0
    outer loop
      vertex 35 32.5 50
      vertex 35 32.5 0
      vertex -32.55 32.5 50
    endloop
  endfacet
  facet normal 0 1 -0
    outer loop
      vertex -32.55 32.5 50
      vertex -35 32.5 52.5
      vertex -32.55 32.5 52.5
    endloop
  endfacet
  facet normal 0 1 0
    outer loop
      vertex -32.55 32.5 50
      vertex -35 32.5 0
      vertex -35 32.5 52.5
    endloop
  endfacet
  facet normal 0 1 0
    outer loop
      vertex -35 32.5 0
      vertex -32.55 32.5 50
      vertex 35 32.5 0
    endloop
  endfacet
  facet normal 0 0 -1
    outer loop
      vertex -35 -32.5 0
      vertex 35 32.5 0
      vertex 35 -32.5 0
    endloop
  endfacet
  facet normal -0 0 -1
    outer loop
      vertex 35 32.5 0
      vertex -35 -32.5 0
      vertex -35 32.5 0
    endloop
  endfacet
  facet normal 0 -1 0
    outer loop
      vertex -35 -32.5 0
      vertex 35 -32.5 52.5
      vertex -35 -32.5 52.5
    endloop
  endfacet
  facet normal 0 -1 -0
    outer loop
      vertex 35 -32.5 52.5
      vertex -35 -32.5 0
      vertex 35 -32.5 0
    endloop
  endfacet
  facet normal 1 -0 0
    outer loop
      vertex -30 -27.5 50
      vertex -30 27.5 10
      vertex -30 27.5 50
    endloop
  endfacet
  facet normal 1 0 0
    outer loop
      vertex -30 27.5 10
      vertex -30 -27.5 50
      vertex -30 -27.5 10
    endloop
  endfacet
  facet normal -1 0 0
    outer loop
      vertex 30 -27.5 10
      vertex 30 27.5 50
      vertex 30 27.5 10
    endloop
  endfacet
  facet normal -1 -0 0
    outer loop
      vertex 30 27.5 50
      vertex 30 -27.5 10
      vertex 30 -27.5 50
    endloop
  endfacet
  facet normal 0 -1 0
    outer loop
      vertex -30 27.5 10
      vertex 30 27.5 50
      vertex -30 27.5 50
    endloop
  endfacet
  facet normal 0 -1 -0
    outer loop
      vertex 30 27.5 50
      vertex -30 27.5 10
      vertex 30 27.5 10
    endloop
  endfacet
  facet normal -0 0 1
    outer loop
      vertex -30 27.5 10
      vertex 30 -27.5 10
      vertex 30 27.5 10
    endloop
  endfacet
  facet normal 0 0 1
    outer loop
      vertex 30 -27.5 10
      vertex -30 27.5 10
      vertex -30 -27.5 10
    endloop
  endfacet
  facet normal 0 1 -0
    outer loop
      vertex 30 -27.5 10
      vertex -30 -27.5 50
      vertex 30 -27.5 50
    endloop
  endfacet
  facet normal 0 1 0
    outer loop
      vertex -30 -27.5 50
      vertex 30 -27.5 10
      vertex -30 -27.5 10
    endloop
  endfacet
  facet normal -0 0 1
    outer loop
      vertex -35 32.5 52.5
      vertex -32.55 32.45 52.5
      vertex -32.55 32.5 52.5
    endloop
  endfacet
  facet normal 0 0 1
    outer loop
      vertex -32.55 32.45 52.5
      vertex -35 32.5 52.5
      vertex -32.55 30 52.5
    endloop
  endfacet
  facet normal 0 0 1
    outer loop
      vertex -35 -32.5 52.5
      vertex -32.55 30 52.5
      vertex -35 32.5 52.5
    endloop
  endfacet
  facet normal 0 0 1
    outer loop
      vertex 35 32.45 52.5
      vertex 32.5 30 52.5
      vertex 35 -32.5 52.5
    endloop
  endfacet
  facet normal -0 0 1
    outer loop
      vertex -32.55 32.45 52.5
      vertex 32.5 30 52.5
      vertex 35 32.45 52.5
    endloop
  endfacet
  facet normal 0 0 1
    outer loop
      vertex 32.5 30 52.5
      vertex -32.55 32.45 52.5
      vertex -32.55 30 52.5
    endloop
  endfacet
  facet normal -0 0 1
    outer loop
      vertex 32.5 -30.05 52.5
      vertex 35 -32.5 52.5
      vertex 32.5 30 52.5
    endloop
  endfacet
  facet normal 0 0 1
    outer loop
      vertex -35 -32.5 52.5
      vertex 32.5 -30.05 52.5
      vertex -32.55 -30.05 52.5
    endloop
  endfacet
  facet normal 0 0 1
    outer loop
      vertex 32.5 -30.05 52.5
      vertex -35 -32.5 52.5
      vertex 35 -32.5 52.5
    endloop
  endfacet
  facet normal 0 0 1
    outer loop
      vertex -32.55 30 52.5
      vertex -35 -32.5 52.5
      vertex -32.55 -30.05 52.5
    endloop
  endfacet
  facet normal 0 1 -0
    outer loop
      vertex 32.5 -30.05 50
      vertex -32.55 -30.05 52.5
      vertex 32.5 -30.05 52.5
    endloop
  endfacet
  facet normal 0 1 0
    outer loop
      vertex -32.55 -30.05 52.5
      vertex 32.5 -30.05 50
      vertex -32.55 -30.05 50
    endloop
  endfacet
  facet normal 1 -0 0
    outer loop
      vertex -32.55 32.45 52.5
      vertex -32.55 32.5 50
      vertex -32.55 32.5 52.5
    endloop
  endfacet
  facet normal 1 0 0
    outer loop
      vertex -32.55 32.5 50
      vertex -32.55 32.45 52.5
      vertex -32.55 32.45 50
    endloop
  endfacet
  facet normal 1 -0 0
    outer loop
      vertex -32.55 -30.05 52.5
      vertex -32.55 30 50
      vertex -32.55 30 52.5
    endloop
  endfacet
  facet normal 1 0 0
    outer loop
      vertex -32.55 30 50
      vertex -32.55 -30.05 52.5
      vertex -32.55 -30.05 50
    endloop
  endfacet
  facet normal 0 -1 0
    outer loop
      vertex -32.55 30 50
      vertex 32.5 30 52.5
      vertex -32.55 30 52.5
    endloop
  endfacet
  facet normal 0 -1 -0
    outer loop
      vertex 32.5 30 52.5
      vertex -32.55 30 50
      vertex 32.5 30 50
    endloop
  endfacet
  facet normal 0 1 -0
    outer loop
      vertex 35 32.45 50
      vertex -32.55 32.45 52.5
      vertex 35 32.45 52.5
    endloop
  endfacet
  facet normal 0 1 0
    outer loop
      vertex -32.55 32.45 52.5
      vertex 35 32.45 50
      vertex -32.55 32.45 50
    endloop
  endfacet
  facet normal -1 0 0
    outer loop
      vertex 32.5 -30.05 50
      vertex 32.5 30 52.5
      vertex 32.5 30 50
    endloop
  endfacet
  facet normal -1 -0 0
    outer loop
      vertex 32.5 30 52.5
      vertex 32.5 -30.05 50
      vertex 32.5 -30.05 52.5
    endloop
  endfacet
endsolid OpenSCAD_Model
