solid OpenSCAD_Model
  facet normal 0.57358 0 0.81915
    outer loop
      vertex -21.1864 20 11.5845
      vertex -21.071 -32.5 11.5038
      vertex -21.071 20 11.5038
    endloop
  endfacet
  facet normal 0.57358 0 0.81915
    outer loop
      vertex -21.071 -32.5 11.5038
      vertex -21.1864 20 11.5845
      vertex -21.1864 -32.5 11.5845
    endloop
  endfacet
  facet normal 0.0871579 0 0.996195
    outer loop
      vertex -20.8073 20 11.4078
      vertex -20.667 -32.5 11.3955
      vertex -20.667 20 11.3955
    endloop
  endfacet
  facet normal 0.0871579 0 0.996195
    outer loop
      vertex -20.667 -32.5 11.3955
      vertex -20.8073 20 11.4078
      vertex -20.8073 -32.5 11.4078
    endloop
  endfacet
  facet normal 0.7071 0 0.707114
    outer loop
      vertex -21.286 20 11.6841
      vertex -21.1864 -32.5 11.5845
      vertex -21.1864 20 11.5845
    endloop
  endfacet
  facet normal 0.7071 0 0.707114
    outer loop
      vertex -21.1864 -32.5 11.5845
      vertex -21.286 20 11.6841
      vertex -21.286 -32.5 11.6841
    endloop
  endfacet
  facet normal -0.941437 0 -0.33719
    outer loop
      vertex 21.4076 -32.5 14.4913
      vertex 19.4345 20 20
      vertex 21.4076 20 14.4913
    endloop
  endfacet
  facet normal -0.941437 -0 -0.33719
    outer loop
      vertex 19.4345 20 20
      vertex 21.4076 -32.5 14.4913
      vertex 19.4345 -32.5 20
    endloop
  endfacet
  facet normal 0.422617 0 0.906309
    outer loop
      vertex -21.071 20 11.5038
      vertex -20.9433 -32.5 11.4442
      vertex -20.9433 20 11.4442
    endloop
  endfacet
  facet normal 0.422617 0 0.906309
    outer loop
      vertex -20.9433 -32.5 11.4442
      vertex -21.071 20 11.5038
      vertex -21.071 -32.5 11.5038
    endloop
  endfacet
  facet normal 1 -0 0
    outer loop
      vertex -21.475 -32.5 14.1754
      vertex -21.475 20 12.2035
      vertex -21.475 20 14.1754
    endloop
  endfacet
  facet normal 1 0 0
    outer loop
      vertex -21.475 20 12.2035
      vertex -21.475 -32.5 14.1754
      vertex -21.475 -32.5 12.2035
    endloop
  endfacet
  facet normal 0.886997 -0 0.461776
    outer loop
      vertex -21.3993 -32.5 11.862
      vertex -21.3667 20 11.7995
      vertex -21.3993 20 11.862
    endloop
  endfacet
  facet normal 0.886997 0 0.461776
    outer loop
      vertex -21.3667 20 11.7995
      vertex -21.3993 -32.5 11.862
      vertex -21.3667 -32.5 11.7995
    endloop
  endfacet
  facet normal 0.923867 -0 0.382713
    outer loop
      vertex -21.4263 -32.5 11.9271
      vertex -21.3993 20 11.862
      vertex -21.4263 20 11.9271
    endloop
  endfacet
  facet normal 0.923867 0 0.382713
    outer loop
      vertex -21.3993 20 11.862
      vertex -21.4263 -32.5 11.9271
      vertex -21.3993 -32.5 11.862
    endloop
  endfacet
  facet normal 0.919278 0 -0.39361
    outer loop
      vertex -21.3583 -32.5 14.6467
      vertex -21.4226 20 14.4966
      vertex -21.3583 20 14.6467
    endloop
  endfacet
  facet normal 0.919278 0 -0.39361
    outer loop
      vertex -21.4226 20 14.4966
      vertex -21.3583 -32.5 14.6467
      vertex -21.4226 -32.5 14.4966
    endloop
  endfacet
  facet normal 0.953709 -0 0.30073
    outer loop
      vertex -21.4475 -32.5 11.9944
      vertex -21.4263 20 11.9271
      vertex -21.4475 20 11.9944
    endloop
  endfacet
  facet normal 0.953709 0 0.30073
    outer loop
      vertex -21.4263 20 11.9271
      vertex -21.4475 -32.5 11.9944
      vertex -21.4263 -32.5 11.9271
    endloop
  endfacet
  facet normal 0.976307 -0 0.216392
    outer loop
      vertex -21.4627 -32.5 12.0632
      vertex -21.4475 20 11.9944
      vertex -21.4627 20 12.0632
    endloop
  endfacet
  facet normal 0.976307 0 0.216392
    outer loop
      vertex -21.4475 20 11.9944
      vertex -21.4627 -32.5 12.0632
      vertex -21.4475 -32.5 11.9944
    endloop
  endfacet
  facet normal 0.258813 0 0.965928
    outer loop
      vertex -20.9433 20 11.4442
      vertex -20.8073 -32.5 11.4078
      vertex -20.8073 20 11.4078
    endloop
  endfacet
  facet normal 0.258813 0 0.965928
    outer loop
      vertex -20.8073 -32.5 11.4078
      vertex -20.9433 20 11.4442
      vertex -20.9433 -32.5 11.4442
    endloop
  endfacet
  facet normal -0 0 1
    outer loop
      vertex -20.667 20 11.3955
      vertex 20.642 -32.5 11.3955
      vertex 20.642 20 11.3955
    endloop
  endfacet
  facet normal 0 0 1
    outer loop
      vertex 20.642 -32.5 11.3955
      vertex -20.667 20 11.3955
      vertex -20.667 -32.5 11.3955
    endloop
  endfacet
  facet normal -0.976296 0 -0.216439
    outer loop
      vertex 21.4393 -32.5 14.348
      vertex 21.4076 20 14.4913
      vertex 21.4393 20 14.348
    endloop
  endfacet
  facet normal -0.976296 -0 -0.216439
    outer loop
      vertex 21.4076 20 14.4913
      vertex 21.4393 -32.5 14.348
      vertex 21.4076 -32.5 14.4913
    endloop
  endfacet
  facet normal 0.79337 -0 0.60874
    outer loop
      vertex -21.3289 -32.5 11.74
      vertex -21.286 20 11.6841
      vertex -21.3289 20 11.74
    endloop
  endfacet
  facet normal 0.79337 0 0.60874
    outer loop
      vertex -21.286 20 11.6841
      vertex -21.3289 -32.5 11.74
      vertex -21.286 -32.5 11.6841
    endloop
  endfacet
  facet normal 0.896462 0 -0.44312
    outer loop
      vertex -18.7122 -32.5 20
      vertex -21.3583 20 14.6467
      vertex -18.7122 20 20
    endloop
  endfacet
  facet normal 0.896462 0 -0.44312
    outer loop
      vertex -21.3583 20 14.6467
      vertex -18.7122 -32.5 20
      vertex -21.3583 -32.5 14.6467
    endloop
  endfacet
  facet normal 0.999048 -0 0.0436186
    outer loop
      vertex -21.475 -32.5 12.2035
      vertex -21.4719 20 12.1331
      vertex -21.475 20 12.2035
    endloop
  endfacet
  facet normal 0.999048 0 0.0436186
    outer loop
      vertex -21.4719 20 12.1331
      vertex -21.475 -32.5 12.2035
      vertex -21.4719 -32.5 12.1331
    endloop
  endfacet
  facet normal 0.996729 0 -0.0808225
    outer loop
      vertex -21.4618 -32.5 14.3381
      vertex -21.475 20 14.1754
      vertex -21.4618 20 14.3381
    endloop
  endfacet
  facet normal 0.996729 0 -0.0808225
    outer loop
      vertex -21.475 20 14.1754
      vertex -21.4618 -32.5 14.3381
      vertex -21.475 -32.5 14.1754
    endloop
  endfacet
  facet normal 0.991448 -0 0.130505
    outer loop
      vertex -21.4719 -32.5 12.1331
      vertex -21.4627 20 12.0632
      vertex -21.4719 20 12.1331
    endloop
  endfacet
  facet normal 0.991448 0 0.130505
    outer loop
      vertex -21.4627 20 12.0632
      vertex -21.4719 -32.5 12.1331
      vertex -21.4627 -32.5 12.0632
    endloop
  endfacet
  facet normal -0.0871579 0 0.996195
    outer loop
      vertex 20.642 20 11.3955
      vertex 20.7823 -32.5 11.4078
      vertex 20.7823 20 11.4078
    endloop
  endfacet
  facet normal -0.0871579 0 0.996195
    outer loop
      vertex 20.7823 -32.5 11.4078
      vertex 20.642 20 11.3955
      vertex 20.642 -32.5 11.3955
    endloop
  endfacet
  facet normal -0.422617 0 0.906309
    outer loop
      vertex 20.9184 20 11.4442
      vertex 21.046 -32.5 11.5038
      vertex 21.046 20 11.5038
    endloop
  endfacet
  facet normal -0.422617 0 0.906309
    outer loop
      vertex 21.046 -32.5 11.5038
      vertex 20.9184 20 11.4442
      vertex 20.9184 -32.5 11.4442
    endloop
  endfacet
  facet normal 0.970688 0 -0.240343
    outer loop
      vertex -21.4226 -32.5 14.4966
      vertex -21.4618 20 14.3381
      vertex -21.4226 20 14.4966
    endloop
  endfacet
  facet normal 0.970688 0 -0.240343
    outer loop
      vertex -21.4618 20 14.3381
      vertex -21.4226 -32.5 14.4966
      vertex -21.4618 -32.5 14.3381
    endloop
  endfacet
  facet normal 0.843398 -0 0.53729
    outer loop
      vertex -21.3667 -32.5 11.7995
      vertex -21.3289 20 11.74
      vertex -21.3667 20 11.7995
    endloop
  endfacet
  facet normal 0.843398 0 0.53729
    outer loop
      vertex -21.3289 20 11.74
      vertex -21.3667 -32.5 11.7995
      vertex -21.3289 -32.5 11.74
    endloop
  endfacet
  facet normal -0.90631 0 0.422614
    outer loop
      vertex 21.3417 -32.5 11.7995
      vertex 21.4013 20 11.9271
      vertex 21.3417 20 11.7995
    endloop
  endfacet
  facet normal -0.90631 0 0.422614
    outer loop
      vertex 21.4013 20 11.9271
      vertex 21.3417 -32.5 11.7995
      vertex 21.4013 -32.5 11.9271
    endloop
  endfacet
  facet normal -0.57358 0 0.81915
    outer loop
      vertex 21.046 20 11.5038
      vertex 21.1614 -32.5 11.5845
      vertex 21.1614 20 11.5845
    endloop
  endfacet
  facet normal -0.57358 0 0.81915
    outer loop
      vertex 21.1614 -32.5 11.5845
      vertex 21.046 20 11.5038
      vertex 21.046 -32.5 11.5038
    endloop
  endfacet
  facet normal -1 0 0
    outer loop
      vertex 21.45 -32.5 12.2035
      vertex 21.45 20 14.2016
      vertex 21.45 20 12.2035
    endloop
  endfacet
  facet normal -1 -0 0
    outer loop
      vertex 21.45 20 14.2016
      vertex 21.45 -32.5 12.2035
      vertex 21.45 -32.5 14.2016
    endloop
  endfacet
  facet normal -0.258813 0 0.965928
    outer loop
      vertex 20.7823 20 11.4078
      vertex 20.9184 -32.5 11.4442
      vertex 20.9184 20 11.4442
    endloop
  endfacet
  facet normal -0.258813 0 0.965928
    outer loop
      vertex 20.9184 -32.5 11.4442
      vertex 20.7823 20 11.4078
      vertex 20.7823 -32.5 11.4078
    endloop
  endfacet
  facet normal -0.997357 0 -0.0726586
    outer loop
      vertex 21.45 -32.5 14.2016
      vertex 21.4393 20 14.348
      vertex 21.45 20 14.2016
    endloop
  endfacet
  facet normal -0.997357 -0 -0.0726586
    outer loop
      vertex 21.4393 20 14.348
      vertex 21.45 -32.5 14.2016
      vertex 21.4393 -32.5 14.348
    endloop
  endfacet
  facet normal -0.707114 0 0.7071
    outer loop
      vertex 21.1614 -32.5 11.5845
      vertex 21.261 20 11.6841
      vertex 21.1614 20 11.5845
    endloop
  endfacet
  facet normal -0.707114 0 0.7071
    outer loop
      vertex 21.261 20 11.6841
      vertex 21.1614 -32.5 11.5845
      vertex 21.261 -32.5 11.6841
    endloop
  endfacet
  facet normal -0.819144 0 0.573587
    outer loop
      vertex 21.261 -32.5 11.6841
      vertex 21.3417 20 11.7995
      vertex 21.261 20 11.6841
    endloop
  endfacet
  facet normal -0.819144 0 0.573587
    outer loop
      vertex 21.3417 20 11.7995
      vertex 21.261 -32.5 11.6841
      vertex 21.3417 -32.5 11.7995
    endloop
  endfacet
  facet normal -0.965925 0 0.258821
    outer loop
      vertex 21.4013 -32.5 11.9271
      vertex 21.4377 20 12.0632
      vertex 21.4013 20 11.9271
    endloop
  endfacet
  facet normal -0.965925 0 0.258821
    outer loop
      vertex 21.4377 20 12.0632
      vertex 21.4013 -32.5 11.9271
      vertex 21.4377 -32.5 12.0632
    endloop
  endfacet
  facet normal -0.996195 0 0.0871579
    outer loop
      vertex 21.4377 -32.5 12.0632
      vertex 21.45 20 12.2035
      vertex 21.4377 20 12.0632
    endloop
  endfacet
  facet normal -0.996195 0 0.0871579
    outer loop
      vertex 21.45 20 12.2035
      vertex 21.4377 -32.5 12.0632
      vertex 21.45 -32.5 12.2035
    endloop
  endfacet
  facet normal 0 -1 0
    outer loop
      vertex -20.667 20 11.3955
      vertex -18.7122 20 20
      vertex -21.3583 20 14.6467
    endloop
  endfacet
  facet normal 0 -1 0
    outer loop
      vertex -21.475 20 14.1754
      vertex -21.3583 20 14.6467
      vertex -21.4226 20 14.4966
    endloop
  endfacet
  facet normal 0 -1 0
    outer loop
      vertex 20.642 20 11.3955
      vertex -18.7122 20 20
      vertex -20.667 20 11.3955
    endloop
  endfacet
  facet normal 0 -1 0
    outer loop
      vertex 19.4345 20 20
      vertex 20.642 20 11.3955
      vertex 21.4076 20 14.4913
    endloop
  endfacet
  facet normal 0 -1 0
    outer loop
      vertex -21.475 20 14.1754
      vertex -21.4226 20 14.4966
      vertex -21.4618 20 14.3381
    endloop
  endfacet
  facet normal -0 -1 0
    outer loop
      vertex 21.45 20 14.2016
      vertex 21.4076 20 14.4913
      vertex 20.642 20 11.3955
    endloop
  endfacet
  facet normal 0 -1 -0
    outer loop
      vertex -21.3583 20 14.6467
      vertex -21.475 20 14.1754
      vertex -20.667 20 11.3955
    endloop
  endfacet
  facet normal 0 -1 0
    outer loop
      vertex -20.667 20 11.3955
      vertex -21.475 20 14.1754
      vertex -21.475 20 12.2035
    endloop
  endfacet
  facet normal 0 -1 0
    outer loop
      vertex -18.7122 20 20
      vertex 20.642 20 11.3955
      vertex 19.4345 20 20
    endloop
  endfacet
  facet normal 0 -1 0
    outer loop
      vertex -20.667 20 11.3955
      vertex -21.475 20 12.2035
      vertex -21.4719 20 12.1331
    endloop
  endfacet
  facet normal 0 -1 0
    outer loop
      vertex -20.667 20 11.3955
      vertex -21.4719 20 12.1331
      vertex -21.4627 20 12.0632
    endloop
  endfacet
  facet normal 0 -1 0
    outer loop
      vertex 21.4076 20 14.4913
      vertex 21.45 20 14.2016
      vertex 21.4393 20 14.348
    endloop
  endfacet
  facet normal 0 -1 0
    outer loop
      vertex -20.667 20 11.3955
      vertex -21.4627 20 12.0632
      vertex -21.4475 20 11.9944
    endloop
  endfacet
  facet normal 0 -1 0
    outer loop
      vertex -20.667 20 11.3955
      vertex -21.4475 20 11.9944
      vertex -21.4263 20 11.9271
    endloop
  endfacet
  facet normal 0 -1 -0
    outer loop
      vertex 21.45 20 14.2016
      vertex 20.642 20 11.3955
      vertex 21.45 20 12.2035
    endloop
  endfacet
  facet normal 0 -1 0
    outer loop
      vertex -20.667 20 11.3955
      vertex -21.4263 20 11.9271
      vertex -21.3993 20 11.862
    endloop
  endfacet
  facet normal 0 -1 0
    outer loop
      vertex -20.667 20 11.3955
      vertex -21.3993 20 11.862
      vertex -21.3667 20 11.7995
    endloop
  endfacet
  facet normal 0 -1 0
    outer loop
      vertex 21.45 20 12.2035
      vertex 20.642 20 11.3955
      vertex 21.4377 20 12.0632
    endloop
  endfacet
  facet normal 0 -1 0
    outer loop
      vertex -20.667 20 11.3955
      vertex -21.3667 20 11.7995
      vertex -21.3289 20 11.74
    endloop
  endfacet
  facet normal 0 -1 0
    outer loop
      vertex -20.667 20 11.3955
      vertex -21.3289 20 11.74
      vertex -21.286 20 11.6841
    endloop
  endfacet
  facet normal 0 -1 0
    outer loop
      vertex 21.4377 20 12.0632
      vertex 20.642 20 11.3955
      vertex 21.4013 20 11.9271
    endloop
  endfacet
  facet normal 0 -1 0
    outer loop
      vertex -20.667 20 11.3955
      vertex -21.286 20 11.6841
      vertex -21.1864 20 11.5845
    endloop
  endfacet
  facet normal 0 -1 0
    outer loop
      vertex 21.4013 20 11.9271
      vertex 20.642 20 11.3955
      vertex 21.3417 20 11.7995
    endloop
  endfacet
  facet normal 0 -1 0
    outer loop
      vertex -20.667 20 11.3955
      vertex -21.1864 20 11.5845
      vertex -21.071 20 11.5038
    endloop
  endfacet
  facet normal 0 -1 0
    outer loop
      vertex 21.3417 20 11.7995
      vertex 20.642 20 11.3955
      vertex 21.261 20 11.6841
    endloop
  endfacet
  facet normal 0 -1 0
    outer loop
      vertex -20.667 20 11.3955
      vertex -21.071 20 11.5038
      vertex -20.9433 20 11.4442
    endloop
  endfacet
  facet normal 0 -1 0
    outer loop
      vertex 21.261 20 11.6841
      vertex 20.642 20 11.3955
      vertex 21.1614 20 11.5845
    endloop
  endfacet
  facet normal 0 -1 0
    outer loop
      vertex -20.667 20 11.3955
      vertex -20.9433 20 11.4442
      vertex -20.8073 20 11.4078
    endloop
  endfacet
  facet normal 0 -1 0
    outer loop
      vertex 21.1614 20 11.5845
      vertex 20.642 20 11.3955
      vertex 21.046 20 11.5038
    endloop
  endfacet
  facet normal 0 -1 0
    outer loop
      vertex 21.046 20 11.5038
      vertex 20.642 20 11.3955
      vertex 20.9184 20 11.4442
    endloop
  endfacet
  facet normal 0 -1 0
    outer loop
      vertex 20.9184 20 11.4442
      vertex 20.642 20 11.3955
      vertex 20.7823 20 11.4078
    endloop
  endfacet
  facet normal -1 0 0
    outer loop
      vertex -35 -32.5 0
      vertex -35 32.5 20
      vertex -35 32.5 0
    endloop
  endfacet
  facet normal -1 -0 0
    outer loop
      vertex -35 32.5 20
      vertex -35 -32.5 0
      vertex -35 -32.5 20
    endloop
  endfacet
  facet normal 0 0 1
    outer loop
      vertex 35 32.5 20
      vertex 19.4345 20 20
      vertex 35 -32.5 20
    endloop
  endfacet
  facet normal 0 0 1
    outer loop
      vertex 35 32.5 20
      vertex -18.7122 20 20
      vertex 19.4345 20 20
    endloop
  endfacet
  facet normal -0 0 1
    outer loop
      vertex -35 32.5 20
      vertex -18.7122 20 20
      vertex 35 32.5 20
    endloop
  endfacet
  facet normal 0 0 1
    outer loop
      vertex -35 -32.5 20
      vertex -18.7122 20 20
      vertex -35 32.5 20
    endloop
  endfacet
  facet normal 0 0 1
    outer loop
      vertex -18.7122 20 20
      vertex -35 -32.5 20
      vertex -18.7122 -32.5 20
    endloop
  endfacet
  facet normal 0 0 1
    outer loop
      vertex 35 -32.5 20
      vertex 19.4345 20 20
      vertex 19.4345 -32.5 20
    endloop
  endfacet
  facet normal 1 -0 0
    outer loop
      vertex 35 -32.5 20
      vertex 35 32.5 0
      vertex 35 32.5 20
    endloop
  endfacet
  facet normal 1 0 0
    outer loop
      vertex 35 32.5 0
      vertex 35 -32.5 20
      vertex 35 -32.5 0
    endloop
  endfacet
  facet normal 0 -1 0
    outer loop
      vertex -35 -32.5 20
      vertex -21.3583 -32.5 14.6467
      vertex -18.7122 -32.5 20
    endloop
  endfacet
  facet normal 0 -1 0
    outer loop
      vertex -35 -32.5 20
      vertex -21.4226 -32.5 14.4966
      vertex -21.3583 -32.5 14.6467
    endloop
  endfacet
  facet normal 0 -1 0
    outer loop
      vertex -35 -32.5 20
      vertex -21.4618 -32.5 14.3381
      vertex -21.4226 -32.5 14.4966
    endloop
  endfacet
  facet normal 0 -1 0
    outer loop
      vertex -35 -32.5 20
      vertex -21.475 -32.5 14.1754
      vertex -21.4618 -32.5 14.3381
    endloop
  endfacet
  facet normal 0 -1 0
    outer loop
      vertex -35 -32.5 20
      vertex -21.475 -32.5 12.2035
      vertex -21.475 -32.5 14.1754
    endloop
  endfacet
  facet normal 0 -1 0
    outer loop
      vertex -35 -32.5 20
      vertex -21.4719 -32.5 12.1331
      vertex -21.475 -32.5 12.2035
    endloop
  endfacet
  facet normal 0 -1 0
    outer loop
      vertex -35 -32.5 20
      vertex -21.4627 -32.5 12.0632
      vertex -21.4719 -32.5 12.1331
    endloop
  endfacet
  facet normal 0 -1 0
    outer loop
      vertex -35 -32.5 0
      vertex -21.4627 -32.5 12.0632
      vertex -35 -32.5 20
    endloop
  endfacet
  facet normal 0 -1 -0
    outer loop
      vertex -21.4627 -32.5 12.0632
      vertex -35 -32.5 0
      vertex -21.4475 -32.5 11.9944
    endloop
  endfacet
  facet normal 0 -1 -0
    outer loop
      vertex -21.4475 -32.5 11.9944
      vertex -35 -32.5 0
      vertex -21.4263 -32.5 11.9271
    endloop
  endfacet
  facet normal 0 -1 -0
    outer loop
      vertex -21.4263 -32.5 11.9271
      vertex -35 -32.5 0
      vertex -21.3993 -32.5 11.862
    endloop
  endfacet
  facet normal 0 -1 -0
    outer loop
      vertex -21.3993 -32.5 11.862
      vertex -35 -32.5 0
      vertex -21.3667 -32.5 11.7995
    endloop
  endfacet
  facet normal 0 -1 -0
    outer loop
      vertex -21.3667 -32.5 11.7995
      vertex -35 -32.5 0
      vertex -21.3289 -32.5 11.74
    endloop
  endfacet
  facet normal 0 -1 -0
    outer loop
      vertex -21.3289 -32.5 11.74
      vertex -35 -32.5 0
      vertex -21.286 -32.5 11.6841
    endloop
  endfacet
  facet normal 0 -1 -0
    outer loop
      vertex -21.286 -32.5 11.6841
      vertex -35 -32.5 0
      vertex -21.1864 -32.5 11.5845
    endloop
  endfacet
  facet normal 0 -1 -0
    outer loop
      vertex -20.667 -32.5 11.3955
      vertex -35 -32.5 0
      vertex 20.642 -32.5 11.3955
    endloop
  endfacet
  facet normal 0 -1 -0
    outer loop
      vertex -20.8073 -32.5 11.4078
      vertex -35 -32.5 0
      vertex -20.667 -32.5 11.3955
    endloop
  endfacet
  facet normal 0 -1 -0
    outer loop
      vertex -20.9433 -32.5 11.4442
      vertex -35 -32.5 0
      vertex -20.8073 -32.5 11.4078
    endloop
  endfacet
  facet normal 0 -1 -0
    outer loop
      vertex -21.071 -32.5 11.5038
      vertex -35 -32.5 0
      vertex -20.9433 -32.5 11.4442
    endloop
  endfacet
  facet normal 0 -1 -0
    outer loop
      vertex -21.1864 -32.5 11.5845
      vertex -35 -32.5 0
      vertex -21.071 -32.5 11.5038
    endloop
  endfacet
  facet normal 0 -1 0
    outer loop
      vertex 21.4076 -32.5 14.4913
      vertex 35 -32.5 20
      vertex 19.4345 -32.5 20
    endloop
  endfacet
  facet normal 0 -1 0
    outer loop
      vertex 21.4393 -32.5 14.348
      vertex 35 -32.5 20
      vertex 21.4076 -32.5 14.4913
    endloop
  endfacet
  facet normal 0 -1 0
    outer loop
      vertex 21.45 -32.5 14.2016
      vertex 35 -32.5 20
      vertex 21.4393 -32.5 14.348
    endloop
  endfacet
  facet normal 0 -1 0
    outer loop
      vertex 21.45 -32.5 12.2035
      vertex 35 -32.5 20
      vertex 21.45 -32.5 14.2016
    endloop
  endfacet
  facet normal 0 -1 0
    outer loop
      vertex 21.4377 -32.5 12.0632
      vertex 35 -32.5 20
      vertex 21.45 -32.5 12.2035
    endloop
  endfacet
  facet normal 0 -1 0
    outer loop
      vertex 35 -32.5 0
      vertex 21.4377 -32.5 12.0632
      vertex 21.4013 -32.5 11.9271
    endloop
  endfacet
  facet normal 0 -1 0
    outer loop
      vertex 35 -32.5 0
      vertex 21.4013 -32.5 11.9271
      vertex 21.3417 -32.5 11.7995
    endloop
  endfacet
  facet normal 0 -1 0
    outer loop
      vertex 35 -32.5 0
      vertex 21.3417 -32.5 11.7995
      vertex 21.261 -32.5 11.6841
    endloop
  endfacet
  facet normal 0 -1 0
    outer loop
      vertex 35 -32.5 0
      vertex 21.261 -32.5 11.6841
      vertex 21.1614 -32.5 11.5845
    endloop
  endfacet
  facet normal 0 -1 0
    outer loop
      vertex 35 -32.5 0
      vertex 21.1614 -32.5 11.5845
      vertex 21.046 -32.5 11.5038
    endloop
  endfacet
  facet normal 0 -1 0
    outer loop
      vertex 35 -32.5 0
      vertex 20.642 -32.5 11.3955
      vertex -35 -32.5 0
    endloop
  endfacet
  facet normal 0 -1 0
    outer loop
      vertex 21.4377 -32.5 12.0632
      vertex 35 -32.5 0
      vertex 35 -32.5 20
    endloop
  endfacet
  facet normal 0 -1 0
    outer loop
      vertex 20.9184 -32.5 11.4442
      vertex 35 -32.5 0
      vertex 21.046 -32.5 11.5038
    endloop
  endfacet
  facet normal 0 -1 0
    outer loop
      vertex 20.7823 -32.5 11.4078
      vertex 35 -32.5 0
      vertex 20.9184 -32.5 11.4442
    endloop
  endfacet
  facet normal 0 -1 0
    outer loop
      vertex 20.642 -32.5 11.3955
      vertex 35 -32.5 0
      vertex 20.7823 -32.5 11.4078
    endloop
  endfacet
  facet normal 0 1 -0
    outer loop
      vertex 35 32.5 0
      vertex -35 32.5 20
      vertex 35 32.5 20
    endloop
  endfacet
  facet normal 0 1 0
    outer loop
      vertex -35 32.5 20
      vertex 35 32.5 0
      vertex -35 32.5 0
    endloop
  endfacet
  facet normal 0 0 -1
    outer loop
      vertex -35 -32.5 0
      vertex 35 32.5 0
      vertex 35 -32.5 0
    endloop
  endfacet
  facet normal -0 0 -1
    outer loop
      vertex 35 32.5 0
      vertex -35 -32.5 0
      vertex -35 32.5 0
    endloop
  endfacet
endsolid OpenSCAD_Model
