solid OpenSCAD_Model
  facet normal -0 0 1
    outer loop
      vertex -20 17.5 22.5
      vertex 20 2.5 22.5
      vertex 20 17.5 22.5
    endloop
  endfacet
  facet normal 0 0 1
    outer loop
      vertex -20 2.5 22.5
      vertex 20 2.5 22.5
      vertex -20 17.5 22.5
    endloop
  endfacet
  facet normal 0 1 0
    outer loop
      vertex -15.1 17.5 9.92794
      vertex -15.1 17.5 7.5
      vertex -15.6331 17.5 9.92794
    endloop
  endfacet
  facet normal 0 1 0
    outer loop
      vertex -19.7591 17.5 12.9256
      vertex -20 17.5 13.0589
      vertex -20.0886 17.5 13.9396
    endloop
  endfacet
  facet normal 0 1 0
    outer loop
      vertex -19.226 17.5 12.0023
      vertex -20 17.5 13.0589
      vertex -19.7591 17.5 12.9256
    endloop
  endfacet
  facet normal 0 1 0
    outer loop
      vertex -15.1 17.5 7.5
      vertex -16.676 17.5 10.1496
      vertex -15.6331 17.5 9.92794
    endloop
  endfacet
  facet normal 0 1 0
    outer loop
      vertex -20 17.5 7.5
      vertex -16.676 17.5 10.1496
      vertex -15.1 17.5 7.5
    endloop
  endfacet
  facet normal 0 1 0
    outer loop
      vertex -16.676 17.5 10.1496
      vertex -20 17.5 7.5
      vertex -17.65 17.5 10.5833
    endloop
  endfacet
  facet normal 0 1 0
    outer loop
      vertex -19.226 17.5 12.0023
      vertex -20 17.5 7.5
      vertex -20 17.5 13.0589
    endloop
  endfacet
  facet normal 0 1 0
    outer loop
      vertex -18.5126 17.5 11.21
      vertex -20 17.5 7.5
      vertex -19.226 17.5 12.0023
    endloop
  endfacet
  facet normal 0 1 0
    outer loop
      vertex -17.65 17.5 10.5833
      vertex -20 17.5 7.5
      vertex -18.5126 17.5 11.21
    endloop
  endfacet
  facet normal 0 1 -0
    outer loop
      vertex -13.524 17.5 19.8504
      vertex -20 17.5 22.5
      vertex 13.524 17.5 19.8504
    endloop
  endfacet
  facet normal 0 1 0
    outer loop
      vertex -20 17.5 22.5
      vertex -13.524 17.5 19.8504
      vertex -14.5669 17.5 20.0721
    endloop
  endfacet
  facet normal 0 1 -0
    outer loop
      vertex 12.55 17.5 19.4167
      vertex -13.524 17.5 19.8504
      vertex 13.524 17.5 19.8504
    endloop
  endfacet
  facet normal 0 1 0
    outer loop
      vertex 12.55 17.5 19.4167
      vertex -12.55 17.5 19.4167
      vertex -13.524 17.5 19.8504
    endloop
  endfacet
  facet normal 0 1 -0
    outer loop
      vertex 11.6874 17.5 18.79
      vertex -12.55 17.5 19.4167
      vertex 12.55 17.5 19.4167
    endloop
  endfacet
  facet normal 0 1 0
    outer loop
      vertex 11.6874 17.5 18.79
      vertex -11.6874 17.5 18.79
      vertex -12.55 17.5 19.4167
    endloop
  endfacet
  facet normal 0 1 -0
    outer loop
      vertex 10.974 17.5 17.9977
      vertex -11.6874 17.5 18.79
      vertex 11.6874 17.5 18.79
    endloop
  endfacet
  facet normal 0 1 0
    outer loop
      vertex 10.974 17.5 17.9977
      vertex -10.974 17.5 17.9977
      vertex -11.6874 17.5 18.79
    endloop
  endfacet
  facet normal 0 1 -0
    outer loop
      vertex 10.4409 17.5 17.0744
      vertex -10.974 17.5 17.9977
      vertex 10.974 17.5 17.9977
    endloop
  endfacet
  facet normal 0 1 0
    outer loop
      vertex 10.4409 17.5 17.0744
      vertex -10.4409 17.5 17.0744
      vertex -10.974 17.5 17.9977
    endloop
  endfacet
  facet normal 0 1 -0
    outer loop
      vertex 10.1114 17.5 16.0603
      vertex -10.4409 17.5 17.0744
      vertex 10.4409 17.5 17.0744
    endloop
  endfacet
  facet normal 0 1 0
    outer loop
      vertex 10.1114 17.5 16.0603
      vertex -10.1114 17.5 16.0603
      vertex -10.4409 17.5 17.0744
    endloop
  endfacet
  facet normal 0 1 -0
    outer loop
      vertex 10 17.5 15
      vertex -10.1114 17.5 16.0603
      vertex 10.1114 17.5 16.0603
    endloop
  endfacet
  facet normal 0 1 0
    outer loop
      vertex 10 17.5 15
      vertex -10 17.5 15
      vertex -10.1114 17.5 16.0603
    endloop
  endfacet
  facet normal 0 1 -0
    outer loop
      vertex 10 17.5 7.5
      vertex -10 17.5 15
      vertex 10 17.5 15
    endloop
  endfacet
  facet normal 0 1 0
    outer loop
      vertex -10 17.5 15
      vertex 10 17.5 7.5
      vertex -10 17.5 7.5
    endloop
  endfacet
  facet normal 0 1 0
    outer loop
      vertex 18.5126 17.5 18.79
      vertex 20 17.5 22.5
      vertex 21.9411 17.5 22.2444
    endloop
  endfacet
  facet normal 0 1 0
    outer loop
      vertex 13.524 17.5 19.8504
      vertex 20 17.5 22.5
      vertex 14.5669 17.5 20.0721
    endloop
  endfacet
  facet normal 0 1 0
    outer loop
      vertex 19.226 17.5 17.9977
      vertex 21.9411 17.5 22.2444
      vertex 23.75 17.5 21.4952
    endloop
  endfacet
  facet normal 0 1 0
    outer loop
      vertex 20 17.5 22.5
      vertex 13.524 17.5 19.8504
      vertex -20 17.5 22.5
    endloop
  endfacet
  facet normal 0 1 0
    outer loop
      vertex 19.7591 17.5 17.0744
      vertex 23.75 17.5 21.4952
      vertex 25.3033 17.5 20.3033
    endloop
  endfacet
  facet normal 0 1 -0
    outer loop
      vertex -15.6331 17.5 20.0721
      vertex -20 17.5 22.5
      vertex -14.5669 17.5 20.0721
    endloop
  endfacet
  facet normal 0 1 0
    outer loop
      vertex 20 17.5 22.5
      vertex 15.6331 17.5 20.0721
      vertex 14.5669 17.5 20.0721
    endloop
  endfacet
  facet normal 0 1 0
    outer loop
      vertex 20 17.5 22.5
      vertex 16.676 17.5 19.8504
      vertex 15.6331 17.5 20.0721
    endloop
  endfacet
  facet normal 0 1 0
    outer loop
      vertex 20 17.5 22.5
      vertex 17.65 17.5 19.4167
      vertex 16.676 17.5 19.8504
    endloop
  endfacet
  facet normal 0 1 0
    outer loop
      vertex 20 17.5 22.5
      vertex 18.5126 17.5 18.79
      vertex 17.65 17.5 19.4167
    endloop
  endfacet
  facet normal 0 1 0
    outer loop
      vertex 20.0886 17.5 16.0603
      vertex 25.3033 17.5 20.3033
      vertex 26.4952 17.5 18.75
    endloop
  endfacet
  facet normal 0 1 0
    outer loop
      vertex 21.9411 17.5 22.2444
      vertex 19.226 17.5 17.9977
      vertex 18.5126 17.5 18.79
    endloop
  endfacet
  facet normal 0 1 0
    outer loop
      vertex 23.75 17.5 21.4952
      vertex 19.7591 17.5 17.0744
      vertex 19.226 17.5 17.9977
    endloop
  endfacet
  facet normal 0 1 0
    outer loop
      vertex 20.0886 17.5 16.0603
      vertex 26.4952 17.5 18.75
      vertex 27.2444 17.5 16.9411
    endloop
  endfacet
  facet normal 0 1 0
    outer loop
      vertex 25.3033 17.5 20.3033
      vertex 20.0886 17.5 16.0603
      vertex 19.7591 17.5 17.0744
    endloop
  endfacet
  facet normal 0 1 0
    outer loop
      vertex 20.2 17.5 15
      vertex 27.2444 17.5 16.9411
      vertex 27.5 17.5 15
    endloop
  endfacet
  facet normal 0 1 0
    outer loop
      vertex 27.2444 17.5 16.9411
      vertex 20.2 17.5 15
      vertex 20.0886 17.5 16.0603
    endloop
  endfacet
  facet normal 0 1 -0
    outer loop
      vertex 27.2444 17.5 13.0589
      vertex 20.2 17.5 15
      vertex 27.5 17.5 15
    endloop
  endfacet
  facet normal 0 1 0
    outer loop
      vertex 20.2 17.5 15
      vertex 27.2444 17.5 13.0589
      vertex 20.0886 17.5 13.9396
    endloop
  endfacet
  facet normal 0 1 0
    outer loop
      vertex 20 17.5 13.0589
      vertex 20.0886 17.5 13.9396
      vertex 27.2444 17.5 13.0589
    endloop
  endfacet
  facet normal 0 1 -0
    outer loop
      vertex 20 17.5 13.0589
      vertex 19.7591 17.5 12.9256
      vertex 20.0886 17.5 13.9396
    endloop
  endfacet
  facet normal 0 1 0
    outer loop
      vertex 20 17.5 13.0589
      vertex 19.226 17.5 12.0023
      vertex 19.7591 17.5 12.9256
    endloop
  endfacet
  facet normal 0 1 -0
    outer loop
      vertex 20 17.5 7.5
      vertex 19.226 17.5 12.0023
      vertex 20 17.5 13.0589
    endloop
  endfacet
  facet normal 0 1 0
    outer loop
      vertex 20 17.5 7.5
      vertex 18.5126 17.5 11.21
      vertex 19.226 17.5 12.0023
    endloop
  endfacet
  facet normal 0 1 0
    outer loop
      vertex 20 17.5 7.5
      vertex 17.65 17.5 10.5833
      vertex 18.5126 17.5 11.21
    endloop
  endfacet
  facet normal 0 1 0
    outer loop
      vertex 20 17.5 7.5
      vertex 16.676 17.5 10.1496
      vertex 17.65 17.5 10.5833
    endloop
  endfacet
  facet normal 0 1 0
    outer loop
      vertex 15.1 17.5 7.5
      vertex 16.676 17.5 10.1496
      vertex 20 17.5 7.5
    endloop
  endfacet
  facet normal 0 1 0
    outer loop
      vertex 16.676 17.5 10.1496
      vertex 15.1 17.5 7.5
      vertex 15.6331 17.5 9.92794
    endloop
  endfacet
  facet normal 0 1 0
    outer loop
      vertex 15.6331 17.5 9.92794
      vertex 15.1 17.5 7.5
      vertex 15.1 17.5 9.92794
    endloop
  endfacet
  facet normal 0 1 -0
    outer loop
      vertex -16.676 17.5 19.8504
      vertex -20 17.5 22.5
      vertex -15.6331 17.5 20.0721
    endloop
  endfacet
  facet normal 0 1 -0
    outer loop
      vertex -17.65 17.5 19.4167
      vertex -20 17.5 22.5
      vertex -16.676 17.5 19.8504
    endloop
  endfacet
  facet normal 0 1 -0
    outer loop
      vertex -18.5126 17.5 18.79
      vertex -20 17.5 22.5
      vertex -17.65 17.5 19.4167
    endloop
  endfacet
  facet normal 0 1 0
    outer loop
      vertex -20 17.5 22.5
      vertex -18.5126 17.5 18.79
      vertex -21.9411 17.5 22.2444
    endloop
  endfacet
  facet normal 0 1 -0
    outer loop
      vertex -19.226 17.5 17.9977
      vertex -21.9411 17.5 22.2444
      vertex -18.5126 17.5 18.79
    endloop
  endfacet
  facet normal 0 1 0
    outer loop
      vertex -21.9411 17.5 22.2444
      vertex -19.226 17.5 17.9977
      vertex -23.75 17.5 21.4952
    endloop
  endfacet
  facet normal 0 1 -0
    outer loop
      vertex -19.7591 17.5 17.0744
      vertex -23.75 17.5 21.4952
      vertex -19.226 17.5 17.9977
    endloop
  endfacet
  facet normal 0 1 0
    outer loop
      vertex -23.75 17.5 21.4952
      vertex -19.7591 17.5 17.0744
      vertex -25.3033 17.5 20.3033
    endloop
  endfacet
  facet normal 0 1 -0
    outer loop
      vertex -20.0886 17.5 16.0603
      vertex -25.3033 17.5 20.3033
      vertex -19.7591 17.5 17.0744
    endloop
  endfacet
  facet normal 0 1 0
    outer loop
      vertex -25.3033 17.5 20.3033
      vertex -20.0886 17.5 16.0603
      vertex -26.4952 17.5 18.75
    endloop
  endfacet
  facet normal 0 1 0
    outer loop
      vertex -26.4952 17.5 18.75
      vertex -20.0886 17.5 16.0603
      vertex -27.2444 17.5 16.9411
    endloop
  endfacet
  facet normal 0 1 -0
    outer loop
      vertex -20.2 17.5 15
      vertex -27.2444 17.5 16.9411
      vertex -20.0886 17.5 16.0603
    endloop
  endfacet
  facet normal 0 1 0
    outer loop
      vertex -20.2 17.5 15
      vertex -27.5 17.5 15
      vertex -27.2444 17.5 16.9411
    endloop
  endfacet
  facet normal 0 1 0
    outer loop
      vertex -27.2444 17.5 13.0589
      vertex -20.2 17.5 15
      vertex -20.0886 17.5 13.9396
    endloop
  endfacet
  facet normal 0 1 0
    outer loop
      vertex -27.2444 17.5 13.0589
      vertex -20.0886 17.5 13.9396
      vertex -20 17.5 13.0589
    endloop
  endfacet
  facet normal 0 1 0
    outer loop
      vertex -20.2 17.5 15
      vertex -27.2444 17.5 13.0589
      vertex -27.5 17.5 15
    endloop
  endfacet
  facet normal 0 0 -1
    outer loop
      vertex 15.1 2.5 7.5
      vertex 20 17.5 7.5
      vertex 20 2.5 7.5
    endloop
  endfacet
  facet normal -0 0 -1
    outer loop
      vertex 20 17.5 7.5
      vertex 15.1 2.5 7.5
      vertex 15.1 17.5 7.5
    endloop
  endfacet
  facet normal 0 0 -1
    outer loop
      vertex -20 2.5 7.5
      vertex -15.1 17.5 7.5
      vertex -15.1 2.5 7.5
    endloop
  endfacet
  facet normal -0 0 -1
    outer loop
      vertex -15.1 17.5 7.5
      vertex -20 2.5 7.5
      vertex -20 17.5 7.5
    endloop
  endfacet
  facet normal 0 0 -1
    outer loop
      vertex -10 2.5 7.5
      vertex 10 17.5 7.5
      vertex 10 2.5 7.5
    endloop
  endfacet
  facet normal -0 0 -1
    outer loop
      vertex 10 17.5 7.5
      vertex -10 2.5 7.5
      vertex -10 17.5 7.5
    endloop
  endfacet
  facet normal 0 -1 0
    outer loop
      vertex 15.1 2.5 7.5
      vertex 15.6331 2.5 9.92794
      vertex 15.1 2.5 9.92794
    endloop
  endfacet
  facet normal 0 -1 0
    outer loop
      vertex 15.6331 2.5 9.92794
      vertex 23.75 2.5 8.50481
      vertex 25.3033 2.5 9.6967
    endloop
  endfacet
  facet normal 0 -1 0
    outer loop
      vertex 15.6331 2.5 9.92794
      vertex 21.9411 2.5 7.75556
      vertex 23.75 2.5 8.50481
    endloop
  endfacet
  facet normal 0 -1 -0
    outer loop
      vertex 15.6331 2.5 9.92794
      vertex 15.1 2.5 7.5
      vertex 20 2.5 7.5
    endloop
  endfacet
  facet normal 0 -1 0
    outer loop
      vertex 15.6331 2.5 9.92794
      vertex 20 2.5 7.5
      vertex 21.9411 2.5 7.75556
    endloop
  endfacet
  facet normal 0 -1 0
    outer loop
      vertex -20.0886 2.5 16.0603
      vertex -20 2.5 18.75
      vertex -26.4952 2.5 18.75
    endloop
  endfacet
  facet normal 0 -1 0
    outer loop
      vertex -20 2.5 18.75
      vertex -19.7591 2.5 17.0744
      vertex -19.226 2.5 17.9977
    endloop
  endfacet
  facet normal 0 -1 0
    outer loop
      vertex -20.0886 2.5 16.0603
      vertex -26.4952 2.5 18.75
      vertex -27.2444 2.5 16.9411
    endloop
  endfacet
  facet normal 0 -1 -0
    outer loop
      vertex -20 2.5 18.75
      vertex -20.0886 2.5 16.0603
      vertex -19.7591 2.5 17.0744
    endloop
  endfacet
  facet normal 0 -1 0
    outer loop
      vertex -20.2 2.5 15
      vertex -27.2444 2.5 16.9411
      vertex -27.5 2.5 15
    endloop
  endfacet
  facet normal 0 -1 0
    outer loop
      vertex -27.2444 2.5 16.9411
      vertex -20.2 2.5 15
      vertex -20.0886 2.5 16.0603
    endloop
  endfacet
  facet normal 0 -1 0
    outer loop
      vertex -27.2444 2.5 13.0589
      vertex -20.2 2.5 15
      vertex -27.5 2.5 15
    endloop
  endfacet
  facet normal 0 -1 -0
    outer loop
      vertex -20.2 2.5 15
      vertex -27.2444 2.5 13.0589
      vertex -20.0886 2.5 13.9396
    endloop
  endfacet
  facet normal 0 -1 0
    outer loop
      vertex -26.4952 2.5 11.25
      vertex -20.0886 2.5 13.9396
      vertex -27.2444 2.5 13.0589
    endloop
  endfacet
  facet normal 0 -1 0
    outer loop
      vertex -25.3033 2.5 9.6967
      vertex -20.0886 2.5 13.9396
      vertex -26.4952 2.5 11.25
    endloop
  endfacet
  facet normal 0 -1 -0
    outer loop
      vertex -20.0886 2.5 13.9396
      vertex -25.3033 2.5 9.6967
      vertex -19.7591 2.5 12.9256
    endloop
  endfacet
  facet normal 0 -1 0
    outer loop
      vertex -23.75 2.5 8.50481
      vertex -19.7591 2.5 12.9256
      vertex -25.3033 2.5 9.6967
    endloop
  endfacet
  facet normal 0 -1 -0
    outer loop
      vertex -19.7591 2.5 12.9256
      vertex -23.75 2.5 8.50481
      vertex -19.226 2.5 12.0023
    endloop
  endfacet
  facet normal 0 -1 0
    outer loop
      vertex -21.9411 2.5 7.75556
      vertex -19.226 2.5 12.0023
      vertex -23.75 2.5 8.50481
    endloop
  endfacet
  facet normal 0 -1 -0
    outer loop
      vertex -19.226 2.5 12.0023
      vertex -21.9411 2.5 7.75556
      vertex -18.5126 2.5 11.21
    endloop
  endfacet
  facet normal 0 -1 0
    outer loop
      vertex -20 2.5 7.5
      vertex -18.5126 2.5 11.21
      vertex -21.9411 2.5 7.75556
    endloop
  endfacet
  facet normal 0 -1 -0
    outer loop
      vertex -18.5126 2.5 11.21
      vertex -20 2.5 7.5
      vertex -17.65 2.5 10.5833
    endloop
  endfacet
  facet normal 0 -1 -0
    outer loop
      vertex -17.65 2.5 10.5833
      vertex -20 2.5 7.5
      vertex -16.676 2.5 10.1496
    endloop
  endfacet
  facet normal 0 -1 0
    outer loop
      vertex -15.1 2.5 7.5
      vertex -16.676 2.5 10.1496
      vertex -20 2.5 7.5
    endloop
  endfacet
  facet normal 0 -1 0
    outer loop
      vertex -16.676 2.5 10.1496
      vertex -15.1 2.5 7.5
      vertex -15.6331 2.5 9.92794
    endloop
  endfacet
  facet normal 0 -1 0
    outer loop
      vertex -15.6331 2.5 9.92794
      vertex -15.1 2.5 7.5
      vertex -15.1 2.5 9.92794
    endloop
  endfacet
  facet normal 0 -1 0
    outer loop
      vertex 13.524 2.5 19.8504
      vertex 20 2.5 22.5
      vertex -13.524 2.5 19.8504
    endloop
  endfacet
  facet normal 0 -1 0
    outer loop
      vertex 20 2.5 22.5
      vertex 13.524 2.5 19.8504
      vertex 14.5669 2.5 20.0721
    endloop
  endfacet
  facet normal 0 -1 0
    outer loop
      vertex -12.55 2.5 19.4167
      vertex 13.524 2.5 19.8504
      vertex -13.524 2.5 19.8504
    endloop
  endfacet
  facet normal 0 -1 0
    outer loop
      vertex -12.55 2.5 19.4167
      vertex 12.55 2.5 19.4167
      vertex 13.524 2.5 19.8504
    endloop
  endfacet
  facet normal 0 -1 0
    outer loop
      vertex -11.6874 2.5 18.79
      vertex 12.55 2.5 19.4167
      vertex -12.55 2.5 19.4167
    endloop
  endfacet
  facet normal 0 -1 0
    outer loop
      vertex -11.6874 2.5 18.79
      vertex 11.6874 2.5 18.79
      vertex 12.55 2.5 19.4167
    endloop
  endfacet
  facet normal 0 -1 0
    outer loop
      vertex -10.974 2.5 17.9977
      vertex 11.6874 2.5 18.79
      vertex -11.6874 2.5 18.79
    endloop
  endfacet
  facet normal 0 -1 0
    outer loop
      vertex -10.974 2.5 17.9977
      vertex 10.974 2.5 17.9977
      vertex 11.6874 2.5 18.79
    endloop
  endfacet
  facet normal 0 -1 0
    outer loop
      vertex -10.4409 2.5 17.0744
      vertex 10.974 2.5 17.9977
      vertex -10.974 2.5 17.9977
    endloop
  endfacet
  facet normal 0 -1 0
    outer loop
      vertex -10.4409 2.5 17.0744
      vertex 10.4409 2.5 17.0744
      vertex 10.974 2.5 17.9977
    endloop
  endfacet
  facet normal 0 -1 0
    outer loop
      vertex -10.1114 2.5 16.0603
      vertex 10.4409 2.5 17.0744
      vertex -10.4409 2.5 17.0744
    endloop
  endfacet
  facet normal 0 -1 0
    outer loop
      vertex -10.1114 2.5 16.0603
      vertex 10.1114 2.5 16.0603
      vertex 10.4409 2.5 17.0744
    endloop
  endfacet
  facet normal 0 -1 0
    outer loop
      vertex -10 2.5 15
      vertex 10.1114 2.5 16.0603
      vertex -10.1114 2.5 16.0603
    endloop
  endfacet
  facet normal 0 -1 0
    outer loop
      vertex -10 2.5 15
      vertex 10 2.5 15
      vertex 10.1114 2.5 16.0603
    endloop
  endfacet
  facet normal 0 -1 0
    outer loop
      vertex -10 2.5 7.5
      vertex 10 2.5 15
      vertex -10 2.5 15
    endloop
  endfacet
  facet normal 0 -1 -0
    outer loop
      vertex 10 2.5 15
      vertex -10 2.5 7.5
      vertex 10 2.5 7.5
    endloop
  endfacet
  facet normal 0 -1 0
    outer loop
      vertex -14.5669 2.5 20.0721
      vertex -20 2.5 22.5
      vertex -15.6331 2.5 20.0721
    endloop
  endfacet
  facet normal 0 -1 0
    outer loop
      vertex -20 2.5 22.5
      vertex -16.676 2.5 19.8504
      vertex -15.6331 2.5 20.0721
    endloop
  endfacet
  facet normal 0 -1 0
    outer loop
      vertex -20 2.5 22.5
      vertex -17.65 2.5 19.4167
      vertex -16.676 2.5 19.8504
    endloop
  endfacet
  facet normal 0 -1 0
    outer loop
      vertex -20 2.5 22.5
      vertex -18.5126 2.5 18.79
      vertex -17.65 2.5 19.4167
    endloop
  endfacet
  facet normal 0 -1 0
    outer loop
      vertex -20 2.5 18.75
      vertex -18.5126 2.5 18.79
      vertex -20 2.5 22.5
    endloop
  endfacet
  facet normal 0 -1 0
    outer loop
      vertex -18.5126 2.5 18.79
      vertex -20 2.5 18.75
      vertex -19.226 2.5 17.9977
    endloop
  endfacet
  facet normal 0 -1 0
    outer loop
      vertex -13.524 2.5 19.8504
      vertex -20 2.5 22.5
      vertex -14.5669 2.5 20.0721
    endloop
  endfacet
  facet normal 0 -1 0
    outer loop
      vertex -20 2.5 22.5
      vertex -13.524 2.5 19.8504
      vertex 20 2.5 22.5
    endloop
  endfacet
  facet normal 0 -1 0
    outer loop
      vertex 15.6331 2.5 20.0721
      vertex 20 2.5 22.5
      vertex 14.5669 2.5 20.0721
    endloop
  endfacet
  facet normal 0 -1 0
    outer loop
      vertex 16.676 2.5 19.8504
      vertex 20 2.5 22.5
      vertex 15.6331 2.5 20.0721
    endloop
  endfacet
  facet normal 0 -1 0
    outer loop
      vertex 17.65 2.5 19.4167
      vertex 20 2.5 22.5
      vertex 16.676 2.5 19.8504
    endloop
  endfacet
  facet normal 0 -1 0
    outer loop
      vertex 18.5126 2.5 18.79
      vertex 20 2.5 22.5
      vertex 17.65 2.5 19.4167
    endloop
  endfacet
  facet normal 0 -1 0
    outer loop
      vertex 18.5126 2.5 18.79
      vertex 20 2.5 18.75
      vertex 20 2.5 22.5
    endloop
  endfacet
  facet normal 0 -1 0
    outer loop
      vertex 19.226 2.5 17.9977
      vertex 20 2.5 18.75
      vertex 18.5126 2.5 18.79
    endloop
  endfacet
  facet normal 0 -1 0
    outer loop
      vertex 19.7591 2.5 17.0744
      vertex 20 2.5 18.75
      vertex 19.226 2.5 17.9977
    endloop
  endfacet
  facet normal 0 -1 0
    outer loop
      vertex 20.0886 2.5 16.0603
      vertex 20 2.5 18.75
      vertex 19.7591 2.5 17.0744
    endloop
  endfacet
  facet normal 0 -1 0
    outer loop
      vertex 20 2.5 18.75
      vertex 20.0886 2.5 16.0603
      vertex 26.4952 2.5 18.75
    endloop
  endfacet
  facet normal 0 -1 -0
    outer loop
      vertex 26.4952 2.5 18.75
      vertex 20.0886 2.5 16.0603
      vertex 27.2444 2.5 16.9411
    endloop
  endfacet
  facet normal 0 -1 0
    outer loop
      vertex 20.2 2.5 15
      vertex 27.2444 2.5 16.9411
      vertex 20.0886 2.5 16.0603
    endloop
  endfacet
  facet normal 0 -1 0
    outer loop
      vertex 20.2 2.5 15
      vertex 27.5 2.5 15
      vertex 27.2444 2.5 16.9411
    endloop
  endfacet
  facet normal 0 -1 0
    outer loop
      vertex 27.2444 2.5 13.0589
      vertex 20.2 2.5 15
      vertex 20.0886 2.5 13.9396
    endloop
  endfacet
  facet normal 0 -1 0
    outer loop
      vertex 20.2 2.5 15
      vertex 27.2444 2.5 13.0589
      vertex 27.5 2.5 15
    endloop
  endfacet
  facet normal 0 -1 0
    outer loop
      vertex 25.3033 2.5 9.6967
      vertex 20.0886 2.5 13.9396
      vertex 19.7591 2.5 12.9256
    endloop
  endfacet
  facet normal 0 -1 0
    outer loop
      vertex 25.3033 2.5 9.6967
      vertex 19.7591 2.5 12.9256
      vertex 19.226 2.5 12.0023
    endloop
  endfacet
  facet normal 0 -1 0
    outer loop
      vertex 20.0886 2.5 13.9396
      vertex 26.4952 2.5 11.25
      vertex 27.2444 2.5 13.0589
    endloop
  endfacet
  facet normal 0 -1 0
    outer loop
      vertex 25.3033 2.5 9.6967
      vertex 19.226 2.5 12.0023
      vertex 18.5126 2.5 11.21
    endloop
  endfacet
  facet normal 0 -1 0
    outer loop
      vertex 25.3033 2.5 9.6967
      vertex 18.5126 2.5 11.21
      vertex 17.65 2.5 10.5833
    endloop
  endfacet
  facet normal 0 -1 0
    outer loop
      vertex 25.3033 2.5 9.6967
      vertex 17.65 2.5 10.5833
      vertex 16.676 2.5 10.1496
    endloop
  endfacet
  facet normal 0 -1 0
    outer loop
      vertex 25.3033 2.5 9.6967
      vertex 16.676 2.5 10.1496
      vertex 15.6331 2.5 9.92794
    endloop
  endfacet
  facet normal 0 -1 0
    outer loop
      vertex 20.0886 2.5 13.9396
      vertex 25.3033 2.5 9.6967
      vertex 26.4952 2.5 11.25
    endloop
  endfacet
  facet normal -0 1 -0
    outer loop
      vertex -21.9411 17.5 7.75556
      vertex -27.2444 17.5 13.0589
      vertex -20 17.5 7.5
    endloop
  endfacet
  facet normal -0.608761 0 0.793354
    outer loop
      vertex -25.3033 17.5 20.3033
      vertex -23.75 2.5 21.4952
      vertex -23.75 17.5 21.4952
    endloop
  endfacet
  facet normal -0.608761 0 0.793354
    outer loop
      vertex -23.75 2.5 21.4952
      vertex -25.3033 17.5 20.3033
      vertex -25.3033 2.5 20.3033
    endloop
  endfacet
  facet normal 0 -1 2.54313e-007
    outer loop
      vertex -20 2.5 22.5
      vertex -26.4952 2.5 18.75
      vertex -20 2.5 18.75
    endloop
  endfacet
  facet normal -0.382683 0 0.92388
    outer loop
      vertex -23.75 17.5 21.4952
      vertex -21.9411 2.5 22.2444
      vertex -21.9411 17.5 22.2444
    endloop
  endfacet
  facet normal -0.382683 0 0.92388
    outer loop
      vertex -21.9411 2.5 22.2444
      vertex -23.75 17.5 21.4952
      vertex -23.75 2.5 21.4952
    endloop
  endfacet
  facet normal -0.130526 0 -0.991445
    outer loop
      vertex -21.9411 2.5 7.75556
      vertex -20 17.5 7.5
      vertex -20 2.5 7.5
    endloop
  endfacet
  facet normal -0.130526 0 -0.991445
    outer loop
      vertex -20 17.5 7.5
      vertex -21.9411 2.5 7.75556
      vertex -21.9411 17.5 7.75556
    endloop
  endfacet
  facet normal -0.130527 0 0.991445
    outer loop
      vertex -21.9411 17.5 22.2444
      vertex -20 2.5 22.5
      vertex -20 17.5 22.5
    endloop
  endfacet
  facet normal -0.130527 0 0.991445
    outer loop
      vertex -20 2.5 22.5
      vertex -21.9411 17.5 22.2444
      vertex -21.9411 2.5 22.2444
    endloop
  endfacet
  facet normal -0.793354 0 0.608761
    outer loop
      vertex -26.4952 17.5 18.75
      vertex -25.3033 2.5 20.3033
      vertex -25.3033 17.5 20.3033
    endloop
  endfacet
  facet normal -0.793354 0 0.608761
    outer loop
      vertex -25.3033 2.5 20.3033
      vertex -26.4952 17.5 18.75
      vertex -26.4952 2.5 18.75
    endloop
  endfacet
  facet normal -0.991445 0 -0.130527
    outer loop
      vertex -27.2444 2.5 13.0589
      vertex -27.5 17.5 15
      vertex -27.2444 17.5 13.0589
    endloop
  endfacet
  facet normal -0.991445 -0 -0.130527
    outer loop
      vertex -27.5 17.5 15
      vertex -27.2444 2.5 13.0589
      vertex -27.5 2.5 15
    endloop
  endfacet
  facet normal -1.14567e-006 -1 1.49307e-006
    outer loop
      vertex -25.3033 2.5 20.3033
      vertex -26.4952 2.5 18.75
      vertex -23.75 2.5 21.4952
    endloop
  endfacet
  facet normal -0.92388 0 0.382683
    outer loop
      vertex -27.2444 2.5 16.9411
      vertex -26.4952 17.5 18.75
      vertex -27.2444 17.5 16.9411
    endloop
  endfacet
  facet normal -0.92388 0 0.382683
    outer loop
      vertex -26.4952 17.5 18.75
      vertex -27.2444 2.5 16.9411
      vertex -26.4952 2.5 18.75
    endloop
  endfacet
  facet normal -0.991445 0 0.130527
    outer loop
      vertex -27.5 2.5 15
      vertex -27.2444 17.5 16.9411
      vertex -27.5 17.5 15
    endloop
  endfacet
  facet normal -0.991445 0 0.130527
    outer loop
      vertex -27.2444 17.5 16.9411
      vertex -27.5 2.5 15
      vertex -27.2444 2.5 16.9411
    endloop
  endfacet
  facet normal -0.92388 0 -0.382683
    outer loop
      vertex -26.4952 2.5 11.25
      vertex -27.2444 17.5 13.0589
      vertex -26.4952 17.5 11.25
    endloop
  endfacet
  facet normal -0.92388 -0 -0.382683
    outer loop
      vertex -27.2444 17.5 13.0589
      vertex -26.4952 2.5 11.25
      vertex -27.2444 2.5 13.0589
    endloop
  endfacet
  facet normal -0.608761 0 -0.793354
    outer loop
      vertex -25.3033 2.5 9.6967
      vertex -23.75 17.5 8.50481
      vertex -23.75 2.5 8.50481
    endloop
  endfacet
  facet normal -0.608761 0 -0.793354
    outer loop
      vertex -23.75 17.5 8.50481
      vertex -25.3033 2.5 9.6967
      vertex -25.3033 17.5 9.6967
    endloop
  endfacet
  facet normal -0 1 -0
    outer loop
      vertex -25.3033 17.5 9.6967
      vertex -27.2444 17.5 13.0589
      vertex -23.75 17.5 8.50481
    endloop
  endfacet
  facet normal -0.793354 0 -0.608761
    outer loop
      vertex -25.3033 2.5 9.6967
      vertex -26.4952 17.5 11.25
      vertex -25.3033 17.5 9.6967
    endloop
  endfacet
  facet normal -0.793354 -0 -0.608761
    outer loop
      vertex -26.4952 17.5 11.25
      vertex -25.3033 2.5 9.6967
      vertex -26.4952 2.5 11.25
    endloop
  endfacet
  facet normal -2.45647e-007 -1 5.93046e-007
    outer loop
      vertex -23.75 2.5 21.4952
      vertex -26.4952 2.5 18.75
      vertex -21.9411 2.5 22.2444
    endloop
  endfacet
  facet normal -4.33711e-008 -1 3.29434e-007
    outer loop
      vertex -21.9411 2.5 22.2444
      vertex -26.4952 2.5 18.75
      vertex -20 2.5 22.5
    endloop
  endfacet
  facet normal 0 1 -0
    outer loop
      vertex -20 17.5 7.5
      vertex -27.2444 17.5 13.0589
      vertex -20 17.5 13.0589
    endloop
  endfacet
  facet normal -0 1 -0
    outer loop
      vertex -26.4952 17.5 11.25
      vertex -27.2444 17.5 13.0589
      vertex -25.3033 17.5 9.6967
    endloop
  endfacet
  facet normal -0.382684 0 -0.923879
    outer loop
      vertex -23.75 2.5 8.50481
      vertex -21.9411 17.5 7.75556
      vertex -21.9411 2.5 7.75556
    endloop
  endfacet
  facet normal -0.382684 0 -0.923879
    outer loop
      vertex -21.9411 17.5 7.75556
      vertex -23.75 2.5 8.50481
      vertex -23.75 17.5 8.50481
    endloop
  endfacet
  facet normal -0 1 -0
    outer loop
      vertex -23.75 17.5 8.50481
      vertex -27.2444 17.5 13.0589
      vertex -21.9411 17.5 7.75556
    endloop
  endfacet
  facet normal 0 -1 2.54313e-007
    outer loop
      vertex 20 2.5 22.5
      vertex 20 2.5 18.75
      vertex 26.4952 2.5 18.75
    endloop
  endfacet
  facet normal 0.793354 0 -0.608761
    outer loop
      vertex 26.4952 2.5 11.25
      vertex 25.3033 17.5 9.6967
      vertex 26.4952 17.5 11.25
    endloop
  endfacet
  facet normal 0.793354 0 -0.608761
    outer loop
      vertex 25.3033 17.5 9.6967
      vertex 26.4952 2.5 11.25
      vertex 25.3033 2.5 9.6967
    endloop
  endfacet
  facet normal 0 1 0
    outer loop
      vertex 27.2444 17.5 13.0589
      vertex 20 17.5 7.5
      vertex 20 17.5 13.0589
    endloop
  endfacet
  facet normal 0.130527 0 0.991445
    outer loop
      vertex 20 17.5 22.5
      vertex 21.9411 2.5 22.2444
      vertex 21.9411 17.5 22.2444
    endloop
  endfacet
  facet normal 0.130527 0 0.991445
    outer loop
      vertex 21.9411 2.5 22.2444
      vertex 20 17.5 22.5
      vertex 20 2.5 22.5
    endloop
  endfacet
  facet normal 0.608761 0 -0.793354
    outer loop
      vertex 23.75 2.5 8.50481
      vertex 25.3033 17.5 9.6967
      vertex 25.3033 2.5 9.6967
    endloop
  endfacet
  facet normal 0.608761 0 -0.793354
    outer loop
      vertex 25.3033 17.5 9.6967
      vertex 23.75 2.5 8.50481
      vertex 23.75 17.5 8.50481
    endloop
  endfacet
  facet normal 0 1 -0
    outer loop
      vertex 26.4952 17.5 11.25
      vertex 25.3033 17.5 9.6967
      vertex 27.2444 17.5 13.0589
    endloop
  endfacet
  facet normal 4.33711e-008 -1 3.29434e-007
    outer loop
      vertex 21.9411 2.5 22.2444
      vertex 20 2.5 22.5
      vertex 26.4952 2.5 18.75
    endloop
  endfacet
  facet normal 0.991445 -0 0.130527
    outer loop
      vertex 27.2444 2.5 16.9411
      vertex 27.5 17.5 15
      vertex 27.2444 17.5 16.9411
    endloop
  endfacet
  facet normal 0.991445 0 0.130527
    outer loop
      vertex 27.5 17.5 15
      vertex 27.2444 2.5 16.9411
      vertex 27.5 2.5 15
    endloop
  endfacet
  facet normal 0.382683 0 0.92388
    outer loop
      vertex 21.9411 17.5 22.2444
      vertex 23.75 2.5 21.4952
      vertex 23.75 17.5 21.4952
    endloop
  endfacet
  facet normal 0.382683 0 0.92388
    outer loop
      vertex 23.75 2.5 21.4952
      vertex 21.9411 17.5 22.2444
      vertex 21.9411 2.5 22.2444
    endloop
  endfacet
  facet normal 0.793354 -0 0.608761
    outer loop
      vertex 25.3033 2.5 20.3033
      vertex 26.4952 17.5 18.75
      vertex 25.3033 17.5 20.3033
    endloop
  endfacet
  facet normal 0.793354 0 0.608761
    outer loop
      vertex 26.4952 17.5 18.75
      vertex 25.3033 2.5 20.3033
      vertex 26.4952 2.5 18.75
    endloop
  endfacet
  facet normal 0.382684 0 -0.923879
    outer loop
      vertex 21.9411 2.5 7.75556
      vertex 23.75 17.5 8.50481
      vertex 23.75 2.5 8.50481
    endloop
  endfacet
  facet normal 0.382684 0 -0.923879
    outer loop
      vertex 23.75 17.5 8.50481
      vertex 21.9411 2.5 7.75556
      vertex 21.9411 17.5 7.75556
    endloop
  endfacet
  facet normal 0.92388 0 -0.382683
    outer loop
      vertex 27.2444 2.5 13.0589
      vertex 26.4952 17.5 11.25
      vertex 27.2444 17.5 13.0589
    endloop
  endfacet
  facet normal 0.92388 0 -0.382683
    outer loop
      vertex 26.4952 17.5 11.25
      vertex 27.2444 2.5 13.0589
      vertex 26.4952 2.5 11.25
    endloop
  endfacet
  facet normal 0.991445 0 -0.130527
    outer loop
      vertex 27.5 2.5 15
      vertex 27.2444 17.5 13.0589
      vertex 27.5 17.5 15
    endloop
  endfacet
  facet normal 0.991445 0 -0.130527
    outer loop
      vertex 27.2444 17.5 13.0589
      vertex 27.5 2.5 15
      vertex 27.2444 2.5 13.0589
    endloop
  endfacet
  facet normal 0 1 -0
    outer loop
      vertex 21.9411 17.5 7.75556
      vertex 20 17.5 7.5
      vertex 27.2444 17.5 13.0589
    endloop
  endfacet
  facet normal 0.130526 0 -0.991445
    outer loop
      vertex 20 2.5 7.5
      vertex 21.9411 17.5 7.75556
      vertex 21.9411 2.5 7.75556
    endloop
  endfacet
  facet normal 0.130526 0 -0.991445
    outer loop
      vertex 21.9411 17.5 7.75556
      vertex 20 2.5 7.5
      vertex 20 17.5 7.5
    endloop
  endfacet
  facet normal 0 1 -0
    outer loop
      vertex 23.75 17.5 8.50481
      vertex 21.9411 17.5 7.75556
      vertex 27.2444 17.5 13.0589
    endloop
  endfacet
  facet normal 0 1 -0
    outer loop
      vertex 25.3033 17.5 9.6967
      vertex 23.75 17.5 8.50481
      vertex 27.2444 17.5 13.0589
    endloop
  endfacet
  facet normal 2.45647e-007 -1 5.93046e-007
    outer loop
      vertex 23.75 2.5 21.4952
      vertex 21.9411 2.5 22.2444
      vertex 26.4952 2.5 18.75
    endloop
  endfacet
  facet normal 0.92388 -0 0.382683
    outer loop
      vertex 26.4952 2.5 18.75
      vertex 27.2444 17.5 16.9411
      vertex 26.4952 17.5 18.75
    endloop
  endfacet
  facet normal 0.92388 0 0.382683
    outer loop
      vertex 27.2444 17.5 16.9411
      vertex 26.4952 2.5 18.75
      vertex 27.2444 2.5 16.9411
    endloop
  endfacet
  facet normal 0.608761 0 0.793354
    outer loop
      vertex 23.75 17.5 21.4952
      vertex 25.3033 2.5 20.3033
      vertex 25.3033 17.5 20.3033
    endloop
  endfacet
  facet normal 0.608761 0 0.793354
    outer loop
      vertex 25.3033 2.5 20.3033
      vertex 23.75 17.5 21.4952
      vertex 23.75 2.5 21.4952
    endloop
  endfacet
  facet normal 1.14567e-006 -1 1.49307e-006
    outer loop
      vertex 25.3033 2.5 20.3033
      vertex 23.75 2.5 21.4952
      vertex 26.4952 2.5 18.75
    endloop
  endfacet
  facet normal -0.994522 0 -0.104528
    outer loop
      vertex -10 2.5 15
      vertex -10.1114 17.5 16.0603
      vertex -10 17.5 15
    endloop
  endfacet
  facet normal -0.994522 -0 -0.104528
    outer loop
      vertex -10.1114 17.5 16.0603
      vertex -10 2.5 15
      vertex -10.1114 2.5 16.0603
    endloop
  endfacet
  facet normal -0.951056 0 -0.309017
    outer loop
      vertex -10.1114 2.5 16.0603
      vertex -10.4409 17.5 17.0744
      vertex -10.1114 17.5 16.0603
    endloop
  endfacet
  facet normal -0.951056 -0 -0.309017
    outer loop
      vertex -10.4409 17.5 17.0744
      vertex -10.1114 2.5 16.0603
      vertex -10.4409 2.5 17.0744
    endloop
  endfacet
  facet normal 0.994522 0 -0.10453
    outer loop
      vertex -20.0886 2.5 16.0603
      vertex -20.2 17.5 15
      vertex -20.0886 17.5 16.0603
    endloop
  endfacet
  facet normal 0.994522 0 -0.10453
    outer loop
      vertex -20.2 17.5 15
      vertex -20.0886 2.5 16.0603
      vertex -20.2 2.5 15
    endloop
  endfacet
  facet normal 0 0 -1
    outer loop
      vertex -15.6331 2.5 20.0721
      vertex -14.5669 17.5 20.0721
      vertex -14.5669 2.5 20.0721
    endloop
  endfacet
  facet normal -0 0 -1
    outer loop
      vertex -14.5669 17.5 20.0721
      vertex -15.6331 2.5 20.0721
      vertex -15.6331 17.5 20.0721
    endloop
  endfacet
  facet normal -0.587785 0 -0.809017
    outer loop
      vertex -12.55 2.5 19.4167
      vertex -11.6874 17.5 18.79
      vertex -11.6874 2.5 18.79
    endloop
  endfacet
  facet normal -0.587785 0 -0.809017
    outer loop
      vertex -11.6874 17.5 18.79
      vertex -12.55 2.5 19.4167
      vertex -12.55 17.5 19.4167
    endloop
  endfacet
  facet normal -0.207912 0 -0.978147
    outer loop
      vertex -14.5669 2.5 20.0721
      vertex -13.524 17.5 19.8504
      vertex -13.524 2.5 19.8504
    endloop
  endfacet
  facet normal -0.207912 0 -0.978147
    outer loop
      vertex -13.524 17.5 19.8504
      vertex -14.5669 2.5 20.0721
      vertex -14.5669 17.5 20.0721
    endloop
  endfacet
  facet normal -0.866025 0 -0.5
    outer loop
      vertex -10.4409 2.5 17.0744
      vertex -10.974 17.5 17.9977
      vertex -10.4409 17.5 17.0744
    endloop
  endfacet
  facet normal -0.866025 -0 -0.5
    outer loop
      vertex -10.974 17.5 17.9977
      vertex -10.4409 2.5 17.0744
      vertex -10.974 2.5 17.9977
    endloop
  endfacet
  facet normal 0.743145 0 -0.66913
    outer loop
      vertex -18.5126 2.5 18.79
      vertex -19.226 17.5 17.9977
      vertex -18.5126 17.5 18.79
    endloop
  endfacet
  facet normal 0.743145 0 -0.66913
    outer loop
      vertex -19.226 17.5 17.9977
      vertex -18.5126 2.5 18.79
      vertex -19.226 2.5 17.9977
    endloop
  endfacet
  facet normal 0.406737 0 -0.913545
    outer loop
      vertex -17.65 2.5 19.4167
      vertex -16.676 17.5 19.8504
      vertex -16.676 2.5 19.8504
    endloop
  endfacet
  facet normal 0.406737 0 -0.913545
    outer loop
      vertex -16.676 17.5 19.8504
      vertex -17.65 2.5 19.4167
      vertex -17.65 17.5 19.4167
    endloop
  endfacet
  facet normal -0.743146 0 -0.669129
    outer loop
      vertex -10.974 2.5 17.9977
      vertex -11.6874 17.5 18.79
      vertex -10.974 17.5 17.9977
    endloop
  endfacet
  facet normal -0.743146 -0 -0.669129
    outer loop
      vertex -11.6874 17.5 18.79
      vertex -10.974 2.5 17.9977
      vertex -11.6874 2.5 18.79
    endloop
  endfacet
  facet normal -0.406737 0 -0.913545
    outer loop
      vertex -13.524 2.5 19.8504
      vertex -12.55 17.5 19.4167
      vertex -12.55 2.5 19.4167
    endloop
  endfacet
  facet normal -0.406737 0 -0.913545
    outer loop
      vertex -12.55 17.5 19.4167
      vertex -13.524 2.5 19.8504
      vertex -13.524 17.5 19.8504
    endloop
  endfacet
  facet normal 0.587785 0 -0.809017
    outer loop
      vertex -18.5126 2.5 18.79
      vertex -17.65 17.5 19.4167
      vertex -17.65 2.5 19.4167
    endloop
  endfacet
  facet normal 0.587785 0 -0.809017
    outer loop
      vertex -17.65 17.5 19.4167
      vertex -18.5126 2.5 18.79
      vertex -18.5126 17.5 18.79
    endloop
  endfacet
  facet normal 0.866026 0 -0.5
    outer loop
      vertex -19.226 2.5 17.9977
      vertex -19.7591 17.5 17.0744
      vertex -19.226 17.5 17.9977
    endloop
  endfacet
  facet normal 0.866026 0 -0.5
    outer loop
      vertex -19.7591 17.5 17.0744
      vertex -19.226 2.5 17.9977
      vertex -19.7591 2.5 17.0744
    endloop
  endfacet
  facet normal 0.951056 0 -0.309017
    outer loop
      vertex -19.7591 2.5 17.0744
      vertex -20.0886 17.5 16.0603
      vertex -19.7591 17.5 17.0744
    endloop
  endfacet
  facet normal 0.951056 0 -0.309017
    outer loop
      vertex -20.0886 17.5 16.0603
      vertex -19.7591 2.5 17.0744
      vertex -20.0886 2.5 16.0603
    endloop
  endfacet
  facet normal 0.207912 0 -0.978148
    outer loop
      vertex -16.676 2.5 19.8504
      vertex -15.6331 17.5 20.0721
      vertex -15.6331 2.5 20.0721
    endloop
  endfacet
  facet normal 0.207912 0 -0.978148
    outer loop
      vertex -15.6331 17.5 20.0721
      vertex -16.676 2.5 19.8504
      vertex -16.676 17.5 19.8504
    endloop
  endfacet
  facet normal 0.994522 -0 0.104529
    outer loop
      vertex -20.2 2.5 15
      vertex -20.0886 17.5 13.9396
      vertex -20.2 17.5 15
    endloop
  endfacet
  facet normal 0.994522 0 0.104529
    outer loop
      vertex -20.0886 17.5 13.9396
      vertex -20.2 2.5 15
      vertex -20.0886 2.5 13.9396
    endloop
  endfacet
  facet normal -0 0 1
    outer loop
      vertex -15.6331 17.5 9.92794
      vertex -15.1 2.5 9.92794
      vertex -15.1 17.5 9.92794
    endloop
  endfacet
  facet normal 0 0 1
    outer loop
      vertex -15.1 2.5 9.92794
      vertex -15.6331 17.5 9.92794
      vertex -15.6331 2.5 9.92794
    endloop
  endfacet
  facet normal 0.866026 -0 0.499999
    outer loop
      vertex -19.7591 2.5 12.9256
      vertex -19.226 17.5 12.0023
      vertex -19.7591 17.5 12.9256
    endloop
  endfacet
  facet normal 0.866026 0 0.499999
    outer loop
      vertex -19.226 17.5 12.0023
      vertex -19.7591 2.5 12.9256
      vertex -19.226 2.5 12.0023
    endloop
  endfacet
  facet normal 0.743145 -0 0.669131
    outer loop
      vertex -19.226 2.5 12.0023
      vertex -18.5126 17.5 11.21
      vertex -19.226 17.5 12.0023
    endloop
  endfacet
  facet normal 0.743145 0 0.669131
    outer loop
      vertex -18.5126 17.5 11.21
      vertex -19.226 2.5 12.0023
      vertex -18.5126 2.5 11.21
    endloop
  endfacet
  facet normal 0.587785 0 0.809017
    outer loop
      vertex -18.5126 17.5 11.21
      vertex -17.65 2.5 10.5833
      vertex -17.65 17.5 10.5833
    endloop
  endfacet
  facet normal 0.587785 0 0.809017
    outer loop
      vertex -17.65 2.5 10.5833
      vertex -18.5126 17.5 11.21
      vertex -18.5126 2.5 11.21
    endloop
  endfacet
  facet normal 0.406737 0 0.913545
    outer loop
      vertex -17.65 17.5 10.5833
      vertex -16.676 2.5 10.1496
      vertex -16.676 17.5 10.1496
    endloop
  endfacet
  facet normal 0.406737 0 0.913545
    outer loop
      vertex -16.676 2.5 10.1496
      vertex -17.65 17.5 10.5833
      vertex -17.65 2.5 10.5833
    endloop
  endfacet
  facet normal 0.207912 0 0.978148
    outer loop
      vertex -16.676 17.5 10.1496
      vertex -15.6331 2.5 9.92794
      vertex -15.6331 17.5 9.92794
    endloop
  endfacet
  facet normal 0.207912 0 0.978148
    outer loop
      vertex -15.6331 2.5 9.92794
      vertex -16.676 17.5 10.1496
      vertex -16.676 2.5 10.1496
    endloop
  endfacet
  facet normal 0.951056 -0 0.309018
    outer loop
      vertex -20.0886 2.5 13.9396
      vertex -19.7591 17.5 12.9256
      vertex -20.0886 17.5 13.9396
    endloop
  endfacet
  facet normal 0.951056 0 0.309018
    outer loop
      vertex -19.7591 17.5 12.9256
      vertex -20.0886 2.5 13.9396
      vertex -19.7591 2.5 12.9256
    endloop
  endfacet
  facet normal 1 -0 0
    outer loop
      vertex -15.1 2.5 9.92794
      vertex -15.1 17.5 7.5
      vertex -15.1 17.5 9.92794
    endloop
  endfacet
  facet normal 1 0 0
    outer loop
      vertex -15.1 17.5 7.5
      vertex -15.1 2.5 9.92794
      vertex -15.1 2.5 7.5
    endloop
  endfacet
  facet normal -1 0 0
    outer loop
      vertex -10 2.5 7.5
      vertex -10 17.5 15
      vertex -10 17.5 7.5
    endloop
  endfacet
  facet normal -1 -0 0
    outer loop
      vertex -10 17.5 15
      vertex -10 2.5 7.5
      vertex -10 2.5 15
    endloop
  endfacet
  facet normal 0.994522 0 -0.104528
    outer loop
      vertex 10.1114 2.5 16.0603
      vertex 10 17.5 15
      vertex 10.1114 17.5 16.0603
    endloop
  endfacet
  facet normal 0.994522 0 -0.104528
    outer loop
      vertex 10 17.5 15
      vertex 10.1114 2.5 16.0603
      vertex 10 2.5 15
    endloop
  endfacet
  facet normal 0.951056 0 -0.309017
    outer loop
      vertex 10.4409 2.5 17.0744
      vertex 10.1114 17.5 16.0603
      vertex 10.4409 17.5 17.0744
    endloop
  endfacet
  facet normal 0.951056 0 -0.309017
    outer loop
      vertex 10.1114 17.5 16.0603
      vertex 10.4409 2.5 17.0744
      vertex 10.1114 2.5 16.0603
    endloop
  endfacet
  facet normal -0.994522 0 -0.10453
    outer loop
      vertex 20.2 2.5 15
      vertex 20.0886 17.5 16.0603
      vertex 20.2 17.5 15
    endloop
  endfacet
  facet normal -0.994522 -0 -0.10453
    outer loop
      vertex 20.0886 17.5 16.0603
      vertex 20.2 2.5 15
      vertex 20.0886 2.5 16.0603
    endloop
  endfacet
  facet normal 0 0 -1
    outer loop
      vertex 14.5669 2.5 20.0721
      vertex 15.6331 17.5 20.0721
      vertex 15.6331 2.5 20.0721
    endloop
  endfacet
  facet normal -0 0 -1
    outer loop
      vertex 15.6331 17.5 20.0721
      vertex 14.5669 2.5 20.0721
      vertex 14.5669 17.5 20.0721
    endloop
  endfacet
  facet normal 0.587785 0 -0.809017
    outer loop
      vertex 11.6874 2.5 18.79
      vertex 12.55 17.5 19.4167
      vertex 12.55 2.5 19.4167
    endloop
  endfacet
  facet normal 0.587785 0 -0.809017
    outer loop
      vertex 12.55 17.5 19.4167
      vertex 11.6874 2.5 18.79
      vertex 11.6874 17.5 18.79
    endloop
  endfacet
  facet normal 0.207912 0 -0.978147
    outer loop
      vertex 13.524 2.5 19.8504
      vertex 14.5669 17.5 20.0721
      vertex 14.5669 2.5 20.0721
    endloop
  endfacet
  facet normal 0.207912 0 -0.978147
    outer loop
      vertex 14.5669 17.5 20.0721
      vertex 13.524 2.5 19.8504
      vertex 13.524 17.5 19.8504
    endloop
  endfacet
  facet normal 0.866025 0 -0.5
    outer loop
      vertex 10.974 2.5 17.9977
      vertex 10.4409 17.5 17.0744
      vertex 10.974 17.5 17.9977
    endloop
  endfacet
  facet normal 0.866025 0 -0.5
    outer loop
      vertex 10.4409 17.5 17.0744
      vertex 10.974 2.5 17.9977
      vertex 10.4409 2.5 17.0744
    endloop
  endfacet
  facet normal -0.743145 0 -0.66913
    outer loop
      vertex 19.226 2.5 17.9977
      vertex 18.5126 17.5 18.79
      vertex 19.226 17.5 17.9977
    endloop
  endfacet
  facet normal -0.743145 -0 -0.66913
    outer loop
      vertex 18.5126 17.5 18.79
      vertex 19.226 2.5 17.9977
      vertex 18.5126 2.5 18.79
    endloop
  endfacet
  facet normal -0.406737 0 -0.913545
    outer loop
      vertex 16.676 2.5 19.8504
      vertex 17.65 17.5 19.4167
      vertex 17.65 2.5 19.4167
    endloop
  endfacet
  facet normal -0.406737 0 -0.913545
    outer loop
      vertex 17.65 17.5 19.4167
      vertex 16.676 2.5 19.8504
      vertex 16.676 17.5 19.8504
    endloop
  endfacet
  facet normal 0.743146 0 -0.669129
    outer loop
      vertex 11.6874 2.5 18.79
      vertex 10.974 17.5 17.9977
      vertex 11.6874 17.5 18.79
    endloop
  endfacet
  facet normal 0.743146 0 -0.669129
    outer loop
      vertex 10.974 17.5 17.9977
      vertex 11.6874 2.5 18.79
      vertex 10.974 2.5 17.9977
    endloop
  endfacet
  facet normal 0.406737 0 -0.913545
    outer loop
      vertex 12.55 2.5 19.4167
      vertex 13.524 17.5 19.8504
      vertex 13.524 2.5 19.8504
    endloop
  endfacet
  facet normal 0.406737 0 -0.913545
    outer loop
      vertex 13.524 17.5 19.8504
      vertex 12.55 2.5 19.4167
      vertex 12.55 17.5 19.4167
    endloop
  endfacet
  facet normal -0.587785 0 -0.809017
    outer loop
      vertex 17.65 2.5 19.4167
      vertex 18.5126 17.5 18.79
      vertex 18.5126 2.5 18.79
    endloop
  endfacet
  facet normal -0.587785 0 -0.809017
    outer loop
      vertex 18.5126 17.5 18.79
      vertex 17.65 2.5 19.4167
      vertex 17.65 17.5 19.4167
    endloop
  endfacet
  facet normal -0.866026 0 -0.5
    outer loop
      vertex 19.7591 2.5 17.0744
      vertex 19.226 17.5 17.9977
      vertex 19.7591 17.5 17.0744
    endloop
  endfacet
  facet normal -0.866026 -0 -0.5
    outer loop
      vertex 19.226 17.5 17.9977
      vertex 19.7591 2.5 17.0744
      vertex 19.226 2.5 17.9977
    endloop
  endfacet
  facet normal -0.951056 0 -0.309017
    outer loop
      vertex 20.0886 2.5 16.0603
      vertex 19.7591 17.5 17.0744
      vertex 20.0886 17.5 16.0603
    endloop
  endfacet
  facet normal -0.951056 -0 -0.309017
    outer loop
      vertex 19.7591 17.5 17.0744
      vertex 20.0886 2.5 16.0603
      vertex 19.7591 2.5 17.0744
    endloop
  endfacet
  facet normal -0.207912 0 -0.978148
    outer loop
      vertex 15.6331 2.5 20.0721
      vertex 16.676 17.5 19.8504
      vertex 16.676 2.5 19.8504
    endloop
  endfacet
  facet normal -0.207912 0 -0.978148
    outer loop
      vertex 16.676 17.5 19.8504
      vertex 15.6331 2.5 20.0721
      vertex 15.6331 17.5 20.0721
    endloop
  endfacet
  facet normal -0.994522 0 0.104529
    outer loop
      vertex 20.0886 2.5 13.9396
      vertex 20.2 17.5 15
      vertex 20.0886 17.5 13.9396
    endloop
  endfacet
  facet normal -0.994522 0 0.104529
    outer loop
      vertex 20.2 17.5 15
      vertex 20.0886 2.5 13.9396
      vertex 20.2 2.5 15
    endloop
  endfacet
  facet normal -0 0 1
    outer loop
      vertex 15.1 17.5 9.92794
      vertex 15.6331 2.5 9.92794
      vertex 15.6331 17.5 9.92794
    endloop
  endfacet
  facet normal 0 0 1
    outer loop
      vertex 15.6331 2.5 9.92794
      vertex 15.1 17.5 9.92794
      vertex 15.1 2.5 9.92794
    endloop
  endfacet
  facet normal -0.866026 0 0.499999
    outer loop
      vertex 19.226 2.5 12.0023
      vertex 19.7591 17.5 12.9256
      vertex 19.226 17.5 12.0023
    endloop
  endfacet
  facet normal -0.866026 0 0.499999
    outer loop
      vertex 19.7591 17.5 12.9256
      vertex 19.226 2.5 12.0023
      vertex 19.7591 2.5 12.9256
    endloop
  endfacet
  facet normal -0.743145 0 0.669131
    outer loop
      vertex 18.5126 2.5 11.21
      vertex 19.226 17.5 12.0023
      vertex 18.5126 17.5 11.21
    endloop
  endfacet
  facet normal -0.743145 0 0.669131
    outer loop
      vertex 19.226 17.5 12.0023
      vertex 18.5126 2.5 11.21
      vertex 19.226 2.5 12.0023
    endloop
  endfacet
  facet normal -0.587785 0 0.809017
    outer loop
      vertex 17.65 17.5 10.5833
      vertex 18.5126 2.5 11.21
      vertex 18.5126 17.5 11.21
    endloop
  endfacet
  facet normal -0.587785 0 0.809017
    outer loop
      vertex 18.5126 2.5 11.21
      vertex 17.65 17.5 10.5833
      vertex 17.65 2.5 10.5833
    endloop
  endfacet
  facet normal -0.406737 0 0.913545
    outer loop
      vertex 16.676 17.5 10.1496
      vertex 17.65 2.5 10.5833
      vertex 17.65 17.5 10.5833
    endloop
  endfacet
  facet normal -0.406737 0 0.913545
    outer loop
      vertex 17.65 2.5 10.5833
      vertex 16.676 17.5 10.1496
      vertex 16.676 2.5 10.1496
    endloop
  endfacet
  facet normal -0.207912 0 0.978148
    outer loop
      vertex 15.6331 17.5 9.92794
      vertex 16.676 2.5 10.1496
      vertex 16.676 17.5 10.1496
    endloop
  endfacet
  facet normal -0.207912 0 0.978148
    outer loop
      vertex 16.676 2.5 10.1496
      vertex 15.6331 17.5 9.92794
      vertex 15.6331 2.5 9.92794
    endloop
  endfacet
  facet normal -0.951056 0 0.309018
    outer loop
      vertex 19.7591 2.5 12.9256
      vertex 20.0886 17.5 13.9396
      vertex 19.7591 17.5 12.9256
    endloop
  endfacet
  facet normal -0.951056 0 0.309018
    outer loop
      vertex 20.0886 17.5 13.9396
      vertex 19.7591 2.5 12.9256
      vertex 20.0886 2.5 13.9396
    endloop
  endfacet
  facet normal -1 0 0
    outer loop
      vertex 15.1 2.5 7.5
      vertex 15.1 17.5 9.92794
      vertex 15.1 17.5 7.5
    endloop
  endfacet
  facet normal -1 -0 0
    outer loop
      vertex 15.1 17.5 9.92794
      vertex 15.1 2.5 7.5
      vertex 15.1 2.5 9.92794
    endloop
  endfacet
  facet normal 1 -0 0
    outer loop
      vertex 10 2.5 15
      vertex 10 17.5 7.5
      vertex 10 17.5 15
    endloop
  endfacet
  facet normal 1 0 0
    outer loop
      vertex 10 17.5 7.5
      vertex 10 2.5 15
      vertex 10 2.5 7.5
    endloop
  endfacet
endsolid OpenSCAD_Model
