solid OpenSCAD_Model
  facet normal 0.994522 -0 0.104528
    outer loop
      vertex -10.1093 0.000143051 16.0396
      vertex -10 150 15
      vertex -10.1093 150 16.0396
    endloop
  endfacet
  facet normal 0.994522 0 0.104528
    outer loop
      vertex -10 150 15
      vertex -10.1093 0.000143051 16.0396
      vertex -10 0 15
    endloop
  endfacet
  facet normal 0 1 0
    outer loop
      vertex 15 150 15
      vertex 15.5226 150 19.9726
      vertex 16.5451 150 19.7553
    endloop
  endfacet
  facet normal 0 1 0
    outer loop
      vertex 15.5226 150 19.9726
      vertex 15 150 15
      vertex 14.4774 150 19.9726
    endloop
  endfacet
  facet normal 0 1 0
    outer loop
      vertex 15 150 15
      vertex 16.5451 150 19.7553
      vertex 17.5 150 19.3301
    endloop
  endfacet
  facet normal 0 1 0
    outer loop
      vertex 14.4774 150 19.9726
      vertex 15 150 15
      vertex 13.4549 150 19.7553
    endloop
  endfacet
  facet normal 0 1 0
    outer loop
      vertex 15 150 15
      vertex 17.5 150 19.3301
      vertex 18.3457 150 18.7157
    endloop
  endfacet
  facet normal 0 1 0
    outer loop
      vertex 13.4549 150 19.7553
      vertex 15 150 15
      vertex 12.5 150 19.3301
    endloop
  endfacet
  facet normal 0 1 0
    outer loop
      vertex 15 150 15
      vertex 18.3457 150 18.7157
      vertex 19.0451 150 17.9389
    endloop
  endfacet
  facet normal 0 1 0
    outer loop
      vertex 12.5 150 19.3301
      vertex 15 150 15
      vertex 11.6543 150 18.7157
    endloop
  endfacet
  facet normal 0 1 0
    outer loop
      vertex 15 150 15
      vertex 19.0451 150 17.9389
      vertex 19.5677 150 17.0337
    endloop
  endfacet
  facet normal 0 1 0
    outer loop
      vertex 11.6543 150 18.7157
      vertex 15 150 15
      vertex 10.9549 150 17.9389
    endloop
  endfacet
  facet normal 0 1 0
    outer loop
      vertex 15 150 15
      vertex 19.5677 150 17.0337
      vertex 19.8907 150 16.0396
    endloop
  endfacet
  facet normal 0 1 0
    outer loop
      vertex 10.9549 150 17.9389
      vertex 15 150 15
      vertex 10.4323 150 17.0337
    endloop
  endfacet
  facet normal 0 1 0
    outer loop
      vertex 15 150 15
      vertex 19.8907 150 16.0396
      vertex 20 150 15
    endloop
  endfacet
  facet normal 0 1 0
    outer loop
      vertex 10.4323 150 17.0337
      vertex 15 150 15
      vertex 10.1093 150 16.0396
    endloop
  endfacet
  facet normal 0 1 0
    outer loop
      vertex 15 150 15
      vertex 10 150 15
      vertex 10.1093 150 16.0396
    endloop
  endfacet
  facet normal 0 1 0
    outer loop
      vertex 15 150 15
      vertex 10 150 5
      vertex 10 150 15
    endloop
  endfacet
  facet normal 0 1 0
    outer loop
      vertex 10 150 5
      vertex 15 150 0
      vertex -10 150 5
    endloop
  endfacet
  facet normal 0 1 -0
    outer loop
      vertex 15 150 0
      vertex 10 150 5
      vertex 15 150 15
    endloop
  endfacet
  facet normal 0 1 -0
    outer loop
      vertex -10 150 5
      vertex -15 150 15
      vertex -10 150 15
    endloop
  endfacet
  facet normal 0 1 0
    outer loop
      vertex -10 150 5
      vertex -15 150 0
      vertex -15 150 15
    endloop
  endfacet
  facet normal 0 1 0
    outer loop
      vertex -15 150 0
      vertex -10 150 5
      vertex 15 150 0
    endloop
  endfacet
  facet normal 0 1 0
    outer loop
      vertex -15 150 15
      vertex -14.4774 150 19.9726
      vertex -13.4549 150 19.7553
    endloop
  endfacet
  facet normal 0 1 0
    outer loop
      vertex -14.4774 150 19.9726
      vertex -15 150 15
      vertex -15.5226 150 19.9726
    endloop
  endfacet
  facet normal 0 1 0
    outer loop
      vertex -15 150 15
      vertex -13.4549 150 19.7553
      vertex -12.5 150 19.3301
    endloop
  endfacet
  facet normal 0 1 0
    outer loop
      vertex -15.5226 150 19.9726
      vertex -15 150 15
      vertex -16.5451 150 19.7553
    endloop
  endfacet
  facet normal 0 1 0
    outer loop
      vertex -15 150 15
      vertex -12.5 150 19.3301
      vertex -11.6543 150 18.7157
    endloop
  endfacet
  facet normal 0 1 0
    outer loop
      vertex -16.5451 150 19.7553
      vertex -15 150 15
      vertex -17.5 150 19.3301
    endloop
  endfacet
  facet normal 0 1 0
    outer loop
      vertex -15 150 15
      vertex -11.6543 150 18.7157
      vertex -10.9549 150 17.9389
    endloop
  endfacet
  facet normal 0 1 0
    outer loop
      vertex -17.5 150 19.3301
      vertex -15 150 15
      vertex -18.3457 150 18.7157
    endloop
  endfacet
  facet normal 0 1 0
    outer loop
      vertex -15 150 15
      vertex -10.9549 150 17.9389
      vertex -10.4323 150 17.0337
    endloop
  endfacet
  facet normal 0 1 0
    outer loop
      vertex -18.3457 150 18.7157
      vertex -15 150 15
      vertex -19.0451 150 17.9389
    endloop
  endfacet
  facet normal 0 1 0
    outer loop
      vertex -15 150 15
      vertex -10.4323 150 17.0337
      vertex -10.1093 150 16.0396
    endloop
  endfacet
  facet normal 0 1 0
    outer loop
      vertex -19.0451 150 17.9389
      vertex -15 150 15
      vertex -19.5677 150 17.0337
    endloop
  endfacet
  facet normal 0 1 0
    outer loop
      vertex -15 150 15
      vertex -10.1093 150 16.0396
      vertex -10 150 15
    endloop
  endfacet
  facet normal 0 1 0
    outer loop
      vertex -19.5677 150 17.0337
      vertex -15 150 15
      vertex -19.8907 150 16.0396
    endloop
  endfacet
  facet normal 0 1 0
    outer loop
      vertex -19.8907 150 16.0396
      vertex -15 150 15
      vertex -20 150 15
    endloop
  endfacet
  facet normal 0.951057 -0 0.309017
    outer loop
      vertex -10.4323 0.000143051 17.0337
      vertex -10.1093 150 16.0396
      vertex -10.4323 150 17.0337
    endloop
  endfacet
  facet normal 0.951057 0 0.309017
    outer loop
      vertex -10.1093 150 16.0396
      vertex -10.4323 0.000143051 17.0337
      vertex -10.1093 0.000143051 16.0396
    endloop
  endfacet
  facet normal -0.994522 0 0.104529
    outer loop
      vertex -20 150 15
      vertex -19.8907 0.000143051 16.0396
      vertex -19.8907 150 16.0396
    endloop
  endfacet
  facet normal -0.994522 0 0.104529
    outer loop
      vertex -19.8907 0.000143051 16.0396
      vertex -20 150 15
      vertex -20 0 15
    endloop
  endfacet
  facet normal 0 -1 0
    outer loop
      vertex -19.8907 0 13.9604
      vertex -10 0 15
      vertex -20 0 15
    endloop
  endfacet
  facet normal 0 -1 0
    outer loop
      vertex -19.5677 0 12.9663
      vertex -10 0 15
      vertex -19.8907 0 13.9604
    endloop
  endfacet
  facet normal 0 -1 0
    outer loop
      vertex -19.0451 0 12.0611
      vertex -10 0 15
      vertex -19.5677 0 12.9663
    endloop
  endfacet
  facet normal 0 -1 0
    outer loop
      vertex -18.3457 0 11.2843
      vertex -10 0 15
      vertex -19.0451 0 12.0611
    endloop
  endfacet
  facet normal 0 -1 0
    outer loop
      vertex -15 0 10.0274
      vertex -18.3457 0 11.2843
      vertex -17.5 0 10.6699
    endloop
  endfacet
  facet normal 0 -1 0
    outer loop
      vertex -15 0 10.0274
      vertex -17.5 0 10.6699
      vertex -16.5451 0 10.2447
    endloop
  endfacet
  facet normal 0 -1 0
    outer loop
      vertex -15 0 10.0274
      vertex -16.5451 0 10.2447
      vertex -15.5226 0 10.0274
    endloop
  endfacet
  facet normal 0 -1 0
    outer loop
      vertex -18.3457 0 11.2843
      vertex -15 0 10.0274
      vertex -10 0 15
    endloop
  endfacet
  facet normal 0 -1 0
    outer loop
      vertex -15 0 10.0274
      vertex -10 0 5
      vertex -10 0 15
    endloop
  endfacet
  facet normal 0 -1 -0
    outer loop
      vertex -10 0 5
      vertex -15 0 0
      vertex 10 0 5
    endloop
  endfacet
  facet normal 0 -1 0
    outer loop
      vertex -15 0 0
      vertex -10 0 5
      vertex -15 0 10.0274
    endloop
  endfacet
  facet normal 0 -1 0
    outer loop
      vertex 10 0 15
      vertex 19.8907 0 13.9604
      vertex 20 0 15
    endloop
  endfacet
  facet normal 0 -1 0
    outer loop
      vertex 10 0 15
      vertex 19.5677 0 12.9663
      vertex 19.8907 0 13.9604
    endloop
  endfacet
  facet normal 0 -1 0
    outer loop
      vertex 10 0 15
      vertex 19.0451 0 12.0611
      vertex 19.5677 0 12.9663
    endloop
  endfacet
  facet normal 0 -1 0
    outer loop
      vertex 10 0 15
      vertex 18.3457 0 11.2843
      vertex 19.0451 0 12.0611
    endloop
  endfacet
  facet normal 0 -1 0
    outer loop
      vertex 15 0 10.0274
      vertex 18.3457 0 11.2843
      vertex 10 0 15
    endloop
  endfacet
  facet normal 0 -1 0
    outer loop
      vertex 18.3457 0 11.2843
      vertex 15 0 10.0274
      vertex 17.5 0 10.6699
    endloop
  endfacet
  facet normal 0 -1 0
    outer loop
      vertex 17.5 0 10.6699
      vertex 15 0 10.0274
      vertex 16.5451 0 10.2447
    endloop
  endfacet
  facet normal 0 -1 0
    outer loop
      vertex 10 0 5
      vertex 15 0 10.0274
      vertex 10 0 15
    endloop
  endfacet
  facet normal 0 -1 0
    outer loop
      vertex 10 0 5
      vertex 15 0 0
      vertex 15 0 10.0274
    endloop
  endfacet
  facet normal 0 -1 0
    outer loop
      vertex 15 0 0
      vertex 10 0 5
      vertex -15 0 0
    endloop
  endfacet
  facet normal 0 -1 0
    outer loop
      vertex 16.5451 0 10.2447
      vertex 15 0 10.0274
      vertex 15.5226 0 10.0274
    endloop
  endfacet
  facet normal -0 0 1
    outer loop
      vertex -15.5226 150 19.9726
      vertex -14.4774 0.000143051 19.9726
      vertex -14.4774 150 19.9726
    endloop
  endfacet
  facet normal 0 0 1
    outer loop
      vertex -14.4774 0.000143051 19.9726
      vertex -15.5226 150 19.9726
      vertex -15.5226 0.000143051 19.9726
    endloop
  endfacet
  facet normal 0 1 -2.76171e-005
    outer loop
      vertex -15.5226 150 10.0274
      vertex -15 150 15
      vertex -15 150 10.0274
    endloop
  endfacet
  facet normal 0 1 -2.76171e-005
    outer loop
      vertex -15 150 15
      vertex -15.5226 150 10.0274
      vertex -20 150 15
    endloop
  endfacet
  facet normal -7.56199e-006 -1 3.55767e-005
    outer loop
      vertex -16.5451 0.000143051 19.7553
      vertex -20 0 15
      vertex -15.5226 0.000143051 19.9726
    endloop
  endfacet
  facet normal 0 -1 2.87678e-005
    outer loop
      vertex -20 0 15
      vertex -14.4774 0.000143051 19.9726
      vertex -15.5226 0.000143051 19.9726
    endloop
  endfacet
  facet normal 0 -1 2.87678e-005
    outer loop
      vertex -14.4774 0.000143051 19.9726
      vertex -20 0 15
      vertex -10 0 15
    endloop
  endfacet
  facet normal 0.587785 0 0.809017
    outer loop
      vertex -12.5 150 19.3301
      vertex -11.6543 0.000143051 18.7157
      vertex -11.6543 150 18.7157
    endloop
  endfacet
  facet normal 0.587785 0 0.809017
    outer loop
      vertex -11.6543 0.000143051 18.7157
      vertex -12.5 150 19.3301
      vertex -12.5 0.000143051 19.3301
    endloop
  endfacet
  facet normal 1.97978e-005 -1 4.44665e-005
    outer loop
      vertex -12.5 0.000143051 19.3301
      vertex -13.4549 0.000143051 19.7553
      vertex -10 0 15
    endloop
  endfacet
  facet normal 0.866025 -0 0.5
    outer loop
      vertex -10.9549 0.000143051 17.9389
      vertex -10.4323 150 17.0337
      vertex -10.9549 150 17.9389
    endloop
  endfacet
  facet normal 0.866025 0 0.5
    outer loop
      vertex -10.4323 150 17.0337
      vertex -10.9549 0.000143051 17.9389
      vertex -10.4323 0.000143051 17.0337
    endloop
  endfacet
  facet normal -0.587785 0 0.809017
    outer loop
      vertex -18.3457 150 18.7157
      vertex -17.5 0.000143051 19.3301
      vertex -17.5 150 19.3301
    endloop
  endfacet
  facet normal -0.587785 0 0.809017
    outer loop
      vertex -17.5 0.000143051 19.3301
      vertex -18.3457 150 18.7157
      vertex -18.3457 0.000143051 18.7157
    endloop
  endfacet
  facet normal -8.45802e-005 -1 7.61564e-005
    outer loop
      vertex -19.0451 0.000143051 17.9389
      vertex -20 0 15
      vertex -18.3457 0.000143051 18.7157
    endloop
  endfacet
  facet normal -0.20791 0 0.978148
    outer loop
      vertex -16.5451 150 19.7553
      vertex -15.5226 0.000143051 19.9726
      vertex -15.5226 150 19.9726
    endloop
  endfacet
  facet normal -0.20791 0 0.978148
    outer loop
      vertex -15.5226 0.000143051 19.9726
      vertex -16.5451 150 19.7553
      vertex -16.5451 0.000143051 19.7553
    endloop
  endfacet
  facet normal -8.1197e-005 1 -7.31101e-005
    outer loop
      vertex -19.0451 150 12.0611
      vertex -20 150 15
      vertex -18.3457 150 11.2843
    endloop
  endfacet
  facet normal 8.45802e-005 -1 7.61564e-005
    outer loop
      vertex -10.9549 0.000143051 17.9389
      vertex -11.6543 0.000143051 18.7157
      vertex -10 0 15
    endloop
  endfacet
  facet normal 0.743145 -0 0.669131
    outer loop
      vertex -11.6543 0.000143051 18.7157
      vertex -10.9549 150 17.9389
      vertex -11.6543 150 18.7157
    endloop
  endfacet
  facet normal 0.743145 0 0.669131
    outer loop
      vertex -10.9549 150 17.9389
      vertex -11.6543 0.000143051 18.7157
      vertex -10.9549 0.000143051 17.9389
    endloop
  endfacet
  facet normal 0.406737 0 0.913545
    outer loop
      vertex -13.4549 150 19.7553
      vertex -12.5 0.000143051 19.3301
      vertex -12.5 150 19.3301
    endloop
  endfacet
  facet normal 0.406737 0 0.913545
    outer loop
      vertex -12.5 0.000143051 19.3301
      vertex -13.4549 150 19.7553
      vertex -13.4549 0.000143051 19.7553
    endloop
  endfacet
  facet normal 7.562e-006 -1 3.55767e-005
    outer loop
      vertex -13.4549 0.000143051 19.7553
      vertex -14.4774 0.000143051 19.9726
      vertex -10 0 15
    endloop
  endfacet
  facet normal 0.20791 0 0.978148
    outer loop
      vertex -14.4774 150 19.9726
      vertex -13.4549 0.000143051 19.7553
      vertex -13.4549 150 19.7553
    endloop
  endfacet
  facet normal 0.20791 0 0.978148
    outer loop
      vertex -13.4549 0.000143051 19.7553
      vertex -14.4774 150 19.9726
      vertex -14.4774 0.000143051 19.9726
    endloop
  endfacet
  facet normal -0.866026 0 0.499999
    outer loop
      vertex -19.5677 0.000143051 17.0337
      vertex -19.0451 150 17.9389
      vertex -19.5677 150 17.0337
    endloop
  endfacet
  facet normal -0.866026 0 0.499999
    outer loop
      vertex -19.0451 150 17.9389
      vertex -19.5677 0.000143051 17.0337
      vertex -19.0451 0.000143051 17.9389
    endloop
  endfacet
  facet normal -1.97978e-005 -1 4.44665e-005
    outer loop
      vertex -17.5 0.000143051 19.3301
      vertex -20 0 15
      vertex -16.5451 0.000143051 19.7553
    endloop
  endfacet
  facet normal -0.406737 0 0.913545
    outer loop
      vertex -17.5 150 19.3301
      vertex -16.5451 0.000143051 19.7553
      vertex -16.5451 150 19.7553
    endloop
  endfacet
  facet normal -0.406737 0 0.913545
    outer loop
      vertex -16.5451 0.000143051 19.7553
      vertex -17.5 150 19.3301
      vertex -17.5 0.000143051 19.3301
    endloop
  endfacet
  facet normal -0.743145 0 0.669131
    outer loop
      vertex -19.0451 0.000143051 17.9389
      vertex -18.3457 150 18.7157
      vertex -19.0451 150 17.9389
    endloop
  endfacet
  facet normal -0.743145 0 0.669131
    outer loop
      vertex -18.3457 150 18.7157
      vertex -19.0451 0.000143051 17.9389
      vertex -18.3457 0.000143051 18.7157
    endloop
  endfacet
  facet normal -0.000626014 -1 0.000203405
    outer loop
      vertex -19.8907 0.000143051 16.0396
      vertex -20 0 15
      vertex -19.5677 0.000143051 17.0337
    endloop
  endfacet
  facet normal -0.000600972 1 -0.000195268
    outer loop
      vertex -19.8907 150 13.9604
      vertex -20 150 15
      vertex -19.5677 150 12.9663
    endloop
  endfacet
  facet normal 0.000192824 -1 0.000111327
    outer loop
      vertex -10.4323 0.000143051 17.0337
      vertex -10.9549 0.000143051 17.9389
      vertex -10 0 15
    endloop
  endfacet
  facet normal 0.000626014 -1 0.000203404
    outer loop
      vertex -10.1093 0.000143051 16.0396
      vertex -10.4323 0.000143051 17.0337
      vertex -10 0 15
    endloop
  endfacet
  facet normal 4.13454e-005 -1 5.6907e-005
    outer loop
      vertex -11.6543 0.000143051 18.7157
      vertex -12.5 0.000143051 19.3301
      vertex -10 0 15
    endloop
  endfacet
  facet normal -0.000192825 -1 0.000111327
    outer loop
      vertex -19.5677 0.000143051 17.0337
      vertex -20 0 15
      vertex -19.0451 0.000143051 17.9389
    endloop
  endfacet
  facet normal -0.951056 0 0.309017
    outer loop
      vertex -19.8907 0.000143051 16.0396
      vertex -19.5677 150 17.0337
      vertex -19.8907 150 16.0396
    endloop
  endfacet
  facet normal -0.951056 0 0.309017
    outer loop
      vertex -19.5677 150 17.0337
      vertex -19.8907 0.000143051 16.0396
      vertex -19.5677 0.000143051 17.0337
    endloop
  endfacet
  facet normal -4.13453e-005 -1 5.6907e-005
    outer loop
      vertex -18.3457 0.000143051 18.7157
      vertex -20 0 15
      vertex -17.5 0.000143051 19.3301
    endloop
  endfacet
  facet normal -0.743145 0 -0.669131
    outer loop
      vertex -18.3457 0 11.2843
      vertex -19.0451 150 12.0611
      vertex -18.3457 150 11.2843
    endloop
  endfacet
  facet normal -0.743145 -0 -0.669131
    outer loop
      vertex -19.0451 150 12.0611
      vertex -18.3457 0 11.2843
      vertex -19.0451 0 12.0611
    endloop
  endfacet
  facet normal -0.866026 0 -0.499999
    outer loop
      vertex -19.0451 0 12.0611
      vertex -19.5677 150 12.9663
      vertex -19.0451 150 12.0611
    endloop
  endfacet
  facet normal -0.866026 -0 -0.499999
    outer loop
      vertex -19.5677 150 12.9663
      vertex -19.0451 0 12.0611
      vertex -19.5677 0 12.9663
    endloop
  endfacet
  facet normal -0.951056 0 -0.309018
    outer loop
      vertex -19.5677 0 12.9663
      vertex -19.8907 150 13.9604
      vertex -19.5677 150 12.9663
    endloop
  endfacet
  facet normal -0.951056 -0 -0.309018
    outer loop
      vertex -19.8907 150 13.9604
      vertex -19.5677 0 12.9663
      vertex -19.8907 0 13.9604
    endloop
  endfacet
  facet normal -0.994522 0 -0.104529
    outer loop
      vertex -19.8907 0 13.9604
      vertex -20 150 15
      vertex -19.8907 150 13.9604
    endloop
  endfacet
  facet normal -0.994522 -0 -0.104529
    outer loop
      vertex -20 150 15
      vertex -19.8907 0 13.9604
      vertex -20 0 15
    endloop
  endfacet
  facet normal 0 0 -1
    outer loop
      vertex -15.5226 0 10.0274
      vertex -15 150 10.0274
      vertex -15 0 10.0274
    endloop
  endfacet
  facet normal -0 0 -1
    outer loop
      vertex -15 150 10.0274
      vertex -15.5226 0 10.0274
      vertex -15.5226 150 10.0274
    endloop
  endfacet
  facet normal -7.25955e-006 1 -3.41536e-005
    outer loop
      vertex -16.5451 150 10.2447
      vertex -20 150 15
      vertex -15.5226 150 10.0274
    endloop
  endfacet
  facet normal -1.90059e-005 1 -4.26878e-005
    outer loop
      vertex -17.5 150 10.6699
      vertex -20 150 15
      vertex -16.5451 150 10.2447
    endloop
  endfacet
  facet normal -0.000185112 1 -0.000106874
    outer loop
      vertex -19.5677 150 12.9663
      vertex -20 150 15
      vertex -19.0451 150 12.0611
    endloop
  endfacet
  facet normal -0.587785 0 -0.809017
    outer loop
      vertex -18.3457 0 11.2843
      vertex -17.5 150 10.6699
      vertex -17.5 0 10.6699
    endloop
  endfacet
  facet normal -0.587785 0 -0.809017
    outer loop
      vertex -17.5 150 10.6699
      vertex -18.3457 0 11.2843
      vertex -18.3457 150 11.2843
    endloop
  endfacet
  facet normal -3.96915e-005 1 -5.46307e-005
    outer loop
      vertex -18.3457 150 11.2843
      vertex -20 150 15
      vertex -17.5 150 10.6699
    endloop
  endfacet
  facet normal -0.406737 0 -0.913545
    outer loop
      vertex -17.5 0 10.6699
      vertex -16.5451 150 10.2447
      vertex -16.5451 0 10.2447
    endloop
  endfacet
  facet normal -0.406737 0 -0.913545
    outer loop
      vertex -16.5451 150 10.2447
      vertex -17.5 0 10.6699
      vertex -17.5 150 10.6699
    endloop
  endfacet
  facet normal -0.207911 0 -0.978148
    outer loop
      vertex -16.5451 0 10.2447
      vertex -15.5226 150 10.0274
      vertex -15.5226 0 10.0274
    endloop
  endfacet
  facet normal -0.207911 0 -0.978148
    outer loop
      vertex -15.5226 150 10.0274
      vertex -16.5451 0 10.2447
      vertex -16.5451 150 10.2447
    endloop
  endfacet
  facet normal -1 0 0
    outer loop
      vertex -15 150 0
      vertex -15 150 10.0274
      vertex -15 150 15
    endloop
  endfacet
  facet normal -1 0 0
    outer loop
      vertex -15 0 0
      vertex -15 150 10.0274
      vertex -15 150 0
    endloop
  endfacet
  facet normal -1 -0 0
    outer loop
      vertex -15 150 10.0274
      vertex -15 0 0
      vertex -15 0 10.0274
    endloop
  endfacet
  facet normal 1 0 0
    outer loop
      vertex -10 150 15
      vertex -10 145 5
      vertex -10 150 5
    endloop
  endfacet
  facet normal 1 0 0
    outer loop
      vertex -10 145 5
      vertex -10 111.55 5
      vertex -10 145 0
    endloop
  endfacet
  facet normal 1 0 0
    outer loop
      vertex -10 150 15
      vertex -10 111.55 5
      vertex -10 145 5
    endloop
  endfacet
  facet normal 1 0 0
    outer loop
      vertex -10 150 15
      vertex -10 106.55 5
      vertex -10 111.55 5
    endloop
  endfacet
  facet normal 1 0 0
    outer loop
      vertex -10 106.55 5
      vertex -10 77.5 5
      vertex -10 106.55 0
    endloop
  endfacet
  facet normal 1 0 0
    outer loop
      vertex -10 150 15
      vertex -10 77.5 5
      vertex -10 106.55 5
    endloop
  endfacet
  facet normal 1 0 0
    outer loop
      vertex -10 150 15
      vertex -10 72.5 5
      vertex -10 77.5 5
    endloop
  endfacet
  facet normal 1 0 0
    outer loop
      vertex -10 72.5 5
      vertex -10 39.05 5
      vertex -10 72.5 0
    endloop
  endfacet
  facet normal 1 -0 0
    outer loop
      vertex -10 0 15
      vertex -10 72.5 5
      vertex -10 150 15
    endloop
  endfacet
  facet normal 1 0 0
    outer loop
      vertex -10 72.5 5
      vertex -10 0 15
      vertex -10 39.05 5
    endloop
  endfacet
  facet normal 1 0 0
    outer loop
      vertex -10 34.05 5
      vertex -10 5 5
      vertex -10 34.05 0
    endloop
  endfacet
  facet normal 1 0 0
    outer loop
      vertex -10 39.05 5
      vertex -10 0 15
      vertex -10 34.05 5
    endloop
  endfacet
  facet normal 1 0 0
    outer loop
      vertex -10 34.05 5
      vertex -10 0 15
      vertex -10 5 5
    endloop
  endfacet
  facet normal 1 0 0
    outer loop
      vertex -10 5 5
      vertex -10 0 15
      vertex -10 0 5
    endloop
  endfacet
  facet normal 1 0 0
    outer loop
      vertex -10 145 0
      vertex -10 111.55 5
      vertex -10 111.55 0
    endloop
  endfacet
  facet normal 1 0 0
    outer loop
      vertex -10 106.55 0
      vertex -10 77.5 5
      vertex -10 77.5 0
    endloop
  endfacet
  facet normal 1 0 0
    outer loop
      vertex -10 72.5 0
      vertex -10 39.05 5
      vertex -10 39.05 0
    endloop
  endfacet
  facet normal 1 0 0
    outer loop
      vertex -10 34.05 0
      vertex -10 5 5
      vertex -10 5 0
    endloop
  endfacet
  facet normal 0 0 -1
    outer loop
      vertex -10 106.55 0
      vertex 10 111.55 0
      vertex 10 106.55 0
    endloop
  endfacet
  facet normal -0 0 -1
    outer loop
      vertex 10 111.55 0
      vertex -10 106.55 0
      vertex -10 111.55 0
    endloop
  endfacet
  facet normal 0 0 -1
    outer loop
      vertex -10 72.5 0
      vertex 10 77.5 0
      vertex 10 72.5 0
    endloop
  endfacet
  facet normal -0 0 -1
    outer loop
      vertex 10 77.5 0
      vertex -10 72.5 0
      vertex -10 77.5 0
    endloop
  endfacet
  facet normal 0 0 -1
    outer loop
      vertex -10 34.05 0
      vertex 10 39.05 0
      vertex 10 34.05 0
    endloop
  endfacet
  facet normal -0 0 -1
    outer loop
      vertex 10 39.05 0
      vertex -10 34.05 0
      vertex -10 39.05 0
    endloop
  endfacet
  facet normal 0 0 -1
    outer loop
      vertex 10 34.05 0
      vertex 15 0 0
      vertex 10 5 0
    endloop
  endfacet
  facet normal 0 0 -1
    outer loop
      vertex 15 0 0
      vertex -10 5 0
      vertex 10 5 0
    endloop
  endfacet
  facet normal 0 0 -1
    outer loop
      vertex -15 0 0
      vertex -10 34.05 0
      vertex -10 5 0
    endloop
  endfacet
  facet normal -0 0 -1
    outer loop
      vertex -10 34.05 0
      vertex -15 0 0
      vertex -10 39.05 0
    endloop
  endfacet
  facet normal -0 0 -1
    outer loop
      vertex -10 39.05 0
      vertex -15 0 0
      vertex -10 72.5 0
    endloop
  endfacet
  facet normal -0 0 -1
    outer loop
      vertex -10 72.5 0
      vertex -15 0 0
      vertex -10 77.5 0
    endloop
  endfacet
  facet normal 0 0 -1
    outer loop
      vertex -15 150 0
      vertex -10 77.5 0
      vertex -15 0 0
    endloop
  endfacet
  facet normal 0 0 -1
    outer loop
      vertex -10 77.5 0
      vertex -15 150 0
      vertex -10 106.55 0
    endloop
  endfacet
  facet normal 0 0 -1
    outer loop
      vertex -10 106.55 0
      vertex -15 150 0
      vertex -10 111.55 0
    endloop
  endfacet
  facet normal 0 0 -1
    outer loop
      vertex -15 0 0
      vertex -10 5 0
      vertex 15 0 0
    endloop
  endfacet
  facet normal 0 0 -1
    outer loop
      vertex 10 39.05 0
      vertex 15 0 0
      vertex 10 34.05 0
    endloop
  endfacet
  facet normal 0 0 -1
    outer loop
      vertex 10 72.5 0
      vertex 15 0 0
      vertex 10 39.05 0
    endloop
  endfacet
  facet normal 0 0 -1
    outer loop
      vertex 15 0 0
      vertex 10 72.5 0
      vertex 15 150 0
    endloop
  endfacet
  facet normal 0 0 -1
    outer loop
      vertex 10 77.5 0
      vertex 15 150 0
      vertex 10 72.5 0
    endloop
  endfacet
  facet normal 0 0 -1
    outer loop
      vertex 10 106.55 0
      vertex 15 150 0
      vertex 10 77.5 0
    endloop
  endfacet
  facet normal 0 0 -1
    outer loop
      vertex 10 111.55 0
      vertex 15 150 0
      vertex 10 106.55 0
    endloop
  endfacet
  facet normal 0 0 -1
    outer loop
      vertex 10 145 0
      vertex 15 150 0
      vertex 10 111.55 0
    endloop
  endfacet
  facet normal 0 0 -1
    outer loop
      vertex -10 145 0
      vertex 15 150 0
      vertex 10 145 0
    endloop
  endfacet
  facet normal 0 0 -1
    outer loop
      vertex -10 145 0
      vertex -15 150 0
      vertex 15 150 0
    endloop
  endfacet
  facet normal 0 0 -1
    outer loop
      vertex -10 111.55 0
      vertex -15 150 0
      vertex -10 145 0
    endloop
  endfacet
  facet normal -0.994522 0 0.104528
    outer loop
      vertex 10 150 15
      vertex 10.1093 0.000143051 16.0396
      vertex 10.1093 150 16.0396
    endloop
  endfacet
  facet normal -0.994522 0 0.104528
    outer loop
      vertex 10.1093 0.000143051 16.0396
      vertex 10 150 15
      vertex 10 0 15
    endloop
  endfacet
  facet normal -0.951057 0 0.309017
    outer loop
      vertex 10.1093 0.000143051 16.0396
      vertex 10.4323 150 17.0337
      vertex 10.1093 150 16.0396
    endloop
  endfacet
  facet normal -0.951057 0 0.309017
    outer loop
      vertex 10.4323 150 17.0337
      vertex 10.1093 0.000143051 16.0396
      vertex 10.4323 0.000143051 17.0337
    endloop
  endfacet
  facet normal 0.994522 -0 0.104529
    outer loop
      vertex 19.8907 0.000143051 16.0396
      vertex 20 150 15
      vertex 19.8907 150 16.0396
    endloop
  endfacet
  facet normal 0.994522 0 0.104529
    outer loop
      vertex 20 150 15
      vertex 19.8907 0.000143051 16.0396
      vertex 20 0 15
    endloop
  endfacet
  facet normal -0 0 1
    outer loop
      vertex 14.4774 150 19.9726
      vertex 15.5226 0.000143051 19.9726
      vertex 15.5226 150 19.9726
    endloop
  endfacet
  facet normal 0 0 1
    outer loop
      vertex 15.5226 0.000143051 19.9726
      vertex 14.4774 150 19.9726
      vertex 14.4774 0.000143051 19.9726
    endloop
  endfacet
  facet normal 0 1 -2.76171e-005
    outer loop
      vertex 15.5226 150 10.0274
      vertex 15 150 15
      vertex 20 150 15
    endloop
  endfacet
  facet normal 0 1 -2.76171e-005
    outer loop
      vertex 15 150 15
      vertex 15.5226 150 10.0274
      vertex 15 150 10.0274
    endloop
  endfacet
  facet normal 7.56199e-006 -1 3.55767e-005
    outer loop
      vertex 20 0 15
      vertex 16.5451 0.000143051 19.7553
      vertex 15.5226 0.000143051 19.9726
    endloop
  endfacet
  facet normal 0 -1 2.87678e-005
    outer loop
      vertex 10 0 15
      vertex 15.5226 0.000143051 19.9726
      vertex 14.4774 0.000143051 19.9726
    endloop
  endfacet
  facet normal 0 -1 2.87678e-005
    outer loop
      vertex 15.5226 0.000143051 19.9726
      vertex 10 0 15
      vertex 20 0 15
    endloop
  endfacet
  facet normal -0.587785 0 0.809017
    outer loop
      vertex 11.6543 150 18.7157
      vertex 12.5 0.000143051 19.3301
      vertex 12.5 150 19.3301
    endloop
  endfacet
  facet normal -0.587785 0 0.809017
    outer loop
      vertex 12.5 0.000143051 19.3301
      vertex 11.6543 150 18.7157
      vertex 11.6543 0.000143051 18.7157
    endloop
  endfacet
  facet normal -1.97978e-005 -1 4.44665e-005
    outer loop
      vertex 13.4549 0.000143051 19.7553
      vertex 12.5 0.000143051 19.3301
      vertex 10 0 15
    endloop
  endfacet
  facet normal -0.866025 0 0.5
    outer loop
      vertex 10.4323 0.000143051 17.0337
      vertex 10.9549 150 17.9389
      vertex 10.4323 150 17.0337
    endloop
  endfacet
  facet normal -0.866025 0 0.5
    outer loop
      vertex 10.9549 150 17.9389
      vertex 10.4323 0.000143051 17.0337
      vertex 10.9549 0.000143051 17.9389
    endloop
  endfacet
  facet normal 0.587785 0 0.809017
    outer loop
      vertex 17.5 150 19.3301
      vertex 18.3457 0.000143051 18.7157
      vertex 18.3457 150 18.7157
    endloop
  endfacet
  facet normal 0.587785 0 0.809017
    outer loop
      vertex 18.3457 0.000143051 18.7157
      vertex 17.5 150 19.3301
      vertex 17.5 0.000143051 19.3301
    endloop
  endfacet
  facet normal 8.45802e-005 -1 7.61564e-005
    outer loop
      vertex 20 0 15
      vertex 19.0451 0.000143051 17.9389
      vertex 18.3457 0.000143051 18.7157
    endloop
  endfacet
  facet normal 0.20791 0 0.978148
    outer loop
      vertex 15.5226 150 19.9726
      vertex 16.5451 0.000143051 19.7553
      vertex 16.5451 150 19.7553
    endloop
  endfacet
  facet normal 0.20791 0 0.978148
    outer loop
      vertex 16.5451 0.000143051 19.7553
      vertex 15.5226 150 19.9726
      vertex 15.5226 0.000143051 19.9726
    endloop
  endfacet
  facet normal 8.1197e-005 1 -7.31101e-005
    outer loop
      vertex 20 150 15
      vertex 19.0451 150 12.0611
      vertex 18.3457 150 11.2843
    endloop
  endfacet
  facet normal -8.45802e-005 -1 7.61564e-005
    outer loop
      vertex 11.6543 0.000143051 18.7157
      vertex 10.9549 0.000143051 17.9389
      vertex 10 0 15
    endloop
  endfacet
  facet normal -0.743145 0 0.669131
    outer loop
      vertex 10.9549 0.000143051 17.9389
      vertex 11.6543 150 18.7157
      vertex 10.9549 150 17.9389
    endloop
  endfacet
  facet normal -0.743145 0 0.669131
    outer loop
      vertex 11.6543 150 18.7157
      vertex 10.9549 0.000143051 17.9389
      vertex 11.6543 0.000143051 18.7157
    endloop
  endfacet
  facet normal -0.406737 0 0.913545
    outer loop
      vertex 12.5 150 19.3301
      vertex 13.4549 0.000143051 19.7553
      vertex 13.4549 150 19.7553
    endloop
  endfacet
  facet normal -0.406737 0 0.913545
    outer loop
      vertex 13.4549 0.000143051 19.7553
      vertex 12.5 150 19.3301
      vertex 12.5 0.000143051 19.3301
    endloop
  endfacet
  facet normal -7.562e-006 -1 3.55767e-005
    outer loop
      vertex 14.4774 0.000143051 19.9726
      vertex 13.4549 0.000143051 19.7553
      vertex 10 0 15
    endloop
  endfacet
  facet normal -0.20791 0 0.978148
    outer loop
      vertex 13.4549 150 19.7553
      vertex 14.4774 0.000143051 19.9726
      vertex 14.4774 150 19.9726
    endloop
  endfacet
  facet normal -0.20791 0 0.978148
    outer loop
      vertex 14.4774 0.000143051 19.9726
      vertex 13.4549 150 19.7553
      vertex 13.4549 0.000143051 19.7553
    endloop
  endfacet
  facet normal 0.866026 -0 0.499999
    outer loop
      vertex 19.0451 0.000143051 17.9389
      vertex 19.5677 150 17.0337
      vertex 19.0451 150 17.9389
    endloop
  endfacet
  facet normal 0.866026 0 0.499999
    outer loop
      vertex 19.5677 150 17.0337
      vertex 19.0451 0.000143051 17.9389
      vertex 19.5677 0.000143051 17.0337
    endloop
  endfacet
  facet normal 1.97978e-005 -1 4.44665e-005
    outer loop
      vertex 20 0 15
      vertex 17.5 0.000143051 19.3301
      vertex 16.5451 0.000143051 19.7553
    endloop
  endfacet
  facet normal 0.406737 0 0.913545
    outer loop
      vertex 16.5451 150 19.7553
      vertex 17.5 0.000143051 19.3301
      vertex 17.5 150 19.3301
    endloop
  endfacet
  facet normal 0.406737 0 0.913545
    outer loop
      vertex 17.5 0.000143051 19.3301
      vertex 16.5451 150 19.7553
      vertex 16.5451 0.000143051 19.7553
    endloop
  endfacet
  facet normal 0.743145 -0 0.669131
    outer loop
      vertex 18.3457 0.000143051 18.7157
      vertex 19.0451 150 17.9389
      vertex 18.3457 150 18.7157
    endloop
  endfacet
  facet normal 0.743145 0 0.669131
    outer loop
      vertex 19.0451 150 17.9389
      vertex 18.3457 0.000143051 18.7157
      vertex 19.0451 0.000143051 17.9389
    endloop
  endfacet
  facet normal 0.000626014 -1 0.000203405
    outer loop
      vertex 20 0 15
      vertex 19.8907 0.000143051 16.0396
      vertex 19.5677 0.000143051 17.0337
    endloop
  endfacet
  facet normal 0.000600972 1 -0.000195268
    outer loop
      vertex 20 150 15
      vertex 19.8907 150 13.9604
      vertex 19.5677 150 12.9663
    endloop
  endfacet
  facet normal -0.000192824 -1 0.000111327
    outer loop
      vertex 10.9549 0.000143051 17.9389
      vertex 10.4323 0.000143051 17.0337
      vertex 10 0 15
    endloop
  endfacet
  facet normal -0.000626014 -1 0.000203404
    outer loop
      vertex 10.4323 0.000143051 17.0337
      vertex 10.1093 0.000143051 16.0396
      vertex 10 0 15
    endloop
  endfacet
  facet normal -4.13454e-005 -1 5.6907e-005
    outer loop
      vertex 12.5 0.000143051 19.3301
      vertex 11.6543 0.000143051 18.7157
      vertex 10 0 15
    endloop
  endfacet
  facet normal 0.000192825 -1 0.000111327
    outer loop
      vertex 20 0 15
      vertex 19.5677 0.000143051 17.0337
      vertex 19.0451 0.000143051 17.9389
    endloop
  endfacet
  facet normal 0.951056 -0 0.309017
    outer loop
      vertex 19.5677 0.000143051 17.0337
      vertex 19.8907 150 16.0396
      vertex 19.5677 150 17.0337
    endloop
  endfacet
  facet normal 0.951056 0 0.309017
    outer loop
      vertex 19.8907 150 16.0396
      vertex 19.5677 0.000143051 17.0337
      vertex 19.8907 0.000143051 16.0396
    endloop
  endfacet
  facet normal 4.13453e-005 -1 5.6907e-005
    outer loop
      vertex 20 0 15
      vertex 18.3457 0.000143051 18.7157
      vertex 17.5 0.000143051 19.3301
    endloop
  endfacet
  facet normal 0.743145 0 -0.669131
    outer loop
      vertex 19.0451 0 12.0611
      vertex 18.3457 150 11.2843
      vertex 19.0451 150 12.0611
    endloop
  endfacet
  facet normal 0.743145 0 -0.669131
    outer loop
      vertex 18.3457 150 11.2843
      vertex 19.0451 0 12.0611
      vertex 18.3457 0 11.2843
    endloop
  endfacet
  facet normal 0.866026 0 -0.499999
    outer loop
      vertex 19.5677 0 12.9663
      vertex 19.0451 150 12.0611
      vertex 19.5677 150 12.9663
    endloop
  endfacet
  facet normal 0.866026 0 -0.499999
    outer loop
      vertex 19.0451 150 12.0611
      vertex 19.5677 0 12.9663
      vertex 19.0451 0 12.0611
    endloop
  endfacet
  facet normal 0.951056 0 -0.309018
    outer loop
      vertex 19.8907 0 13.9604
      vertex 19.5677 150 12.9663
      vertex 19.8907 150 13.9604
    endloop
  endfacet
  facet normal 0.951056 0 -0.309018
    outer loop
      vertex 19.5677 150 12.9663
      vertex 19.8907 0 13.9604
      vertex 19.5677 0 12.9663
    endloop
  endfacet
  facet normal 0.994522 0 -0.104529
    outer loop
      vertex 20 0 15
      vertex 19.8907 150 13.9604
      vertex 20 150 15
    endloop
  endfacet
  facet normal 0.994522 0 -0.104529
    outer loop
      vertex 19.8907 150 13.9604
      vertex 20 0 15
      vertex 19.8907 0 13.9604
    endloop
  endfacet
  facet normal 0 0 -1
    outer loop
      vertex 15 0 10.0274
      vertex 15.5226 150 10.0274
      vertex 15.5226 0 10.0274
    endloop
  endfacet
  facet normal -0 0 -1
    outer loop
      vertex 15.5226 150 10.0274
      vertex 15 0 10.0274
      vertex 15 150 10.0274
    endloop
  endfacet
  facet normal 7.25955e-006 1 -3.41536e-005
    outer loop
      vertex 20 150 15
      vertex 16.5451 150 10.2447
      vertex 15.5226 150 10.0274
    endloop
  endfacet
  facet normal 1.90059e-005 1 -4.26878e-005
    outer loop
      vertex 20 150 15
      vertex 17.5 150 10.6699
      vertex 16.5451 150 10.2447
    endloop
  endfacet
  facet normal 0.000185112 1 -0.000106874
    outer loop
      vertex 20 150 15
      vertex 19.5677 150 12.9663
      vertex 19.0451 150 12.0611
    endloop
  endfacet
  facet normal 0.587785 0 -0.809017
    outer loop
      vertex 17.5 0 10.6699
      vertex 18.3457 150 11.2843
      vertex 18.3457 0 11.2843
    endloop
  endfacet
  facet normal 0.587785 0 -0.809017
    outer loop
      vertex 18.3457 150 11.2843
      vertex 17.5 0 10.6699
      vertex 17.5 150 10.6699
    endloop
  endfacet
  facet normal 3.96915e-005 1 -5.46307e-005
    outer loop
      vertex 20 150 15
      vertex 18.3457 150 11.2843
      vertex 17.5 150 10.6699
    endloop
  endfacet
  facet normal 0.406737 0 -0.913545
    outer loop
      vertex 16.5451 0 10.2447
      vertex 17.5 150 10.6699
      vertex 17.5 0 10.6699
    endloop
  endfacet
  facet normal 0.406737 0 -0.913545
    outer loop
      vertex 17.5 150 10.6699
      vertex 16.5451 0 10.2447
      vertex 16.5451 150 10.2447
    endloop
  endfacet
  facet normal 0.207911 0 -0.978148
    outer loop
      vertex 15.5226 0 10.0274
      vertex 16.5451 150 10.2447
      vertex 16.5451 0 10.2447
    endloop
  endfacet
  facet normal 0.207911 0 -0.978148
    outer loop
      vertex 16.5451 150 10.2447
      vertex 15.5226 0 10.0274
      vertex 15.5226 150 10.0274
    endloop
  endfacet
  facet normal 1 -0 0
    outer loop
      vertex 15 150 10.0274
      vertex 15 150 0
      vertex 15 150 15
    endloop
  endfacet
  facet normal 1 -0 0
    outer loop
      vertex 15 0 10.0274
      vertex 15 150 0
      vertex 15 150 10.0274
    endloop
  endfacet
  facet normal 1 0 0
    outer loop
      vertex 15 150 0
      vertex 15 0 10.0274
      vertex 15 0 0
    endloop
  endfacet
  facet normal -1 0 0
    outer loop
      vertex 10 34.05 0
      vertex 10 5 0
      vertex 10 34.05 5
    endloop
  endfacet
  facet normal -1 0 0
    outer loop
      vertex 10 72.5 0
      vertex 10 39.05 0
      vertex 10 72.5 5
    endloop
  endfacet
  facet normal -1 0 0
    outer loop
      vertex 10 106.55 0
      vertex 10 77.5 0
      vertex 10 106.55 5
    endloop
  endfacet
  facet normal -1 0 0
    outer loop
      vertex 10 145 0
      vertex 10 111.55 0
      vertex 10 145 5
    endloop
  endfacet
  facet normal -1 0 0
    outer loop
      vertex 10 145 5
      vertex 10 150 15
      vertex 10 150 5
    endloop
  endfacet
  facet normal -1 0 0
    outer loop
      vertex 10 111.55 5
      vertex 10 145 5
      vertex 10 111.55 0
    endloop
  endfacet
  facet normal -1 0 0
    outer loop
      vertex 10 145 5
      vertex 10 111.55 5
      vertex 10 150 15
    endloop
  endfacet
  facet normal -1 0 0
    outer loop
      vertex 10 106.55 5
      vertex 10 150 15
      vertex 10 111.55 5
    endloop
  endfacet
  facet normal -1 0 0
    outer loop
      vertex 10 77.5 5
      vertex 10 106.55 5
      vertex 10 77.5 0
    endloop
  endfacet
  facet normal -1 0 0
    outer loop
      vertex 10 106.55 5
      vertex 10 77.5 5
      vertex 10 150 15
    endloop
  endfacet
  facet normal -1 0 0
    outer loop
      vertex 10 72.5 5
      vertex 10 150 15
      vertex 10 77.5 5
    endloop
  endfacet
  facet normal -1 0 0
    outer loop
      vertex 10 39.05 5
      vertex 10 72.5 5
      vertex 10 39.05 0
    endloop
  endfacet
  facet normal -1 0 0
    outer loop
      vertex 10 0 15
      vertex 10 72.5 5
      vertex 10 39.05 5
    endloop
  endfacet
  facet normal -1 0 0
    outer loop
      vertex 10 0 15
      vertex 10 39.05 5
      vertex 10 34.05 5
    endloop
  endfacet
  facet normal -1 0 0
    outer loop
      vertex 10 5 5
      vertex 10 34.05 5
      vertex 10 5 0
    endloop
  endfacet
  facet normal -1 0 0
    outer loop
      vertex 10 0 15
      vertex 10 34.05 5
      vertex 10 5 5
    endloop
  endfacet
  facet normal -1 0 0
    outer loop
      vertex 10 0 15
      vertex 10 5 5
      vertex 10 0 5
    endloop
  endfacet
  facet normal -1 0 0
    outer loop
      vertex 10 72.5 5
      vertex 10 0 15
      vertex 10 150 15
    endloop
  endfacet
  facet normal -0 0 1
    outer loop
      vertex -10 5 5
      vertex 10 0 5
      vertex 10 5 5
    endloop
  endfacet
  facet normal 0 0 1
    outer loop
      vertex 10 0 5
      vertex -10 5 5
      vertex -10 0 5
    endloop
  endfacet
  facet normal 0 1 -0
    outer loop
      vertex 10 5 0
      vertex -10 5 5
      vertex 10 5 5
    endloop
  endfacet
  facet normal 0 1 0
    outer loop
      vertex -10 5 5
      vertex 10 5 0
      vertex -10 5 0
    endloop
  endfacet
  facet normal -0 0 1
    outer loop
      vertex -10 150 5
      vertex 10 145 5
      vertex 10 150 5
    endloop
  endfacet
  facet normal 0 0 1
    outer loop
      vertex 10 145 5
      vertex -10 150 5
      vertex -10 145 5
    endloop
  endfacet
  facet normal 0 -1 0
    outer loop
      vertex -10 145 0
      vertex 10 145 5
      vertex -10 145 5
    endloop
  endfacet
  facet normal 0 -1 -0
    outer loop
      vertex 10 145 5
      vertex -10 145 0
      vertex 10 145 0
    endloop
  endfacet
  facet normal -0 0 1
    outer loop
      vertex -10 77.5 5
      vertex 10 72.5 5
      vertex 10 77.5 5
    endloop
  endfacet
  facet normal 0 0 1
    outer loop
      vertex 10 72.5 5
      vertex -10 77.5 5
      vertex -10 72.5 5
    endloop
  endfacet
  facet normal 0 -1 0
    outer loop
      vertex -10 72.5 0
      vertex 10 72.5 5
      vertex -10 72.5 5
    endloop
  endfacet
  facet normal 0 -1 -0
    outer loop
      vertex 10 72.5 5
      vertex -10 72.5 0
      vertex 10 72.5 0
    endloop
  endfacet
  facet normal 0 1 -0
    outer loop
      vertex 10 77.5 0
      vertex -10 77.5 5
      vertex 10 77.5 5
    endloop
  endfacet
  facet normal 0 1 0
    outer loop
      vertex -10 77.5 5
      vertex 10 77.5 0
      vertex -10 77.5 0
    endloop
  endfacet
  facet normal -0 0 1
    outer loop
      vertex -10 39.05 5
      vertex 10 34.05 5
      vertex 10 39.05 5
    endloop
  endfacet
  facet normal 0 0 1
    outer loop
      vertex 10 34.05 5
      vertex -10 39.05 5
      vertex -10 34.05 5
    endloop
  endfacet
  facet normal 0 1 -0
    outer loop
      vertex 10 39.05 0
      vertex -10 39.05 5
      vertex 10 39.05 5
    endloop
  endfacet
  facet normal 0 1 0
    outer loop
      vertex -10 39.05 5
      vertex 10 39.05 0
      vertex -10 39.05 0
    endloop
  endfacet
  facet normal 0 -1 0
    outer loop
      vertex -10 34.05 0
      vertex 10 34.05 5
      vertex -10 34.05 5
    endloop
  endfacet
  facet normal 0 -1 -0
    outer loop
      vertex 10 34.05 5
      vertex -10 34.05 0
      vertex 10 34.05 0
    endloop
  endfacet
  facet normal -0 0 1
    outer loop
      vertex -10 111.55 5
      vertex 10 106.55 5
      vertex 10 111.55 5
    endloop
  endfacet
  facet normal 0 0 1
    outer loop
      vertex 10 106.55 5
      vertex -10 111.55 5
      vertex -10 106.55 5
    endloop
  endfacet
  facet normal 0 1 -0
    outer loop
      vertex 10 111.55 0
      vertex -10 111.55 5
      vertex 10 111.55 5
    endloop
  endfacet
  facet normal 0 1 0
    outer loop
      vertex -10 111.55 5
      vertex 10 111.55 0
      vertex -10 111.55 0
    endloop
  endfacet
  facet normal 0 -1 0
    outer loop
      vertex -10 106.55 0
      vertex 10 106.55 5
      vertex -10 106.55 5
    endloop
  endfacet
  facet normal 0 -1 -0
    outer loop
      vertex 10 106.55 5
      vertex -10 106.55 0
      vertex 10 106.55 0
    endloop
  endfacet
endsolid OpenSCAD_Model
