solid OpenSCAD_Model
  facet normal -1 0 0
    outer loop
      vertex -35 -32.5 0
      vertex -35 32.5 52.5
      vertex -35 32.5 0
    endloop
  endfacet
  facet normal -1 -0 0
    outer loop
      vertex -35 32.5 52.5
      vertex -35 -32.5 0
      vertex -35 -32.5 52.5
    endloop
  endfacet
  facet normal -0 0 1
    outer loop
      vertex -32.55 32.5 50
      vertex 35 32.45 50
      vertex 35 32.5 50
    endloop
  endfacet
  facet normal 0 0 1
    outer loop
      vertex 35 32.45 50
      vertex -32.55 32.5 50
      vertex -32.55 32.45 50
    endloop
  endfacet
  facet normal 0 0 1
    outer loop
      vertex 32.5 30 50
      vertex 30 27.5 50
      vertex 32.5 -30.05 50
    endloop
  endfacet
  facet normal 0 0 1
    outer loop
      vertex 32.5 30 50
      vertex -30 27.5 50
      vertex 30 27.5 50
    endloop
  endfacet
  facet normal 0 0 1
    outer loop
      vertex -30 27.5 50
      vertex -32.55 30 50
      vertex -30 -27.5 50
    endloop
  endfacet
  facet normal -0 0 1
    outer loop
      vertex -32.55 30 50
      vertex -30 27.5 50
      vertex 32.5 30 50
    endloop
  endfacet
  facet normal -0 0 1
    outer loop
      vertex 30 -27.5 50
      vertex 32.5 -30.05 50
      vertex 30 27.5 50
    endloop
  endfacet
  facet normal -0 0 1
    outer loop
      vertex -30 -27.5 50
      vertex 32.5 -30.05 50
      vertex 30 -27.5 50
    endloop
  endfacet
  facet normal 0 0 1
    outer loop
      vertex -30 -27.5 50
      vertex -32.55 -30.05 50
      vertex 32.5 -30.05 50
    endloop
  endfacet
  facet normal 0 0 1
    outer loop
      vertex -32.55 -30.05 50
      vertex -30 -27.5 50
      vertex -32.55 30 50
    endloop
  endfacet
  facet normal 1 0 0
    outer loop
      vertex 35 32.45 52.5
      vertex 35 -32.5 52.5
      vertex 35 32.45 50
    endloop
  endfacet
  facet normal 1 -0 0
    outer loop
      vertex 35 32.45 50
      vertex 35 32.5 0
      vertex 35 32.5 50
    endloop
  endfacet
  facet normal 1 0 0
    outer loop
      vertex 35 -32.5 0
      vertex 35 32.45 50
      vertex 35 -32.5 52.5
    endloop
  endfacet
  facet normal 1 0 0
    outer loop
      vertex 35 32.45 50
      vertex 35 -32.5 0
      vertex 35 32.5 0
    endloop
  endfacet
  facet normal 0 0 -1
    outer loop
      vertex -10 134.05 0
      vertex 10 139.05 0
      vertex 10 134.05 0
    endloop
  endfacet
  facet normal -0 0 -1
    outer loop
      vertex 10 139.05 0
      vertex -10 134.05 0
      vertex -10 139.05 0
    endloop
  endfacet
  facet normal 0 0 -1
    outer loop
      vertex -10 100 0
      vertex 10 105 0
      vertex 10 100 0
    endloop
  endfacet
  facet normal -0 0 -1
    outer loop
      vertex 10 105 0
      vertex -10 100 0
      vertex -10 105 0
    endloop
  endfacet
  facet normal 0 0 -1
    outer loop
      vertex -10 61.55 0
      vertex 10 66.55 0
      vertex 10 61.55 0
    endloop
  endfacet
  facet normal -0 0 -1
    outer loop
      vertex 10 66.55 0
      vertex -10 61.55 0
      vertex -10 66.55 0
    endloop
  endfacet
  facet normal 0 0 -1
    outer loop
      vertex 35 -32.5 0
      vertex 15 32.5 0
      vertex 35 32.5 0
    endloop
  endfacet
  facet normal 0 0 -1
    outer loop
      vertex 10 61.55 0
      vertex 15 32.5 0
      vertex 10 32.5 0
    endloop
  endfacet
  facet normal 0 0 -1
    outer loop
      vertex 35 -32.5 0
      vertex 10 32.5 0
      vertex 15 32.5 0
    endloop
  endfacet
  facet normal 0 0 -1
    outer loop
      vertex 35 -32.5 0
      vertex -10 32.5 0
      vertex 10 32.5 0
    endloop
  endfacet
  facet normal 0 0 -1
    outer loop
      vertex -15 32.5 0
      vertex -10 61.55 0
      vertex -10 32.5 0
    endloop
  endfacet
  facet normal -0 0 -1
    outer loop
      vertex -10 61.55 0
      vertex -15 32.5 0
      vertex -10 66.55 0
    endloop
  endfacet
  facet normal -0 0 -1
    outer loop
      vertex -10 66.55 0
      vertex -15 32.5 0
      vertex -10 100 0
    endloop
  endfacet
  facet normal -0 0 -1
    outer loop
      vertex -10 100 0
      vertex -15 32.5 0
      vertex -10 105 0
    endloop
  endfacet
  facet normal 0 0 -1
    outer loop
      vertex -15 177.5 0
      vertex -10 105 0
      vertex -15 32.5 0
    endloop
  endfacet
  facet normal 0 0 -1
    outer loop
      vertex -10 105 0
      vertex -15 177.5 0
      vertex -10 134.05 0
    endloop
  endfacet
  facet normal 0 0 -1
    outer loop
      vertex -10 134.05 0
      vertex -15 177.5 0
      vertex -10 139.05 0
    endloop
  endfacet
  facet normal 0 0 -1
    outer loop
      vertex -35 -32.5 0
      vertex -10 32.5 0
      vertex 35 -32.5 0
    endloop
  endfacet
  facet normal -0 0 -1
    outer loop
      vertex -10 32.5 0
      vertex -35 -32.5 0
      vertex -15 32.5 0
    endloop
  endfacet
  facet normal -0 0 -1
    outer loop
      vertex -15 32.5 0
      vertex -35 -32.5 0
      vertex -35 32.5 0
    endloop
  endfacet
  facet normal 0 0 -1
    outer loop
      vertex 10 66.55 0
      vertex 15 32.5 0
      vertex 10 61.55 0
    endloop
  endfacet
  facet normal 0 0 -1
    outer loop
      vertex 10 100 0
      vertex 15 32.5 0
      vertex 10 66.55 0
    endloop
  endfacet
  facet normal 0 0 -1
    outer loop
      vertex 15 32.5 0
      vertex 10 100 0
      vertex 15 177.5 0
    endloop
  endfacet
  facet normal 0 0 -1
    outer loop
      vertex 10 105 0
      vertex 15 177.5 0
      vertex 10 100 0
    endloop
  endfacet
  facet normal 0 0 -1
    outer loop
      vertex 10 134.05 0
      vertex 15 177.5 0
      vertex 10 105 0
    endloop
  endfacet
  facet normal 0 0 -1
    outer loop
      vertex 10 139.05 0
      vertex 15 177.5 0
      vertex 10 134.05 0
    endloop
  endfacet
  facet normal 0 0 -1
    outer loop
      vertex 10 172.5 0
      vertex 15 177.5 0
      vertex 10 139.05 0
    endloop
  endfacet
  facet normal 0 0 -1
    outer loop
      vertex -10 172.5 0
      vertex 15 177.5 0
      vertex 10 172.5 0
    endloop
  endfacet
  facet normal 0 0 -1
    outer loop
      vertex -10 172.5 0
      vertex -15 177.5 0
      vertex 15 177.5 0
    endloop
  endfacet
  facet normal 0 0 -1
    outer loop
      vertex -10 139.05 0
      vertex -15 177.5 0
      vertex -10 172.5 0
    endloop
  endfacet
  facet normal 0 -1 0
    outer loop
      vertex -35 -32.5 0
      vertex 35 -32.5 52.5
      vertex -35 -32.5 52.5
    endloop
  endfacet
  facet normal 0 -1 -0
    outer loop
      vertex 35 -32.5 52.5
      vertex -35 -32.5 0
      vertex 35 -32.5 0
    endloop
  endfacet
  facet normal 0 1 0
    outer loop
      vertex -15 32.5 10.0274
      vertex -15 32.5 0
      vertex -15.5226 32.5 10.0274
    endloop
  endfacet
  facet normal 0 1 -0
    outer loop
      vertex -13.4549 32.5 19.7553
      vertex -32.55 32.5 50
      vertex 13.4549 32.5 19.7553
    endloop
  endfacet
  facet normal 0 1 0
    outer loop
      vertex -32.55 32.5 50
      vertex -13.4549 32.5 19.7553
      vertex -14.4774 32.5 19.9726
    endloop
  endfacet
  facet normal 0 1 -0
    outer loop
      vertex 12.5 32.5 19.3301
      vertex -13.4549 32.5 19.7553
      vertex 13.4549 32.5 19.7553
    endloop
  endfacet
  facet normal 0 1 0
    outer loop
      vertex 12.5 32.5 19.3301
      vertex -12.5 32.5 19.3301
      vertex -13.4549 32.5 19.7553
    endloop
  endfacet
  facet normal 0 1 -0
    outer loop
      vertex 11.6543 32.5 18.7157
      vertex -12.5 32.5 19.3301
      vertex 12.5 32.5 19.3301
    endloop
  endfacet
  facet normal 0 1 0
    outer loop
      vertex 11.6543 32.5 18.7157
      vertex -11.6543 32.5 18.7157
      vertex -12.5 32.5 19.3301
    endloop
  endfacet
  facet normal 0 1 -0
    outer loop
      vertex 10.9549 32.5 17.9389
      vertex -11.6543 32.5 18.7157
      vertex 11.6543 32.5 18.7157
    endloop
  endfacet
  facet normal 0 1 0
    outer loop
      vertex 10.9549 32.5 17.9389
      vertex -10.9549 32.5 17.9389
      vertex -11.6543 32.5 18.7157
    endloop
  endfacet
  facet normal 0 1 -0
    outer loop
      vertex 10.4323 32.5 17.0337
      vertex -10.9549 32.5 17.9389
      vertex 10.9549 32.5 17.9389
    endloop
  endfacet
  facet normal 0 1 0
    outer loop
      vertex 10.4323 32.5 17.0337
      vertex -10.4323 32.5 17.0337
      vertex -10.9549 32.5 17.9389
    endloop
  endfacet
  facet normal 0 1 -0
    outer loop
      vertex 10.1093 32.5 16.0396
      vertex -10.4323 32.5 17.0337
      vertex 10.4323 32.5 17.0337
    endloop
  endfacet
  facet normal 0 1 0
    outer loop
      vertex 10.1093 32.5 16.0396
      vertex -10.1093 32.5 16.0396
      vertex -10.4323 32.5 17.0337
    endloop
  endfacet
  facet normal 0 1 -0
    outer loop
      vertex 10 32.5 15
      vertex -10.1093 32.5 16.0396
      vertex 10.1093 32.5 16.0396
    endloop
  endfacet
  facet normal 0 1 0
    outer loop
      vertex 10 32.5 15
      vertex -10 32.5 15
      vertex -10.1093 32.5 16.0396
    endloop
  endfacet
  facet normal 0 1 -0
    outer loop
      vertex 10 32.5 0
      vertex -10 32.5 15
      vertex 10 32.5 15
    endloop
  endfacet
  facet normal 0 1 0
    outer loop
      vertex -10 32.5 15
      vertex 10 32.5 0
      vertex -10 32.5 0
    endloop
  endfacet
  facet normal 0 1 0
    outer loop
      vertex 14.4774 32.5 19.9726
      vertex 35 32.5 50
      vertex 15.5226 32.5 19.9726
    endloop
  endfacet
  facet normal 0 1 0
    outer loop
      vertex 35 32.5 50
      vertex 16.5451 32.5 19.7553
      vertex 15.5226 32.5 19.9726
    endloop
  endfacet
  facet normal 0 1 0
    outer loop
      vertex 35 32.5 50
      vertex 17.5 32.5 19.3301
      vertex 16.5451 32.5 19.7553
    endloop
  endfacet
  facet normal 0 1 0
    outer loop
      vertex 35 32.5 50
      vertex 18.3457 32.5 18.7157
      vertex 17.5 32.5 19.3301
    endloop
  endfacet
  facet normal 0 1 0
    outer loop
      vertex 35 32.5 50
      vertex 19.0451 32.5 17.9389
      vertex 18.3457 32.5 18.7157
    endloop
  endfacet
  facet normal 0 1 0
    outer loop
      vertex 35 32.5 50
      vertex 19.5677 32.5 17.0337
      vertex 19.0451 32.5 17.9389
    endloop
  endfacet
  facet normal 0 1 0
    outer loop
      vertex 35 32.5 50
      vertex 19.8907 32.5 16.0396
      vertex 19.5677 32.5 17.0337
    endloop
  endfacet
  facet normal 0 1 -0
    outer loop
      vertex 35 32.5 0
      vertex 19.8907 32.5 16.0396
      vertex 35 32.5 50
    endloop
  endfacet
  facet normal 0 1 0
    outer loop
      vertex 19.8907 32.5 16.0396
      vertex 35 32.5 0
      vertex 20 32.5 15
    endloop
  endfacet
  facet normal 0 1 0
    outer loop
      vertex 20 32.5 15
      vertex 35 32.5 0
      vertex 19.8907 32.5 13.9604
    endloop
  endfacet
  facet normal 0 1 0
    outer loop
      vertex 19.8907 32.5 13.9604
      vertex 35 32.5 0
      vertex 19.5677 32.5 12.9663
    endloop
  endfacet
  facet normal 0 1 0
    outer loop
      vertex 35 32.5 0
      vertex 19.0451 32.5 12.0611
      vertex 19.5677 32.5 12.9663
    endloop
  endfacet
  facet normal 0 1 0
    outer loop
      vertex 35 32.5 0
      vertex 18.3457 32.5 11.2843
      vertex 19.0451 32.5 12.0611
    endloop
  endfacet
  facet normal 0 1 0
    outer loop
      vertex 15 32.5 0
      vertex 18.3457 32.5 11.2843
      vertex 35 32.5 0
    endloop
  endfacet
  facet normal 0 1 0
    outer loop
      vertex 18.3457 32.5 11.2843
      vertex 15 32.5 0
      vertex 17.5 32.5 10.6699
    endloop
  endfacet
  facet normal 0 1 0
    outer loop
      vertex 17.5 32.5 10.6699
      vertex 15 32.5 0
      vertex 16.5451 32.5 10.2447
    endloop
  endfacet
  facet normal 0 1 0
    outer loop
      vertex 16.5451 32.5 10.2447
      vertex 15 32.5 0
      vertex 15.5226 32.5 10.0274
    endloop
  endfacet
  facet normal 0 1 0
    outer loop
      vertex 15.5226 32.5 10.0274
      vertex 15 32.5 0
      vertex 15 32.5 10.0274
    endloop
  endfacet
  facet normal 0 1 -0
    outer loop
      vertex -32.55 32.5 50
      vertex -35 32.5 52.5
      vertex -32.55 32.5 52.5
    endloop
  endfacet
  facet normal 0 1 0
    outer loop
      vertex 13.4549 32.5 19.7553
      vertex 35 32.5 50
      vertex 14.4774 32.5 19.9726
    endloop
  endfacet
  facet normal 0 1 0
    outer loop
      vertex 35 32.5 50
      vertex 13.4549 32.5 19.7553
      vertex -32.55 32.5 50
    endloop
  endfacet
  facet normal 0 1 -0
    outer loop
      vertex -15.5226 32.5 19.9726
      vertex -32.55 32.5 50
      vertex -14.4774 32.5 19.9726
    endloop
  endfacet
  facet normal 0 1 -0
    outer loop
      vertex -16.5451 32.5 19.7553
      vertex -32.55 32.5 50
      vertex -15.5226 32.5 19.9726
    endloop
  endfacet
  facet normal 0 1 -0
    outer loop
      vertex -17.5 32.5 19.3301
      vertex -32.55 32.5 50
      vertex -16.5451 32.5 19.7553
    endloop
  endfacet
  facet normal 0 1 -0
    outer loop
      vertex -18.3457 32.5 18.7157
      vertex -32.55 32.5 50
      vertex -17.5 32.5 19.3301
    endloop
  endfacet
  facet normal 0 1 -0
    outer loop
      vertex -19.0451 32.5 17.9389
      vertex -32.55 32.5 50
      vertex -18.3457 32.5 18.7157
    endloop
  endfacet
  facet normal 0 1 -0
    outer loop
      vertex -19.5677 32.5 17.0337
      vertex -32.55 32.5 50
      vertex -19.0451 32.5 17.9389
    endloop
  endfacet
  facet normal 0 1 0
    outer loop
      vertex -35 32.5 0
      vertex -32.55 32.5 50
      vertex -19.5677 32.5 17.0337
    endloop
  endfacet
  facet normal 0 1 0
    outer loop
      vertex -35 32.5 0
      vertex -19.5677 32.5 17.0337
      vertex -19.8907 32.5 16.0396
    endloop
  endfacet
  facet normal 0 1 0
    outer loop
      vertex -35 32.5 0
      vertex -19.8907 32.5 16.0396
      vertex -20 32.5 15
    endloop
  endfacet
  facet normal 0 1 0
    outer loop
      vertex -35 32.5 0
      vertex -20 32.5 15
      vertex -19.8907 32.5 13.9604
    endloop
  endfacet
  facet normal 0 1 0
    outer loop
      vertex -35 32.5 0
      vertex -19.8907 32.5 13.9604
      vertex -19.5677 32.5 12.9663
    endloop
  endfacet
  facet normal 0 1 0
    outer loop
      vertex -15 32.5 0
      vertex -16.5451 32.5 10.2447
      vertex -15.5226 32.5 10.0274
    endloop
  endfacet
  facet normal 0 1 0
    outer loop
      vertex -15 32.5 0
      vertex -17.5 32.5 10.6699
      vertex -16.5451 32.5 10.2447
    endloop
  endfacet
  facet normal 0 1 0
    outer loop
      vertex -15 32.5 0
      vertex -18.3457 32.5 11.2843
      vertex -17.5 32.5 10.6699
    endloop
  endfacet
  facet normal 0 1 0
    outer loop
      vertex -35 32.5 0
      vertex -18.3457 32.5 11.2843
      vertex -15 32.5 0
    endloop
  endfacet
  facet normal 0 1 0
    outer loop
      vertex -18.3457 32.5 11.2843
      vertex -35 32.5 0
      vertex -19.0451 32.5 12.0611
    endloop
  endfacet
  facet normal 0 1 0
    outer loop
      vertex -19.0451 32.5 12.0611
      vertex -35 32.5 0
      vertex -19.5677 32.5 12.9663
    endloop
  endfacet
  facet normal 0 1 0
    outer loop
      vertex -32.55 32.5 50
      vertex -35 32.5 0
      vertex -35 32.5 52.5
    endloop
  endfacet
  facet normal 1 -0 0
    outer loop
      vertex -30 -27.5 50
      vertex -30 27.5 10
      vertex -30 27.5 50
    endloop
  endfacet
  facet normal 1 0 0
    outer loop
      vertex -30 27.5 10
      vertex -30 -27.5 50
      vertex -30 -27.5 10
    endloop
  endfacet
  facet normal -1 0 0
    outer loop
      vertex 30 -27.5 10
      vertex 30 27.5 50
      vertex 30 27.5 10
    endloop
  endfacet
  facet normal -1 -0 0
    outer loop
      vertex 30 27.5 50
      vertex 30 -27.5 10
      vertex 30 -27.5 50
    endloop
  endfacet
  facet normal 0 -1 0
    outer loop
      vertex 10 27.5 15
      vertex 19.8907 27.5 13.9604
      vertex 20 27.5 15
    endloop
  endfacet
  facet normal 0 -1 0
    outer loop
      vertex 10 27.5 15
      vertex 19.5677 27.5 12.9663
      vertex 19.8907 27.5 13.9604
    endloop
  endfacet
  facet normal 0 -1 0
    outer loop
      vertex 10 27.5 15
      vertex 19.0451 27.5 12.0611
      vertex 19.5677 27.5 12.9663
    endloop
  endfacet
  facet normal 0 -1 0
    outer loop
      vertex 10 27.5 15
      vertex 18.3457 27.5 11.2843
      vertex 19.0451 27.5 12.0611
    endloop
  endfacet
  facet normal 0 -1 0
    outer loop
      vertex 15 27.5 10.0274
      vertex 18.3457 27.5 11.2843
      vertex 10 27.5 15
    endloop
  endfacet
  facet normal 0 -1 0
    outer loop
      vertex 18.3457 27.5 11.2843
      vertex 15 27.5 10.0274
      vertex 17.5 27.5 10.6699
    endloop
  endfacet
  facet normal 0 -1 0
    outer loop
      vertex 17.5 27.5 10.6699
      vertex 15 27.5 10.0274
      vertex 16.5451 27.5 10.2447
    endloop
  endfacet
  facet normal 0 -1 0
    outer loop
      vertex 10 27.5 10
      vertex 15 27.5 10.0274
      vertex 10 27.5 15
    endloop
  endfacet
  facet normal 0 -1 -0
    outer loop
      vertex 15 27.5 10.0274
      vertex 10 27.5 10
      vertex 15 27.5 10
    endloop
  endfacet
  facet normal 0 -1 0
    outer loop
      vertex 16.5451 27.5 10.2447
      vertex 15 27.5 10.0274
      vertex 15.5226 27.5 10.0274
    endloop
  endfacet
  facet normal 0 -1 0
    outer loop
      vertex 15 27.5 10.0274
      vertex 15 27.5 10
      vertex 15.5226 27.5 10.0274
    endloop
  endfacet
  facet normal 0 -1 0
    outer loop
      vertex -10 27.5 10
      vertex 10 27.5 15
      vertex -10 27.5 15
    endloop
  endfacet
  facet normal 0 -1 -0
    outer loop
      vertex 10 27.5 15
      vertex -10 27.5 10
      vertex 10 27.5 10
    endloop
  endfacet
  facet normal 0 -1 0
    outer loop
      vertex -10 27.5 15
      vertex -30 27.5 50
      vertex -20 27.5 15
    endloop
  endfacet
  facet normal 0 -1 0
    outer loop
      vertex -30 27.5 10
      vertex -20 27.5 15
      vertex -30 27.5 50
    endloop
  endfacet
  facet normal 0 -1 -0
    outer loop
      vertex -20 27.5 15
      vertex -30 27.5 10
      vertex -19.8907 27.5 13.9604
    endloop
  endfacet
  facet normal 0 -1 0
    outer loop
      vertex -30 27.5 10
      vertex -19.5677 27.5 12.9663
      vertex -19.8907 27.5 13.9604
    endloop
  endfacet
  facet normal 0 -1 0
    outer loop
      vertex -30 27.5 10
      vertex -19.0451 27.5 12.0611
      vertex -19.5677 27.5 12.9663
    endloop
  endfacet
  facet normal 0 -1 0
    outer loop
      vertex -30 27.5 10
      vertex -18.3457 27.5 11.2843
      vertex -19.0451 27.5 12.0611
    endloop
  endfacet
  facet normal 0 -1 0
    outer loop
      vertex -30 27.5 10
      vertex -17.5 27.5 10.6699
      vertex -18.3457 27.5 11.2843
    endloop
  endfacet
  facet normal 0 -1 0
    outer loop
      vertex -30 27.5 10
      vertex -16.5451 27.5 10.2447
      vertex -17.5 27.5 10.6699
    endloop
  endfacet
  facet normal 0 -1 0
    outer loop
      vertex -30 27.5 10
      vertex -15.5226 27.5 10.0274
      vertex -16.5451 27.5 10.2447
    endloop
  endfacet
  facet normal 0 -1 0
    outer loop
      vertex -15 27.5 10
      vertex -15.5226 27.5 10.0274
      vertex -30 27.5 10
    endloop
  endfacet
  facet normal 0 -1 0
    outer loop
      vertex -15.5226 27.5 10.0274
      vertex -15 27.5 10
      vertex -15 27.5 10.0274
    endloop
  endfacet
  facet normal 0 -1 0
    outer loop
      vertex -30 27.5 50
      vertex -10 27.5 15
      vertex 30 27.5 50
    endloop
  endfacet
  facet normal 0 -1 0
    outer loop
      vertex 10 27.5 15
      vertex 30 27.5 50
      vertex -10 27.5 15
    endloop
  endfacet
  facet normal 0 -1 0
    outer loop
      vertex 20 27.5 15
      vertex 30 27.5 50
      vertex 10 27.5 15
    endloop
  endfacet
  facet normal 0 -1 0
    outer loop
      vertex 30 27.5 10
      vertex 20 27.5 15
      vertex 19.8907 27.5 13.9604
    endloop
  endfacet
  facet normal 0 -1 0
    outer loop
      vertex 20 27.5 15
      vertex 30 27.5 10
      vertex 30 27.5 50
    endloop
  endfacet
  facet normal 0 -1 0
    outer loop
      vertex 19.5677 27.5 12.9663
      vertex 30 27.5 10
      vertex 19.8907 27.5 13.9604
    endloop
  endfacet
  facet normal 0 -1 0
    outer loop
      vertex 19.0451 27.5 12.0611
      vertex 30 27.5 10
      vertex 19.5677 27.5 12.9663
    endloop
  endfacet
  facet normal 0 -1 0
    outer loop
      vertex 18.3457 27.5 11.2843
      vertex 30 27.5 10
      vertex 19.0451 27.5 12.0611
    endloop
  endfacet
  facet normal 0 -1 0
    outer loop
      vertex 17.5 27.5 10.6699
      vertex 30 27.5 10
      vertex 18.3457 27.5 11.2843
    endloop
  endfacet
  facet normal 0 -1 0
    outer loop
      vertex 16.5451 27.5 10.2447
      vertex 30 27.5 10
      vertex 17.5 27.5 10.6699
    endloop
  endfacet
  facet normal 0 -1 0
    outer loop
      vertex 15.5226 27.5 10.0274
      vertex 30 27.5 10
      vertex 16.5451 27.5 10.2447
    endloop
  endfacet
  facet normal 0 -1 0
    outer loop
      vertex 30 27.5 10
      vertex 15.5226 27.5 10.0274
      vertex 15 27.5 10
    endloop
  endfacet
  facet normal 0 -1 0
    outer loop
      vertex -19.8907 27.5 13.9604
      vertex -10 27.5 15
      vertex -20 27.5 15
    endloop
  endfacet
  facet normal 0 -1 0
    outer loop
      vertex -19.5677 27.5 12.9663
      vertex -10 27.5 15
      vertex -19.8907 27.5 13.9604
    endloop
  endfacet
  facet normal 0 -1 0
    outer loop
      vertex -19.0451 27.5 12.0611
      vertex -10 27.5 15
      vertex -19.5677 27.5 12.9663
    endloop
  endfacet
  facet normal 0 -1 0
    outer loop
      vertex -18.3457 27.5 11.2843
      vertex -10 27.5 15
      vertex -19.0451 27.5 12.0611
    endloop
  endfacet
  facet normal 0 -1 0
    outer loop
      vertex -15 27.5 10.0274
      vertex -18.3457 27.5 11.2843
      vertex -17.5 27.5 10.6699
    endloop
  endfacet
  facet normal 0 -1 0
    outer loop
      vertex -15 27.5 10.0274
      vertex -17.5 27.5 10.6699
      vertex -16.5451 27.5 10.2447
    endloop
  endfacet
  facet normal 0 -1 0
    outer loop
      vertex -15 27.5 10.0274
      vertex -16.5451 27.5 10.2447
      vertex -15.5226 27.5 10.0274
    endloop
  endfacet
  facet normal 0 -1 0
    outer loop
      vertex -18.3457 27.5 11.2843
      vertex -15 27.5 10.0274
      vertex -10 27.5 15
    endloop
  endfacet
  facet normal 0 -1 0
    outer loop
      vertex -10 27.5 10
      vertex -15 27.5 10.0274
      vertex -15 27.5 10
    endloop
  endfacet
  facet normal 0 -1 0
    outer loop
      vertex -15 27.5 10.0274
      vertex -10 27.5 10
      vertex -10 27.5 15
    endloop
  endfacet
  facet normal -0 0 1
    outer loop
      vertex 15 27.5 10
      vertex 30 -27.5 10
      vertex 30 27.5 10
    endloop
  endfacet
  facet normal -0 0 1
    outer loop
      vertex 10 27.5 10
      vertex 30 -27.5 10
      vertex 15 27.5 10
    endloop
  endfacet
  facet normal -0 0 1
    outer loop
      vertex -10 27.5 10
      vertex 30 -27.5 10
      vertex 10 27.5 10
    endloop
  endfacet
  facet normal 0 0 1
    outer loop
      vertex -30 -27.5 10
      vertex -10 27.5 10
      vertex -15 27.5 10
    endloop
  endfacet
  facet normal 0 0 1
    outer loop
      vertex -30 -27.5 10
      vertex -15 27.5 10
      vertex -30 27.5 10
    endloop
  endfacet
  facet normal 0 0 1
    outer loop
      vertex -10 27.5 10
      vertex -30 -27.5 10
      vertex 30 -27.5 10
    endloop
  endfacet
  facet normal 0 1 -0
    outer loop
      vertex 30 -27.5 10
      vertex -30 -27.5 50
      vertex 30 -27.5 50
    endloop
  endfacet
  facet normal 0 1 0
    outer loop
      vertex -30 -27.5 50
      vertex 30 -27.5 10
      vertex -30 -27.5 10
    endloop
  endfacet
  facet normal -0 0 1
    outer loop
      vertex -35 32.5 52.5
      vertex -32.55 32.45 52.5
      vertex -32.55 32.5 52.5
    endloop
  endfacet
  facet normal 0 0 1
    outer loop
      vertex -32.55 32.45 52.5
      vertex -35 32.5 52.5
      vertex -32.55 30 52.5
    endloop
  endfacet
  facet normal 0 0 1
    outer loop
      vertex -35 -32.5 52.5
      vertex -32.55 30 52.5
      vertex -35 32.5 52.5
    endloop
  endfacet
  facet normal 0 0 1
    outer loop
      vertex 35 32.45 52.5
      vertex 32.5 30 52.5
      vertex 35 -32.5 52.5
    endloop
  endfacet
  facet normal -0 0 1
    outer loop
      vertex -32.55 32.45 52.5
      vertex 32.5 30 52.5
      vertex 35 32.45 52.5
    endloop
  endfacet
  facet normal 0 0 1
    outer loop
      vertex 32.5 30 52.5
      vertex -32.55 32.45 52.5
      vertex -32.55 30 52.5
    endloop
  endfacet
  facet normal -0 0 1
    outer loop
      vertex 32.5 -30.05 52.5
      vertex 35 -32.5 52.5
      vertex 32.5 30 52.5
    endloop
  endfacet
  facet normal 0 0 1
    outer loop
      vertex -35 -32.5 52.5
      vertex 32.5 -30.05 52.5
      vertex -32.55 -30.05 52.5
    endloop
  endfacet
  facet normal 0 0 1
    outer loop
      vertex 32.5 -30.05 52.5
      vertex -35 -32.5 52.5
      vertex 35 -32.5 52.5
    endloop
  endfacet
  facet normal 0 0 1
    outer loop
      vertex -32.55 30 52.5
      vertex -35 -32.5 52.5
      vertex -32.55 -30.05 52.5
    endloop
  endfacet
  facet normal 0 1 -0
    outer loop
      vertex 32.5 -30.05 50
      vertex -32.55 -30.05 52.5
      vertex 32.5 -30.05 52.5
    endloop
  endfacet
  facet normal 0 1 0
    outer loop
      vertex -32.55 -30.05 52.5
      vertex 32.5 -30.05 50
      vertex -32.55 -30.05 50
    endloop
  endfacet
  facet normal 1 -0 0
    outer loop
      vertex -32.55 32.45 52.5
      vertex -32.55 32.5 50
      vertex -32.55 32.5 52.5
    endloop
  endfacet
  facet normal 1 0 0
    outer loop
      vertex -32.55 32.5 50
      vertex -32.55 32.45 52.5
      vertex -32.55 32.45 50
    endloop
  endfacet
  facet normal 1 -0 0
    outer loop
      vertex -32.55 -30.05 52.5
      vertex -32.55 30 50
      vertex -32.55 30 52.5
    endloop
  endfacet
  facet normal 1 0 0
    outer loop
      vertex -32.55 30 50
      vertex -32.55 -30.05 52.5
      vertex -32.55 -30.05 50
    endloop
  endfacet
  facet normal 0 -1 0
    outer loop
      vertex -32.55 30 50
      vertex 32.5 30 52.5
      vertex -32.55 30 52.5
    endloop
  endfacet
  facet normal 0 -1 -0
    outer loop
      vertex 32.5 30 52.5
      vertex -32.55 30 50
      vertex 32.5 30 50
    endloop
  endfacet
  facet normal 0 1 -0
    outer loop
      vertex 35 32.45 50
      vertex -32.55 32.45 52.5
      vertex 35 32.45 52.5
    endloop
  endfacet
  facet normal 0 1 0
    outer loop
      vertex -32.55 32.45 52.5
      vertex 35 32.45 50
      vertex -32.55 32.45 50
    endloop
  endfacet
  facet normal -1 0 0
    outer loop
      vertex 32.5 -30.05 50
      vertex 32.5 30 52.5
      vertex 32.5 30 50
    endloop
  endfacet
  facet normal -1 -0 0
    outer loop
      vertex 32.5 30 52.5
      vertex 32.5 -30.05 50
      vertex 32.5 -30.05 52.5
    endloop
  endfacet
  facet normal 0.994522 -0 0.104528
    outer loop
      vertex -10.1093 32.5 16.0396
      vertex -10 177.5 15
      vertex -10.1093 177.5 16.0396
    endloop
  endfacet
  facet normal 0.994522 0 0.104528
    outer loop
      vertex -10 177.5 15
      vertex -10.1093 32.5 16.0396
      vertex -10 32.5 15
    endloop
  endfacet
  facet normal 0 1 0
    outer loop
      vertex 15 177.5 15
      vertex 15.5226 177.5 19.9726
      vertex 16.5451 177.5 19.7553
    endloop
  endfacet
  facet normal 0 1 0
    outer loop
      vertex 15.5226 177.5 19.9726
      vertex 15 177.5 15
      vertex 14.4774 177.5 19.9726
    endloop
  endfacet
  facet normal 0 1 0
    outer loop
      vertex 15 177.5 15
      vertex 16.5451 177.5 19.7553
      vertex 17.5 177.5 19.3301
    endloop
  endfacet
  facet normal 0 1 0
    outer loop
      vertex 14.4774 177.5 19.9726
      vertex 15 177.5 15
      vertex 13.4549 177.5 19.7553
    endloop
  endfacet
  facet normal 0 1 0
    outer loop
      vertex 15 177.5 15
      vertex 17.5 177.5 19.3301
      vertex 18.3457 177.5 18.7157
    endloop
  endfacet
  facet normal 0 1 0
    outer loop
      vertex 13.4549 177.5 19.7553
      vertex 15 177.5 15
      vertex 12.5 177.5 19.3301
    endloop
  endfacet
  facet normal 0 1 0
    outer loop
      vertex 15 177.5 15
      vertex 18.3457 177.5 18.7157
      vertex 19.0451 177.5 17.9389
    endloop
  endfacet
  facet normal 0 1 0
    outer loop
      vertex 12.5 177.5 19.3301
      vertex 15 177.5 15
      vertex 11.6543 177.5 18.7157
    endloop
  endfacet
  facet normal 0 1 0
    outer loop
      vertex 15 177.5 15
      vertex 19.0451 177.5 17.9389
      vertex 19.5677 177.5 17.0337
    endloop
  endfacet
  facet normal 0 1 0
    outer loop
      vertex 11.6543 177.5 18.7157
      vertex 15 177.5 15
      vertex 10.9549 177.5 17.9389
    endloop
  endfacet
  facet normal 0 1 0
    outer loop
      vertex 15 177.5 15
      vertex 19.5677 177.5 17.0337
      vertex 19.8907 177.5 16.0396
    endloop
  endfacet
  facet normal 0 1 0
    outer loop
      vertex 10.9549 177.5 17.9389
      vertex 15 177.5 15
      vertex 10.4323 177.5 17.0337
    endloop
  endfacet
  facet normal 0 1 0
    outer loop
      vertex 15 177.5 15
      vertex 19.8907 177.5 16.0396
      vertex 20 177.5 15
    endloop
  endfacet
  facet normal 0 1 0
    outer loop
      vertex 10.4323 177.5 17.0337
      vertex 15 177.5 15
      vertex 10.1093 177.5 16.0396
    endloop
  endfacet
  facet normal 0 1 0
    outer loop
      vertex 15 177.5 15
      vertex 10 177.5 15
      vertex 10.1093 177.5 16.0396
    endloop
  endfacet
  facet normal 0 1 0
    outer loop
      vertex 15 177.5 15
      vertex 10 177.5 5
      vertex 10 177.5 15
    endloop
  endfacet
  facet normal 0 1 0
    outer loop
      vertex 10 177.5 5
      vertex 15 177.5 0
      vertex -10 177.5 5
    endloop
  endfacet
  facet normal 0 1 -0
    outer loop
      vertex 15 177.5 0
      vertex 10 177.5 5
      vertex 15 177.5 15
    endloop
  endfacet
  facet normal 0 1 -0
    outer loop
      vertex -10 177.5 5
      vertex -15 177.5 15
      vertex -10 177.5 15
    endloop
  endfacet
  facet normal 0 1 0
    outer loop
      vertex -10 177.5 5
      vertex -15 177.5 0
      vertex -15 177.5 15
    endloop
  endfacet
  facet normal 0 1 0
    outer loop
      vertex -15 177.5 0
      vertex -10 177.5 5
      vertex 15 177.5 0
    endloop
  endfacet
  facet normal 0 1 0
    outer loop
      vertex -15 177.5 15
      vertex -14.4774 177.5 19.9726
      vertex -13.4549 177.5 19.7553
    endloop
  endfacet
  facet normal 0 1 0
    outer loop
      vertex -14.4774 177.5 19.9726
      vertex -15 177.5 15
      vertex -15.5226 177.5 19.9726
    endloop
  endfacet
  facet normal 0 1 0
    outer loop
      vertex -15 177.5 15
      vertex -13.4549 177.5 19.7553
      vertex -12.5 177.5 19.3301
    endloop
  endfacet
  facet normal 0 1 0
    outer loop
      vertex -15.5226 177.5 19.9726
      vertex -15 177.5 15
      vertex -16.5451 177.5 19.7553
    endloop
  endfacet
  facet normal 0 1 0
    outer loop
      vertex -15 177.5 15
      vertex -12.5 177.5 19.3301
      vertex -11.6543 177.5 18.7157
    endloop
  endfacet
  facet normal 0 1 0
    outer loop
      vertex -16.5451 177.5 19.7553
      vertex -15 177.5 15
      vertex -17.5 177.5 19.3301
    endloop
  endfacet
  facet normal 0 1 0
    outer loop
      vertex -15 177.5 15
      vertex -11.6543 177.5 18.7157
      vertex -10.9549 177.5 17.9389
    endloop
  endfacet
  facet normal 0 1 0
    outer loop
      vertex -17.5 177.5 19.3301
      vertex -15 177.5 15
      vertex -18.3457 177.5 18.7157
    endloop
  endfacet
  facet normal 0 1 0
    outer loop
      vertex -15 177.5 15
      vertex -10.9549 177.5 17.9389
      vertex -10.4323 177.5 17.0337
    endloop
  endfacet
  facet normal 0 1 0
    outer loop
      vertex -18.3457 177.5 18.7157
      vertex -15 177.5 15
      vertex -19.0451 177.5 17.9389
    endloop
  endfacet
  facet normal 0 1 0
    outer loop
      vertex -15 177.5 15
      vertex -10.4323 177.5 17.0337
      vertex -10.1093 177.5 16.0396
    endloop
  endfacet
  facet normal 0 1 0
    outer loop
      vertex -19.0451 177.5 17.9389
      vertex -15 177.5 15
      vertex -19.5677 177.5 17.0337
    endloop
  endfacet
  facet normal 0 1 0
    outer loop
      vertex -15 177.5 15
      vertex -10.1093 177.5 16.0396
      vertex -10 177.5 15
    endloop
  endfacet
  facet normal 0 1 0
    outer loop
      vertex -19.5677 177.5 17.0337
      vertex -15 177.5 15
      vertex -19.8907 177.5 16.0396
    endloop
  endfacet
  facet normal 0 1 0
    outer loop
      vertex -19.8907 177.5 16.0396
      vertex -15 177.5 15
      vertex -20 177.5 15
    endloop
  endfacet
  facet normal 0.951057 -0 0.309017
    outer loop
      vertex -10.4323 32.5 17.0337
      vertex -10.1093 177.5 16.0396
      vertex -10.4323 177.5 17.0337
    endloop
  endfacet
  facet normal 0.951057 0 0.309017
    outer loop
      vertex -10.1093 177.5 16.0396
      vertex -10.4323 32.5 17.0337
      vertex -10.1093 32.5 16.0396
    endloop
  endfacet
  facet normal -0.994522 0 0.104529
    outer loop
      vertex -20 32.5 15
      vertex -19.8907 177.5 16.0396
      vertex -20 177.5 15
    endloop
  endfacet
  facet normal -0.994522 0 0.104529
    outer loop
      vertex -19.8907 177.5 16.0396
      vertex -20 32.5 15
      vertex -19.8907 32.5 16.0396
    endloop
  endfacet
  facet normal -0 0 1
    outer loop
      vertex -15.5226 177.5 19.9726
      vertex -14.4774 32.5 19.9726
      vertex -14.4774 177.5 19.9726
    endloop
  endfacet
  facet normal 0 0 1
    outer loop
      vertex -14.4774 32.5 19.9726
      vertex -15.5226 177.5 19.9726
      vertex -15.5226 32.5 19.9726
    endloop
  endfacet
  facet normal 0 1 -2.76171e-005
    outer loop
      vertex -15.5226 177.5 10.0274
      vertex -15 177.5 15
      vertex -15 177.5 10.0274
    endloop
  endfacet
  facet normal 0 1 -2.76171e-005
    outer loop
      vertex -15 177.5 15
      vertex -15.5226 177.5 10.0274
      vertex -20 177.5 15
    endloop
  endfacet
  facet normal 0.587785 0 0.809017
    outer loop
      vertex -12.5 177.5 19.3301
      vertex -11.6543 32.5 18.7157
      vertex -11.6543 177.5 18.7157
    endloop
  endfacet
  facet normal 0.587785 0 0.809017
    outer loop
      vertex -11.6543 32.5 18.7157
      vertex -12.5 177.5 19.3301
      vertex -12.5 32.5 19.3301
    endloop
  endfacet
  facet normal 0.866025 -0 0.5
    outer loop
      vertex -10.9549 32.5 17.9389
      vertex -10.4323 177.5 17.0337
      vertex -10.9549 177.5 17.9389
    endloop
  endfacet
  facet normal 0.866025 0 0.5
    outer loop
      vertex -10.4323 177.5 17.0337
      vertex -10.9549 32.5 17.9389
      vertex -10.4323 32.5 17.0337
    endloop
  endfacet
  facet normal -0.587785 0 0.809017
    outer loop
      vertex -18.3457 177.5 18.7157
      vertex -17.5 32.5 19.3301
      vertex -17.5 177.5 19.3301
    endloop
  endfacet
  facet normal -0.587785 0 0.809017
    outer loop
      vertex -17.5 32.5 19.3301
      vertex -18.3457 177.5 18.7157
      vertex -18.3457 32.5 18.7157
    endloop
  endfacet
  facet normal -0.20791 0 0.978148
    outer loop
      vertex -16.5451 177.5 19.7553
      vertex -15.5226 32.5 19.9726
      vertex -15.5226 177.5 19.9726
    endloop
  endfacet
  facet normal -0.20791 0 0.978148
    outer loop
      vertex -15.5226 32.5 19.9726
      vertex -16.5451 177.5 19.7553
      vertex -16.5451 32.5 19.7553
    endloop
  endfacet
  facet normal -8.1197e-005 1 -7.31101e-005
    outer loop
      vertex -19.0451 177.5 12.0611
      vertex -20 177.5 15
      vertex -18.3457 177.5 11.2843
    endloop
  endfacet
  facet normal 0.743145 -0 0.669131
    outer loop
      vertex -11.6543 32.5 18.7157
      vertex -10.9549 177.5 17.9389
      vertex -11.6543 177.5 18.7157
    endloop
  endfacet
  facet normal 0.743145 0 0.669131
    outer loop
      vertex -10.9549 177.5 17.9389
      vertex -11.6543 32.5 18.7157
      vertex -10.9549 32.5 17.9389
    endloop
  endfacet
  facet normal 0.406737 0 0.913545
    outer loop
      vertex -13.4549 177.5 19.7553
      vertex -12.5 32.5 19.3301
      vertex -12.5 177.5 19.3301
    endloop
  endfacet
  facet normal 0.406737 0 0.913545
    outer loop
      vertex -12.5 32.5 19.3301
      vertex -13.4549 177.5 19.7553
      vertex -13.4549 32.5 19.7553
    endloop
  endfacet
  facet normal 0.20791 0 0.978148
    outer loop
      vertex -14.4774 177.5 19.9726
      vertex -13.4549 32.5 19.7553
      vertex -13.4549 177.5 19.7553
    endloop
  endfacet
  facet normal 0.20791 0 0.978148
    outer loop
      vertex -13.4549 32.5 19.7553
      vertex -14.4774 177.5 19.9726
      vertex -14.4774 32.5 19.9726
    endloop
  endfacet
  facet normal -0.866026 0 0.499999
    outer loop
      vertex -19.5677 32.5 17.0337
      vertex -19.0451 177.5 17.9389
      vertex -19.5677 177.5 17.0337
    endloop
  endfacet
  facet normal -0.866026 0 0.499999
    outer loop
      vertex -19.0451 177.5 17.9389
      vertex -19.5677 32.5 17.0337
      vertex -19.0451 32.5 17.9389
    endloop
  endfacet
  facet normal -0.406737 0 0.913545
    outer loop
      vertex -17.5 177.5 19.3301
      vertex -16.5451 32.5 19.7553
      vertex -16.5451 177.5 19.7553
    endloop
  endfacet
  facet normal -0.406737 0 0.913545
    outer loop
      vertex -16.5451 32.5 19.7553
      vertex -17.5 177.5 19.3301
      vertex -17.5 32.5 19.3301
    endloop
  endfacet
  facet normal -0.743145 0 0.669131
    outer loop
      vertex -19.0451 32.5 17.9389
      vertex -18.3457 177.5 18.7157
      vertex -19.0451 177.5 17.9389
    endloop
  endfacet
  facet normal -0.743145 0 0.669131
    outer loop
      vertex -18.3457 177.5 18.7157
      vertex -19.0451 32.5 17.9389
      vertex -18.3457 32.5 18.7157
    endloop
  endfacet
  facet normal -0.000600972 1 -0.000195268
    outer loop
      vertex -19.8907 177.5 13.9604
      vertex -20 177.5 15
      vertex -19.5677 177.5 12.9663
    endloop
  endfacet
  facet normal -0.951056 0 0.309017
    outer loop
      vertex -19.8907 32.5 16.0396
      vertex -19.5677 177.5 17.0337
      vertex -19.8907 177.5 16.0396
    endloop
  endfacet
  facet normal -0.951056 0 0.309017
    outer loop
      vertex -19.5677 177.5 17.0337
      vertex -19.8907 32.5 16.0396
      vertex -19.5677 32.5 17.0337
    endloop
  endfacet
  facet normal -0.866026 0 -0.499999
    outer loop
      vertex -19.0451 32.5 12.0611
      vertex -19.5677 177.5 12.9663
      vertex -19.0451 177.5 12.0611
    endloop
  endfacet
  facet normal -0.866026 -0 -0.499999
    outer loop
      vertex -19.5677 177.5 12.9663
      vertex -19.0451 32.5 12.0611
      vertex -19.5677 32.5 12.9663
    endloop
  endfacet
  facet normal -0.951056 0 -0.309018
    outer loop
      vertex -19.5677 32.5 12.9663
      vertex -19.8907 177.5 13.9604
      vertex -19.5677 177.5 12.9663
    endloop
  endfacet
  facet normal -0.951056 -0 -0.309018
    outer loop
      vertex -19.8907 177.5 13.9604
      vertex -19.5677 32.5 12.9663
      vertex -19.8907 32.5 13.9604
    endloop
  endfacet
  facet normal -0.994522 0 -0.104529
    outer loop
      vertex -19.8907 32.5 13.9604
      vertex -20 177.5 15
      vertex -19.8907 177.5 13.9604
    endloop
  endfacet
  facet normal -0.994522 -0 -0.104529
    outer loop
      vertex -20 177.5 15
      vertex -19.8907 32.5 13.9604
      vertex -20 32.5 15
    endloop
  endfacet
  facet normal 0 0 -1
    outer loop
      vertex -15.5226 32.5 10.0274
      vertex -15 177.5 10.0274
      vertex -15 32.5 10.0274
    endloop
  endfacet
  facet normal -0 0 -1
    outer loop
      vertex -15 177.5 10.0274
      vertex -15.5226 32.5 10.0274
      vertex -15.5226 177.5 10.0274
    endloop
  endfacet
  facet normal -7.25955e-006 1 -3.41536e-005
    outer loop
      vertex -16.5451 177.5 10.2447
      vertex -20 177.5 15
      vertex -15.5226 177.5 10.0274
    endloop
  endfacet
  facet normal -1.90059e-005 1 -4.26878e-005
    outer loop
      vertex -17.5 177.5 10.6699
      vertex -20 177.5 15
      vertex -16.5451 177.5 10.2447
    endloop
  endfacet
  facet normal -0.000185112 1 -0.000106874
    outer loop
      vertex -19.5677 177.5 12.9663
      vertex -20 177.5 15
      vertex -19.0451 177.5 12.0611
    endloop
  endfacet
  facet normal -0.743145 0 -0.669131
    outer loop
      vertex -18.3457 32.5 11.2843
      vertex -19.0451 177.5 12.0611
      vertex -18.3457 177.5 11.2843
    endloop
  endfacet
  facet normal -0.743145 -0 -0.669131
    outer loop
      vertex -19.0451 177.5 12.0611
      vertex -18.3457 32.5 11.2843
      vertex -19.0451 32.5 12.0611
    endloop
  endfacet
  facet normal -0.587785 0 -0.809017
    outer loop
      vertex -18.3457 32.5 11.2843
      vertex -17.5 177.5 10.6699
      vertex -17.5 32.5 10.6699
    endloop
  endfacet
  facet normal -0.587785 0 -0.809017
    outer loop
      vertex -17.5 177.5 10.6699
      vertex -18.3457 32.5 11.2843
      vertex -18.3457 177.5 11.2843
    endloop
  endfacet
  facet normal -3.96915e-005 1 -5.46307e-005
    outer loop
      vertex -18.3457 177.5 11.2843
      vertex -20 177.5 15
      vertex -17.5 177.5 10.6699
    endloop
  endfacet
  facet normal -0.406737 0 -0.913545
    outer loop
      vertex -17.5 32.5 10.6699
      vertex -16.5451 177.5 10.2447
      vertex -16.5451 32.5 10.2447
    endloop
  endfacet
  facet normal -0.406737 0 -0.913545
    outer loop
      vertex -16.5451 177.5 10.2447
      vertex -17.5 32.5 10.6699
      vertex -17.5 177.5 10.6699
    endloop
  endfacet
  facet normal -0.207911 0 -0.978148
    outer loop
      vertex -16.5451 32.5 10.2447
      vertex -15.5226 177.5 10.0274
      vertex -15.5226 32.5 10.0274
    endloop
  endfacet
  facet normal -0.207911 0 -0.978148
    outer loop
      vertex -15.5226 177.5 10.0274
      vertex -16.5451 32.5 10.2447
      vertex -16.5451 177.5 10.2447
    endloop
  endfacet
  facet normal -1 0 0
    outer loop
      vertex -15 177.5 0
      vertex -15 177.5 10.0274
      vertex -15 177.5 15
    endloop
  endfacet
  facet normal -1 0 0
    outer loop
      vertex -15 32.5 0
      vertex -15 177.5 10.0274
      vertex -15 177.5 0
    endloop
  endfacet
  facet normal -1 -0 0
    outer loop
      vertex -15 177.5 10.0274
      vertex -15 32.5 0
      vertex -15 32.5 10.0274
    endloop
  endfacet
  facet normal 1 0 0
    outer loop
      vertex -10 177.5 15
      vertex -10 172.5 5
      vertex -10 177.5 5
    endloop
  endfacet
  facet normal 1 0 0
    outer loop
      vertex -10 172.5 5
      vertex -10 139.05 5
      vertex -10 172.5 0
    endloop
  endfacet
  facet normal 1 0 0
    outer loop
      vertex -10 177.5 15
      vertex -10 139.05 5
      vertex -10 172.5 5
    endloop
  endfacet
  facet normal 1 0 0
    outer loop
      vertex -10 177.5 15
      vertex -10 134.05 5
      vertex -10 139.05 5
    endloop
  endfacet
  facet normal 1 0 0
    outer loop
      vertex -10 134.05 5
      vertex -10 105 5
      vertex -10 134.05 0
    endloop
  endfacet
  facet normal 1 0 0
    outer loop
      vertex -10 177.5 15
      vertex -10 105 5
      vertex -10 134.05 5
    endloop
  endfacet
  facet normal 1 -0 0
    outer loop
      vertex -10 32.5 15
      vertex -10 105 5
      vertex -10 177.5 15
    endloop
  endfacet
  facet normal 1 0 0
    outer loop
      vertex -10 100 5
      vertex -10 66.55 5
      vertex -10 100 0
    endloop
  endfacet
  facet normal 1 0 0
    outer loop
      vertex -10 105 5
      vertex -10 32.5 15
      vertex -10 100 5
    endloop
  endfacet
  facet normal 1 0 0
    outer loop
      vertex -10 100 5
      vertex -10 32.5 15
      vertex -10 66.55 5
    endloop
  endfacet
  facet normal 1 0 0
    outer loop
      vertex -10 66.55 5
      vertex -10 32.5 15
      vertex -10 61.55 5
    endloop
  endfacet
  facet normal 1 0 0
    outer loop
      vertex -10 32.5 0
      vertex -10 61.55 5
      vertex -10 32.5 15
    endloop
  endfacet
  facet normal 1 0 0
    outer loop
      vertex -10 61.55 5
      vertex -10 32.5 0
      vertex -10 61.55 0
    endloop
  endfacet
  facet normal 1 0 0
    outer loop
      vertex -10 172.5 0
      vertex -10 139.05 5
      vertex -10 139.05 0
    endloop
  endfacet
  facet normal 1 0 0
    outer loop
      vertex -10 134.05 0
      vertex -10 105 5
      vertex -10 105 0
    endloop
  endfacet
  facet normal 1 0 0
    outer loop
      vertex -10 100 0
      vertex -10 66.55 5
      vertex -10 66.55 0
    endloop
  endfacet
  facet normal -0.994522 0 0.104528
    outer loop
      vertex 10 32.5 15
      vertex 10.1093 177.5 16.0396
      vertex 10 177.5 15
    endloop
  endfacet
  facet normal -0.994522 0 0.104528
    outer loop
      vertex 10.1093 177.5 16.0396
      vertex 10 32.5 15
      vertex 10.1093 32.5 16.0396
    endloop
  endfacet
  facet normal -0.951057 0 0.309017
    outer loop
      vertex 10.1093 32.5 16.0396
      vertex 10.4323 177.5 17.0337
      vertex 10.1093 177.5 16.0396
    endloop
  endfacet
  facet normal -0.951057 0 0.309017
    outer loop
      vertex 10.4323 177.5 17.0337
      vertex 10.1093 32.5 16.0396
      vertex 10.4323 32.5 17.0337
    endloop
  endfacet
  facet normal 0.994522 -0 0.104529
    outer loop
      vertex 19.8907 32.5 16.0396
      vertex 20 177.5 15
      vertex 19.8907 177.5 16.0396
    endloop
  endfacet
  facet normal 0.994522 0 0.104529
    outer loop
      vertex 20 177.5 15
      vertex 19.8907 32.5 16.0396
      vertex 20 32.5 15
    endloop
  endfacet
  facet normal -0 0 1
    outer loop
      vertex 14.4774 177.5 19.9726
      vertex 15.5226 32.5 19.9726
      vertex 15.5226 177.5 19.9726
    endloop
  endfacet
  facet normal 0 0 1
    outer loop
      vertex 15.5226 32.5 19.9726
      vertex 14.4774 177.5 19.9726
      vertex 14.4774 32.5 19.9726
    endloop
  endfacet
  facet normal 0 1 -2.76171e-005
    outer loop
      vertex 15.5226 177.5 10.0274
      vertex 15 177.5 15
      vertex 20 177.5 15
    endloop
  endfacet
  facet normal 0 1 -2.76171e-005
    outer loop
      vertex 15 177.5 15
      vertex 15.5226 177.5 10.0274
      vertex 15 177.5 10.0274
    endloop
  endfacet
  facet normal -0.587785 0 0.809017
    outer loop
      vertex 11.6543 177.5 18.7157
      vertex 12.5 32.5 19.3301
      vertex 12.5 177.5 19.3301
    endloop
  endfacet
  facet normal -0.587785 0 0.809017
    outer loop
      vertex 12.5 32.5 19.3301
      vertex 11.6543 177.5 18.7157
      vertex 11.6543 32.5 18.7157
    endloop
  endfacet
  facet normal -0.866025 0 0.5
    outer loop
      vertex 10.4323 32.5 17.0337
      vertex 10.9549 177.5 17.9389
      vertex 10.4323 177.5 17.0337
    endloop
  endfacet
  facet normal -0.866025 0 0.5
    outer loop
      vertex 10.9549 177.5 17.9389
      vertex 10.4323 32.5 17.0337
      vertex 10.9549 32.5 17.9389
    endloop
  endfacet
  facet normal 0.587785 0 0.809017
    outer loop
      vertex 17.5 177.5 19.3301
      vertex 18.3457 32.5 18.7157
      vertex 18.3457 177.5 18.7157
    endloop
  endfacet
  facet normal 0.587785 0 0.809017
    outer loop
      vertex 18.3457 32.5 18.7157
      vertex 17.5 177.5 19.3301
      vertex 17.5 32.5 19.3301
    endloop
  endfacet
  facet normal 0.20791 0 0.978148
    outer loop
      vertex 15.5226 177.5 19.9726
      vertex 16.5451 32.5 19.7553
      vertex 16.5451 177.5 19.7553
    endloop
  endfacet
  facet normal 0.20791 0 0.978148
    outer loop
      vertex 16.5451 32.5 19.7553
      vertex 15.5226 177.5 19.9726
      vertex 15.5226 32.5 19.9726
    endloop
  endfacet
  facet normal 8.1197e-005 1 -7.31101e-005
    outer loop
      vertex 20 177.5 15
      vertex 19.0451 177.5 12.0611
      vertex 18.3457 177.5 11.2843
    endloop
  endfacet
  facet normal -0.743145 0 0.669131
    outer loop
      vertex 10.9549 32.5 17.9389
      vertex 11.6543 177.5 18.7157
      vertex 10.9549 177.5 17.9389
    endloop
  endfacet
  facet normal -0.743145 0 0.669131
    outer loop
      vertex 11.6543 177.5 18.7157
      vertex 10.9549 32.5 17.9389
      vertex 11.6543 32.5 18.7157
    endloop
  endfacet
  facet normal -0.406737 0 0.913545
    outer loop
      vertex 12.5 177.5 19.3301
      vertex 13.4549 32.5 19.7553
      vertex 13.4549 177.5 19.7553
    endloop
  endfacet
  facet normal -0.406737 0 0.913545
    outer loop
      vertex 13.4549 32.5 19.7553
      vertex 12.5 177.5 19.3301
      vertex 12.5 32.5 19.3301
    endloop
  endfacet
  facet normal -0.20791 0 0.978148
    outer loop
      vertex 13.4549 177.5 19.7553
      vertex 14.4774 32.5 19.9726
      vertex 14.4774 177.5 19.9726
    endloop
  endfacet
  facet normal -0.20791 0 0.978148
    outer loop
      vertex 14.4774 32.5 19.9726
      vertex 13.4549 177.5 19.7553
      vertex 13.4549 32.5 19.7553
    endloop
  endfacet
  facet normal 0.866026 -0 0.499999
    outer loop
      vertex 19.0451 32.5 17.9389
      vertex 19.5677 177.5 17.0337
      vertex 19.0451 177.5 17.9389
    endloop
  endfacet
  facet normal 0.866026 0 0.499999
    outer loop
      vertex 19.5677 177.5 17.0337
      vertex 19.0451 32.5 17.9389
      vertex 19.5677 32.5 17.0337
    endloop
  endfacet
  facet normal 0.406737 0 0.913545
    outer loop
      vertex 16.5451 177.5 19.7553
      vertex 17.5 32.5 19.3301
      vertex 17.5 177.5 19.3301
    endloop
  endfacet
  facet normal 0.406737 0 0.913545
    outer loop
      vertex 17.5 32.5 19.3301
      vertex 16.5451 177.5 19.7553
      vertex 16.5451 32.5 19.7553
    endloop
  endfacet
  facet normal 0.743145 -0 0.669131
    outer loop
      vertex 18.3457 32.5 18.7157
      vertex 19.0451 177.5 17.9389
      vertex 18.3457 177.5 18.7157
    endloop
  endfacet
  facet normal 0.743145 0 0.669131
    outer loop
      vertex 19.0451 177.5 17.9389
      vertex 18.3457 32.5 18.7157
      vertex 19.0451 32.5 17.9389
    endloop
  endfacet
  facet normal 0.000600972 1 -0.000195268
    outer loop
      vertex 20 177.5 15
      vertex 19.8907 177.5 13.9604
      vertex 19.5677 177.5 12.9663
    endloop
  endfacet
  facet normal 0.951056 -0 0.309017
    outer loop
      vertex 19.5677 32.5 17.0337
      vertex 19.8907 177.5 16.0396
      vertex 19.5677 177.5 17.0337
    endloop
  endfacet
  facet normal 0.951056 0 0.309017
    outer loop
      vertex 19.8907 177.5 16.0396
      vertex 19.5677 32.5 17.0337
      vertex 19.8907 32.5 16.0396
    endloop
  endfacet
  facet normal 0.866026 0 -0.499999
    outer loop
      vertex 19.5677 32.5 12.9663
      vertex 19.0451 177.5 12.0611
      vertex 19.5677 177.5 12.9663
    endloop
  endfacet
  facet normal 0.866026 0 -0.499999
    outer loop
      vertex 19.0451 177.5 12.0611
      vertex 19.5677 32.5 12.9663
      vertex 19.0451 32.5 12.0611
    endloop
  endfacet
  facet normal 0.951056 0 -0.309018
    outer loop
      vertex 19.8907 32.5 13.9604
      vertex 19.5677 177.5 12.9663
      vertex 19.8907 177.5 13.9604
    endloop
  endfacet
  facet normal 0.951056 0 -0.309018
    outer loop
      vertex 19.5677 177.5 12.9663
      vertex 19.8907 32.5 13.9604
      vertex 19.5677 32.5 12.9663
    endloop
  endfacet
  facet normal 0.994522 0 -0.104529
    outer loop
      vertex 20 32.5 15
      vertex 19.8907 177.5 13.9604
      vertex 20 177.5 15
    endloop
  endfacet
  facet normal 0.994522 0 -0.104529
    outer loop
      vertex 19.8907 177.5 13.9604
      vertex 20 32.5 15
      vertex 19.8907 32.5 13.9604
    endloop
  endfacet
  facet normal 0 0 -1
    outer loop
      vertex 15 32.5 10.0274
      vertex 15.5226 177.5 10.0274
      vertex 15.5226 32.5 10.0274
    endloop
  endfacet
  facet normal -0 0 -1
    outer loop
      vertex 15.5226 177.5 10.0274
      vertex 15 32.5 10.0274
      vertex 15 177.5 10.0274
    endloop
  endfacet
  facet normal 7.25955e-006 1 -3.41536e-005
    outer loop
      vertex 20 177.5 15
      vertex 16.5451 177.5 10.2447
      vertex 15.5226 177.5 10.0274
    endloop
  endfacet
  facet normal 1.90059e-005 1 -4.26878e-005
    outer loop
      vertex 20 177.5 15
      vertex 17.5 177.5 10.6699
      vertex 16.5451 177.5 10.2447
    endloop
  endfacet
  facet normal 0.000185112 1 -0.000106874
    outer loop
      vertex 20 177.5 15
      vertex 19.5677 177.5 12.9663
      vertex 19.0451 177.5 12.0611
    endloop
  endfacet
  facet normal 0.743145 0 -0.669131
    outer loop
      vertex 19.0451 32.5 12.0611
      vertex 18.3457 177.5 11.2843
      vertex 19.0451 177.5 12.0611
    endloop
  endfacet
  facet normal 0.743145 0 -0.669131
    outer loop
      vertex 18.3457 177.5 11.2843
      vertex 19.0451 32.5 12.0611
      vertex 18.3457 32.5 11.2843
    endloop
  endfacet
  facet normal 0.587785 0 -0.809017
    outer loop
      vertex 17.5 32.5 10.6699
      vertex 18.3457 177.5 11.2843
      vertex 18.3457 32.5 11.2843
    endloop
  endfacet
  facet normal 0.587785 0 -0.809017
    outer loop
      vertex 18.3457 177.5 11.2843
      vertex 17.5 32.5 10.6699
      vertex 17.5 177.5 10.6699
    endloop
  endfacet
  facet normal 3.96915e-005 1 -5.46307e-005
    outer loop
      vertex 20 177.5 15
      vertex 18.3457 177.5 11.2843
      vertex 17.5 177.5 10.6699
    endloop
  endfacet
  facet normal 0.406737 0 -0.913545
    outer loop
      vertex 16.5451 32.5 10.2447
      vertex 17.5 177.5 10.6699
      vertex 17.5 32.5 10.6699
    endloop
  endfacet
  facet normal 0.406737 0 -0.913545
    outer loop
      vertex 17.5 177.5 10.6699
      vertex 16.5451 32.5 10.2447
      vertex 16.5451 177.5 10.2447
    endloop
  endfacet
  facet normal 0.207911 0 -0.978148
    outer loop
      vertex 15.5226 32.5 10.0274
      vertex 16.5451 177.5 10.2447
      vertex 16.5451 32.5 10.2447
    endloop
  endfacet
  facet normal 0.207911 0 -0.978148
    outer loop
      vertex 16.5451 177.5 10.2447
      vertex 15.5226 32.5 10.0274
      vertex 15.5226 177.5 10.0274
    endloop
  endfacet
  facet normal 1 -0 0
    outer loop
      vertex 15 177.5 10.0274
      vertex 15 177.5 0
      vertex 15 177.5 15
    endloop
  endfacet
  facet normal 1 -0 0
    outer loop
      vertex 15 32.5 10.0274
      vertex 15 177.5 0
      vertex 15 177.5 10.0274
    endloop
  endfacet
  facet normal 1 0 0
    outer loop
      vertex 15 177.5 0
      vertex 15 32.5 10.0274
      vertex 15 32.5 0
    endloop
  endfacet
  facet normal -1 0 0
    outer loop
      vertex 10 61.55 0
      vertex 10 32.5 0
      vertex 10 61.55 5
    endloop
  endfacet
  facet normal -1 0 0
    outer loop
      vertex 10 100 0
      vertex 10 66.55 0
      vertex 10 100 5
    endloop
  endfacet
  facet normal -1 0 0
    outer loop
      vertex 10 134.05 0
      vertex 10 105 0
      vertex 10 134.05 5
    endloop
  endfacet
  facet normal -1 0 0
    outer loop
      vertex 10 172.5 0
      vertex 10 139.05 0
      vertex 10 172.5 5
    endloop
  endfacet
  facet normal -1 0 0
    outer loop
      vertex 10 172.5 5
      vertex 10 177.5 15
      vertex 10 177.5 5
    endloop
  endfacet
  facet normal -1 0 0
    outer loop
      vertex 10 139.05 5
      vertex 10 172.5 5
      vertex 10 139.05 0
    endloop
  endfacet
  facet normal -1 0 0
    outer loop
      vertex 10 172.5 5
      vertex 10 139.05 5
      vertex 10 177.5 15
    endloop
  endfacet
  facet normal -1 0 0
    outer loop
      vertex 10 134.05 5
      vertex 10 177.5 15
      vertex 10 139.05 5
    endloop
  endfacet
  facet normal -1 0 0
    outer loop
      vertex 10 105 5
      vertex 10 134.05 5
      vertex 10 105 0
    endloop
  endfacet
  facet normal -1 0 0
    outer loop
      vertex 10 134.05 5
      vertex 10 105 5
      vertex 10 177.5 15
    endloop
  endfacet
  facet normal -1 0 0
    outer loop
      vertex 10 32.5 15
      vertex 10 105 5
      vertex 10 100 5
    endloop
  endfacet
  facet normal -1 0 0
    outer loop
      vertex 10 66.55 5
      vertex 10 100 5
      vertex 10 66.55 0
    endloop
  endfacet
  facet normal -1 0 0
    outer loop
      vertex 10 32.5 15
      vertex 10 100 5
      vertex 10 66.55 5
    endloop
  endfacet
  facet normal -1 0 0
    outer loop
      vertex 10 32.5 15
      vertex 10 66.55 5
      vertex 10 61.55 5
    endloop
  endfacet
  facet normal -1 0 0
    outer loop
      vertex 10 105 5
      vertex 10 32.5 15
      vertex 10 177.5 15
    endloop
  endfacet
  facet normal -1 0 0
    outer loop
      vertex 10 32.5 15
      vertex 10 61.55 5
      vertex 10 32.5 0
    endloop
  endfacet
  facet normal -0 0 1
    outer loop
      vertex -10 177.5 5
      vertex 10 172.5 5
      vertex 10 177.5 5
    endloop
  endfacet
  facet normal 0 0 1
    outer loop
      vertex 10 172.5 5
      vertex -10 177.5 5
      vertex -10 172.5 5
    endloop
  endfacet
  facet normal 0 -1 0
    outer loop
      vertex -10 172.5 0
      vertex 10 172.5 5
      vertex -10 172.5 5
    endloop
  endfacet
  facet normal 0 -1 -0
    outer loop
      vertex 10 172.5 5
      vertex -10 172.5 0
      vertex 10 172.5 0
    endloop
  endfacet
  facet normal -0 0 1
    outer loop
      vertex -10 105 5
      vertex 10 100 5
      vertex 10 105 5
    endloop
  endfacet
  facet normal 0 0 1
    outer loop
      vertex 10 100 5
      vertex -10 105 5
      vertex -10 100 5
    endloop
  endfacet
  facet normal 0 -1 0
    outer loop
      vertex -10 100 0
      vertex 10 100 5
      vertex -10 100 5
    endloop
  endfacet
  facet normal 0 -1 -0
    outer loop
      vertex 10 100 5
      vertex -10 100 0
      vertex 10 100 0
    endloop
  endfacet
  facet normal 0 1 -0
    outer loop
      vertex 10 105 0
      vertex -10 105 5
      vertex 10 105 5
    endloop
  endfacet
  facet normal 0 1 0
    outer loop
      vertex -10 105 5
      vertex 10 105 0
      vertex -10 105 0
    endloop
  endfacet
  facet normal -0 0 1
    outer loop
      vertex -10 66.55 5
      vertex 10 61.55 5
      vertex 10 66.55 5
    endloop
  endfacet
  facet normal 0 0 1
    outer loop
      vertex 10 61.55 5
      vertex -10 66.55 5
      vertex -10 61.55 5
    endloop
  endfacet
  facet normal 0 -1 0
    outer loop
      vertex -10 61.55 0
      vertex 10 61.55 5
      vertex -10 61.55 5
    endloop
  endfacet
  facet normal 0 -1 -0
    outer loop
      vertex 10 61.55 5
      vertex -10 61.55 0
      vertex 10 61.55 0
    endloop
  endfacet
  facet normal 0 1 -0
    outer loop
      vertex 10 66.55 0
      vertex -10 66.55 5
      vertex 10 66.55 5
    endloop
  endfacet
  facet normal 0 1 0
    outer loop
      vertex -10 66.55 5
      vertex 10 66.55 0
      vertex -10 66.55 0
    endloop
  endfacet
  facet normal -0 0 1
    outer loop
      vertex -10 139.05 5
      vertex 10 134.05 5
      vertex 10 139.05 5
    endloop
  endfacet
  facet normal 0 0 1
    outer loop
      vertex 10 134.05 5
      vertex -10 139.05 5
      vertex -10 134.05 5
    endloop
  endfacet
  facet normal 0 -1 0
    outer loop
      vertex -10 134.05 0
      vertex 10 134.05 5
      vertex -10 134.05 5
    endloop
  endfacet
  facet normal 0 -1 -0
    outer loop
      vertex 10 134.05 5
      vertex -10 134.05 0
      vertex 10 134.05 0
    endloop
  endfacet
  facet normal 0 1 -0
    outer loop
      vertex 10 139.05 0
      vertex -10 139.05 5
      vertex 10 139.05 5
    endloop
  endfacet
  facet normal 0 1 0
    outer loop
      vertex -10 139.05 5
      vertex 10 139.05 0
      vertex -10 139.05 0
    endloop
  endfacet
endsolid OpenSCAD_Model
