solid OpenSCAD_Model
  facet normal 1 0 0
    outer loop
      vertex 35 -2.4 4
      vertex 35 -4.4 4
      vertex 35 -2.4 4.28612e-015
    endloop
  endfacet
  facet normal 1 0 0
    outer loop
      vertex 35 2.4 4.28612e-015
      vertex 35 4.4 4
      vertex 35 2.4 4
    endloop
  endfacet
  facet normal 1 0 0
    outer loop
      vertex 35 4.4 4
      vertex 35 2.4 4.28612e-015
      vertex 35 4.4 -3
    endloop
  endfacet
  facet normal 1 -0 0
    outer loop
      vertex 35 -2.4 4.28612e-015
      vertex 35 4.4 -3
      vertex 35 2.4 4.28612e-015
    endloop
  endfacet
  facet normal 1 0 0
    outer loop
      vertex 35 -2.4 4.28612e-015
      vertex 35 -4.4 -3
      vertex 35 4.4 -3
    endloop
  endfacet
  facet normal 1 0 0
    outer loop
      vertex 35 -4.4 -3
      vertex 35 -2.4 4.28612e-015
      vertex 35 -4.4 4
    endloop
  endfacet
  facet normal 0 0 -1
    outer loop
      vertex -35 -4.4 -3
      vertex 35 4.4 -3
      vertex 35 -4.4 -3
    endloop
  endfacet
  facet normal -0 0 -1
    outer loop
      vertex 35 4.4 -3
      vertex -35 -4.4 -3
      vertex -35 4.4 -3
    endloop
  endfacet
  facet normal -1 0 0
    outer loop
      vertex -35 4.4 -3
      vertex -35 2.4 -4.28612e-015
      vertex -35 4.4 4
    endloop
  endfacet
  facet normal -1 0 0
    outer loop
      vertex -35 4.4 -3
      vertex -35 -2.4 -4.28612e-015
      vertex -35 2.4 -4.28612e-015
    endloop
  endfacet
  facet normal -1 0 0
    outer loop
      vertex -35 -4.4 -3
      vertex -35 -2.4 -4.28612e-015
      vertex -35 4.4 -3
    endloop
  endfacet
  facet normal -1 0 0
    outer loop
      vertex -35 -4.4 4
      vertex -35 -2.4 -4.28612e-015
      vertex -35 -4.4 -3
    endloop
  endfacet
  facet normal -1 0 0
    outer loop
      vertex -35 -2.4 -4.28612e-015
      vertex -35 -4.4 4
      vertex -35 -2.4 4
    endloop
  endfacet
  facet normal -1 -0 0
    outer loop
      vertex -35 4.4 4
      vertex -35 2.4 -4.28612e-015
      vertex -35 2.4 4
    endloop
  endfacet
  facet normal -1.22461e-016 0 1
    outer loop
      vertex -35 2.4 -4.28612e-015
      vertex 35 -2.4 4.28612e-015
      vertex 35 2.4 4.28612e-015
    endloop
  endfacet
  facet normal -1.22461e-016 0 1
    outer loop
      vertex 35 -2.4 4.28612e-015
      vertex -35 2.4 -4.28612e-015
      vertex -35 -2.4 -4.28612e-015
    endloop
  endfacet
  facet normal 0 -1 0
    outer loop
      vertex -35 -4.4 -3
      vertex 35 -4.4 4
      vertex -35 -4.4 4
    endloop
  endfacet
  facet normal 0 -1 -0
    outer loop
      vertex 35 -4.4 4
      vertex -35 -4.4 -3
      vertex 35 -4.4 -3
    endloop
  endfacet
  facet normal 0 1 -0
    outer loop
      vertex 35 4.4 -3
      vertex -35 4.4 4
      vertex 35 4.4 4
    endloop
  endfacet
  facet normal 0 1 0
    outer loop
      vertex -35 4.4 4
      vertex 35 4.4 -3
      vertex -35 4.4 -3
    endloop
  endfacet
  facet normal -0 0 1
    outer loop
      vertex -35 4.4 4
      vertex 35 2.4 4
      vertex 35 4.4 4
    endloop
  endfacet
  facet normal 0 0 1
    outer loop
      vertex 35 2.4 4
      vertex -35 4.4 4
      vertex -35 2.4 4
    endloop
  endfacet
  facet normal 0 -1 0
    outer loop
      vertex -35 2.4 4
      vertex 35 2.4 4.28612e-015
      vertex 35 2.4 4
    endloop
  endfacet
  facet normal -0 -1 0
    outer loop
      vertex 35 2.4 4.28612e-015
      vertex -35 2.4 4
      vertex -35 2.4 -4.28612e-015
    endloop
  endfacet
  facet normal 0 1 -0
    outer loop
      vertex 35 -2.4 4.28612e-015
      vertex -35 -2.4 4
      vertex 35 -2.4 4
    endloop
  endfacet
  facet normal 0 1 0
    outer loop
      vertex -35 -2.4 4
      vertex 35 -2.4 4.28612e-015
      vertex -35 -2.4 -4.28612e-015
    endloop
  endfacet
  facet normal -0 0 1
    outer loop
      vertex -35 -2.4 4
      vertex 35 -4.4 4
      vertex 35 -2.4 4
    endloop
  endfacet
  facet normal 0 0 1
    outer loop
      vertex 35 -4.4 4
      vertex -35 -2.4 4
      vertex -35 -4.4 4
    endloop
  endfacet
endsolid OpenSCAD_Model
